<?xml version="1.0" encoding="utf-8" standalone="no"?>
<!DOCTYPE svg PUBLIC "-//W3C//DTD SVG 1.1//EN"
  "http://www.w3.org/Graphics/SVG/1.1/DTD/svg11.dtd">
<svg xmlns:xlink="http://www.w3.org/1999/xlink" width="453.6pt" height="338.4pt" viewBox="0 0 453.6 338.4" xmlns="http://www.w3.org/2000/svg" version="1.1">
 <metadata>
  <rdf:RDF xmlns:dc="http://purl.org/dc/elements/1.1/" xmlns:cc="http://creativecommons.org/ns#" xmlns:rdf="http://www.w3.org/1999/02/22-rdf-syntax-ns#">
   <cc:Work>
    <dc:type rdf:resource="http://purl.org/dc/dcmitype/StillImage"/>
    <dc:date>2022-02-15T00:02:09.411282</dc:date>
    <dc:format>image/svg+xml</dc:format>
    <dc:creator>
     <cc:Agent>
      <dc:title>Matplotlib v3.5.1, https://matplotlib.org/</dc:title>
     </cc:Agent>
    </dc:creator>
   </cc:Work>
  </rdf:RDF>
 </metadata>
 <defs>
  <style type="text/css">*{stroke-linejoin: round; stroke-linecap: butt}</style>
 </defs>
 <g id="figure_1">
  <g id="patch_1">
   <path d="M 0 338.4 
L 453.6 338.4 
L 453.6 0 
L 0 0 
z
" style="fill: #ffffff"/>
  </g>
  <g id="axes_1">
   <g id="patch_2">
    <path d="M 49.807188 295.440313 
L 446.4 295.440313 
L 446.4 7.2 
L 49.807188 7.2 
z
" style="fill: #ffffff"/>
   </g>
   <g id="matplotlib.axis_1">
    <g id="xtick_1">
     <g id="line2d_1">
      <defs>
       <path id="mc2d0b8d1b0" d="M 0 0 
L 0 6 
" style="stroke: #262626; stroke-width: 1.25"/>
      </defs>
      <g>
       <use xlink:href="#mc2d0b8d1b0" x="67.834134" y="295.440313" style="fill: #262626; stroke: #262626; stroke-width: 1.25"/>
      </g>
     </g>
     <g id="text_1">
      <!-- 0 -->
      <g style="fill: #262626" transform="translate(64.334759 313.298594)scale(0.11 -0.11)">
       <defs>
        <path id="DejaVuSans-30" d="M 2034 4250 
Q 1547 4250 1301 3770 
Q 1056 3291 1056 2328 
Q 1056 1369 1301 889 
Q 1547 409 2034 409 
Q 2525 409 2770 889 
Q 3016 1369 3016 2328 
Q 3016 3291 2770 3770 
Q 2525 4250 2034 4250 
z
M 2034 4750 
Q 2819 4750 3233 4129 
Q 3647 3509 3647 2328 
Q 3647 1150 3233 529 
Q 2819 -91 2034 -91 
Q 1250 -91 836 529 
Q 422 1150 422 2328 
Q 422 3509 836 4129 
Q 1250 4750 2034 4750 
z
" transform="scale(0.015625)"/>
       </defs>
       <use xlink:href="#DejaVuSans-30"/>
      </g>
     </g>
    </g>
    <g id="xtick_2">
     <g id="line2d_2">
      <g>
       <use xlink:href="#mc2d0b8d1b0" x="138.389695" y="295.440313" style="fill: #262626; stroke: #262626; stroke-width: 1.25"/>
      </g>
     </g>
     <g id="text_2">
      <!-- 100 -->
      <g style="fill: #262626" transform="translate(127.89157 313.298594)scale(0.11 -0.11)">
       <defs>
        <path id="DejaVuSans-31" d="M 794 531 
L 1825 531 
L 1825 4091 
L 703 3866 
L 703 4441 
L 1819 4666 
L 2450 4666 
L 2450 531 
L 3481 531 
L 3481 0 
L 794 0 
L 794 531 
z
" transform="scale(0.015625)"/>
       </defs>
       <use xlink:href="#DejaVuSans-31"/>
       <use xlink:href="#DejaVuSans-30" x="63.623047"/>
       <use xlink:href="#DejaVuSans-30" x="127.246094"/>
      </g>
     </g>
    </g>
    <g id="xtick_3">
     <g id="line2d_3">
      <g>
       <use xlink:href="#mc2d0b8d1b0" x="208.945257" y="295.440313" style="fill: #262626; stroke: #262626; stroke-width: 1.25"/>
      </g>
     </g>
     <g id="text_3">
      <!-- 200 -->
      <g style="fill: #262626" transform="translate(198.447132 313.298594)scale(0.11 -0.11)">
       <defs>
        <path id="DejaVuSans-32" d="M 1228 531 
L 3431 531 
L 3431 0 
L 469 0 
L 469 531 
Q 828 903 1448 1529 
Q 2069 2156 2228 2338 
Q 2531 2678 2651 2914 
Q 2772 3150 2772 3378 
Q 2772 3750 2511 3984 
Q 2250 4219 1831 4219 
Q 1534 4219 1204 4116 
Q 875 4013 500 3803 
L 500 4441 
Q 881 4594 1212 4672 
Q 1544 4750 1819 4750 
Q 2544 4750 2975 4387 
Q 3406 4025 3406 3419 
Q 3406 3131 3298 2873 
Q 3191 2616 2906 2266 
Q 2828 2175 2409 1742 
Q 1991 1309 1228 531 
z
" transform="scale(0.015625)"/>
       </defs>
       <use xlink:href="#DejaVuSans-32"/>
       <use xlink:href="#DejaVuSans-30" x="63.623047"/>
       <use xlink:href="#DejaVuSans-30" x="127.246094"/>
      </g>
     </g>
    </g>
    <g id="xtick_4">
     <g id="line2d_4">
      <g>
       <use xlink:href="#mc2d0b8d1b0" x="279.500819" y="295.440313" style="fill: #262626; stroke: #262626; stroke-width: 1.25"/>
      </g>
     </g>
     <g id="text_4">
      <!-- 300 -->
      <g style="fill: #262626" transform="translate(269.002694 313.298594)scale(0.11 -0.11)">
       <defs>
        <path id="DejaVuSans-33" d="M 2597 2516 
Q 3050 2419 3304 2112 
Q 3559 1806 3559 1356 
Q 3559 666 3084 287 
Q 2609 -91 1734 -91 
Q 1441 -91 1130 -33 
Q 819 25 488 141 
L 488 750 
Q 750 597 1062 519 
Q 1375 441 1716 441 
Q 2309 441 2620 675 
Q 2931 909 2931 1356 
Q 2931 1769 2642 2001 
Q 2353 2234 1838 2234 
L 1294 2234 
L 1294 2753 
L 1863 2753 
Q 2328 2753 2575 2939 
Q 2822 3125 2822 3475 
Q 2822 3834 2567 4026 
Q 2313 4219 1838 4219 
Q 1578 4219 1281 4162 
Q 984 4106 628 3988 
L 628 4550 
Q 988 4650 1302 4700 
Q 1616 4750 1894 4750 
Q 2613 4750 3031 4423 
Q 3450 4097 3450 3541 
Q 3450 3153 3228 2886 
Q 3006 2619 2597 2516 
z
" transform="scale(0.015625)"/>
       </defs>
       <use xlink:href="#DejaVuSans-33"/>
       <use xlink:href="#DejaVuSans-30" x="63.623047"/>
       <use xlink:href="#DejaVuSans-30" x="127.246094"/>
      </g>
     </g>
    </g>
    <g id="xtick_5">
     <g id="line2d_5">
      <g>
       <use xlink:href="#mc2d0b8d1b0" x="350.05638" y="295.440313" style="fill: #262626; stroke: #262626; stroke-width: 1.25"/>
      </g>
     </g>
     <g id="text_5">
      <!-- 400 -->
      <g style="fill: #262626" transform="translate(339.558255 313.298594)scale(0.11 -0.11)">
       <defs>
        <path id="DejaVuSans-34" d="M 2419 4116 
L 825 1625 
L 2419 1625 
L 2419 4116 
z
M 2253 4666 
L 3047 4666 
L 3047 1625 
L 3713 1625 
L 3713 1100 
L 3047 1100 
L 3047 0 
L 2419 0 
L 2419 1100 
L 313 1100 
L 313 1709 
L 2253 4666 
z
" transform="scale(0.015625)"/>
       </defs>
       <use xlink:href="#DejaVuSans-34"/>
       <use xlink:href="#DejaVuSans-30" x="63.623047"/>
       <use xlink:href="#DejaVuSans-30" x="127.246094"/>
      </g>
     </g>
    </g>
    <g id="xtick_6">
     <g id="line2d_6">
      <g>
       <use xlink:href="#mc2d0b8d1b0" x="420.611942" y="295.440313" style="fill: #262626; stroke: #262626; stroke-width: 1.25"/>
      </g>
     </g>
     <g id="text_6">
      <!-- 500 -->
      <g style="fill: #262626" transform="translate(410.113817 313.298594)scale(0.11 -0.11)">
       <defs>
        <path id="DejaVuSans-35" d="M 691 4666 
L 3169 4666 
L 3169 4134 
L 1269 4134 
L 1269 2991 
Q 1406 3038 1543 3061 
Q 1681 3084 1819 3084 
Q 2600 3084 3056 2656 
Q 3513 2228 3513 1497 
Q 3513 744 3044 326 
Q 2575 -91 1722 -91 
Q 1428 -91 1123 -41 
Q 819 9 494 109 
L 494 744 
Q 775 591 1075 516 
Q 1375 441 1709 441 
Q 2250 441 2565 725 
Q 2881 1009 2881 1497 
Q 2881 1984 2565 2268 
Q 2250 2553 1709 2553 
Q 1456 2553 1204 2497 
Q 953 2441 691 2322 
L 691 4666 
z
" transform="scale(0.015625)"/>
       </defs>
       <use xlink:href="#DejaVuSans-35"/>
       <use xlink:href="#DejaVuSans-30" x="63.623047"/>
       <use xlink:href="#DejaVuSans-30" x="127.246094"/>
      </g>
     </g>
    </g>
    <g id="text_7">
     <!-- scenario -->
     <g style="fill: #262626" transform="translate(222.702969 328.704375)scale(0.12 -0.12)">
      <defs>
       <path id="DejaVuSans-73" d="M 2834 3397 
L 2834 2853 
Q 2591 2978 2328 3040 
Q 2066 3103 1784 3103 
Q 1356 3103 1142 2972 
Q 928 2841 928 2578 
Q 928 2378 1081 2264 
Q 1234 2150 1697 2047 
L 1894 2003 
Q 2506 1872 2764 1633 
Q 3022 1394 3022 966 
Q 3022 478 2636 193 
Q 2250 -91 1575 -91 
Q 1294 -91 989 -36 
Q 684 19 347 128 
L 347 722 
Q 666 556 975 473 
Q 1284 391 1588 391 
Q 1994 391 2212 530 
Q 2431 669 2431 922 
Q 2431 1156 2273 1281 
Q 2116 1406 1581 1522 
L 1381 1569 
Q 847 1681 609 1914 
Q 372 2147 372 2553 
Q 372 3047 722 3315 
Q 1072 3584 1716 3584 
Q 2034 3584 2315 3537 
Q 2597 3491 2834 3397 
z
" transform="scale(0.015625)"/>
       <path id="DejaVuSans-63" d="M 3122 3366 
L 3122 2828 
Q 2878 2963 2633 3030 
Q 2388 3097 2138 3097 
Q 1578 3097 1268 2742 
Q 959 2388 959 1747 
Q 959 1106 1268 751 
Q 1578 397 2138 397 
Q 2388 397 2633 464 
Q 2878 531 3122 666 
L 3122 134 
Q 2881 22 2623 -34 
Q 2366 -91 2075 -91 
Q 1284 -91 818 406 
Q 353 903 353 1747 
Q 353 2603 823 3093 
Q 1294 3584 2113 3584 
Q 2378 3584 2631 3529 
Q 2884 3475 3122 3366 
z
" transform="scale(0.015625)"/>
       <path id="DejaVuSans-65" d="M 3597 1894 
L 3597 1613 
L 953 1613 
Q 991 1019 1311 708 
Q 1631 397 2203 397 
Q 2534 397 2845 478 
Q 3156 559 3463 722 
L 3463 178 
Q 3153 47 2828 -22 
Q 2503 -91 2169 -91 
Q 1331 -91 842 396 
Q 353 884 353 1716 
Q 353 2575 817 3079 
Q 1281 3584 2069 3584 
Q 2775 3584 3186 3129 
Q 3597 2675 3597 1894 
z
M 3022 2063 
Q 3016 2534 2758 2815 
Q 2500 3097 2075 3097 
Q 1594 3097 1305 2825 
Q 1016 2553 972 2059 
L 3022 2063 
z
" transform="scale(0.015625)"/>
       <path id="DejaVuSans-6e" d="M 3513 2113 
L 3513 0 
L 2938 0 
L 2938 2094 
Q 2938 2591 2744 2837 
Q 2550 3084 2163 3084 
Q 1697 3084 1428 2787 
Q 1159 2491 1159 1978 
L 1159 0 
L 581 0 
L 581 3500 
L 1159 3500 
L 1159 2956 
Q 1366 3272 1645 3428 
Q 1925 3584 2291 3584 
Q 2894 3584 3203 3211 
Q 3513 2838 3513 2113 
z
" transform="scale(0.015625)"/>
       <path id="DejaVuSans-61" d="M 2194 1759 
Q 1497 1759 1228 1600 
Q 959 1441 959 1056 
Q 959 750 1161 570 
Q 1363 391 1709 391 
Q 2188 391 2477 730 
Q 2766 1069 2766 1631 
L 2766 1759 
L 2194 1759 
z
M 3341 1997 
L 3341 0 
L 2766 0 
L 2766 531 
Q 2569 213 2275 61 
Q 1981 -91 1556 -91 
Q 1019 -91 701 211 
Q 384 513 384 1019 
Q 384 1609 779 1909 
Q 1175 2209 1959 2209 
L 2766 2209 
L 2766 2266 
Q 2766 2663 2505 2880 
Q 2244 3097 1772 3097 
Q 1472 3097 1187 3025 
Q 903 2953 641 2809 
L 641 3341 
Q 956 3463 1253 3523 
Q 1550 3584 1831 3584 
Q 2591 3584 2966 3190 
Q 3341 2797 3341 1997 
z
" transform="scale(0.015625)"/>
       <path id="DejaVuSans-72" d="M 2631 2963 
Q 2534 3019 2420 3045 
Q 2306 3072 2169 3072 
Q 1681 3072 1420 2755 
Q 1159 2438 1159 1844 
L 1159 0 
L 581 0 
L 581 3500 
L 1159 3500 
L 1159 2956 
Q 1341 3275 1631 3429 
Q 1922 3584 2338 3584 
Q 2397 3584 2469 3576 
Q 2541 3569 2628 3553 
L 2631 2963 
z
" transform="scale(0.015625)"/>
       <path id="DejaVuSans-69" d="M 603 3500 
L 1178 3500 
L 1178 0 
L 603 0 
L 603 3500 
z
M 603 4863 
L 1178 4863 
L 1178 4134 
L 603 4134 
L 603 4863 
z
" transform="scale(0.015625)"/>
       <path id="DejaVuSans-6f" d="M 1959 3097 
Q 1497 3097 1228 2736 
Q 959 2375 959 1747 
Q 959 1119 1226 758 
Q 1494 397 1959 397 
Q 2419 397 2687 759 
Q 2956 1122 2956 1747 
Q 2956 2369 2687 2733 
Q 2419 3097 1959 3097 
z
M 1959 3584 
Q 2709 3584 3137 3096 
Q 3566 2609 3566 1747 
Q 3566 888 3137 398 
Q 2709 -91 1959 -91 
Q 1206 -91 779 398 
Q 353 888 353 1747 
Q 353 2609 779 3096 
Q 1206 3584 1959 3584 
z
" transform="scale(0.015625)"/>
      </defs>
      <use xlink:href="#DejaVuSans-73"/>
      <use xlink:href="#DejaVuSans-63" x="52.099609"/>
      <use xlink:href="#DejaVuSans-65" x="107.080078"/>
      <use xlink:href="#DejaVuSans-6e" x="168.603516"/>
      <use xlink:href="#DejaVuSans-61" x="231.982422"/>
      <use xlink:href="#DejaVuSans-72" x="293.261719"/>
      <use xlink:href="#DejaVuSans-69" x="334.375"/>
      <use xlink:href="#DejaVuSans-6f" x="362.158203"/>
     </g>
    </g>
   </g>
   <g id="matplotlib.axis_2">
    <g id="ytick_1">
     <g id="line2d_7">
      <defs>
       <path id="m206d330102" d="M 0 0 
L -6 0 
" style="stroke: #262626; stroke-width: 1.25"/>
      </defs>
      <g>
       <use xlink:href="#m206d330102" x="49.807188" y="282.33848" style="fill: #262626; stroke: #262626; stroke-width: 1.25"/>
      </g>
     </g>
     <g id="text_8">
      <!-- 0.0 -->
      <g style="fill: #262626" transform="translate(22.81375 286.517621)scale(0.11 -0.11)">
       <defs>
        <path id="DejaVuSans-2e" d="M 684 794 
L 1344 794 
L 1344 0 
L 684 0 
L 684 794 
z
" transform="scale(0.015625)"/>
       </defs>
       <use xlink:href="#DejaVuSans-30"/>
       <use xlink:href="#DejaVuSans-2e" x="63.623047"/>
       <use xlink:href="#DejaVuSans-30" x="95.410156"/>
      </g>
     </g>
    </g>
    <g id="ytick_2">
     <g id="line2d_8">
      <g>
       <use xlink:href="#m206d330102" x="49.807188" y="235.431747" style="fill: #262626; stroke: #262626; stroke-width: 1.25"/>
      </g>
     </g>
     <g id="text_9">
      <!-- 0.1 -->
      <g style="fill: #262626" transform="translate(22.81375 239.610887)scale(0.11 -0.11)">
       <use xlink:href="#DejaVuSans-30"/>
       <use xlink:href="#DejaVuSans-2e" x="63.623047"/>
       <use xlink:href="#DejaVuSans-31" x="95.410156"/>
      </g>
     </g>
    </g>
    <g id="ytick_3">
     <g id="line2d_9">
      <g>
       <use xlink:href="#m206d330102" x="49.807188" y="188.525014" style="fill: #262626; stroke: #262626; stroke-width: 1.25"/>
      </g>
     </g>
     <g id="text_10">
      <!-- 0.2 -->
      <g style="fill: #262626" transform="translate(22.81375 192.704154)scale(0.11 -0.11)">
       <use xlink:href="#DejaVuSans-30"/>
       <use xlink:href="#DejaVuSans-2e" x="63.623047"/>
       <use xlink:href="#DejaVuSans-32" x="95.410156"/>
      </g>
     </g>
    </g>
    <g id="ytick_4">
     <g id="line2d_10">
      <g>
       <use xlink:href="#m206d330102" x="49.807188" y="141.61828" style="fill: #262626; stroke: #262626; stroke-width: 1.25"/>
      </g>
     </g>
     <g id="text_11">
      <!-- 0.3 -->
      <g style="fill: #262626" transform="translate(22.81375 145.797421)scale(0.11 -0.11)">
       <use xlink:href="#DejaVuSans-30"/>
       <use xlink:href="#DejaVuSans-2e" x="63.623047"/>
       <use xlink:href="#DejaVuSans-33" x="95.410156"/>
      </g>
     </g>
    </g>
    <g id="ytick_5">
     <g id="line2d_11">
      <g>
       <use xlink:href="#m206d330102" x="49.807188" y="94.711547" style="fill: #262626; stroke: #262626; stroke-width: 1.25"/>
      </g>
     </g>
     <g id="text_12">
      <!-- 0.4 -->
      <g style="fill: #262626" transform="translate(22.81375 98.890688)scale(0.11 -0.11)">
       <use xlink:href="#DejaVuSans-30"/>
       <use xlink:href="#DejaVuSans-2e" x="63.623047"/>
       <use xlink:href="#DejaVuSans-34" x="95.410156"/>
      </g>
     </g>
    </g>
    <g id="ytick_6">
     <g id="line2d_12">
      <g>
       <use xlink:href="#m206d330102" x="49.807188" y="47.804814" style="fill: #262626; stroke: #262626; stroke-width: 1.25"/>
      </g>
     </g>
     <g id="text_13">
      <!-- 0.5 -->
      <g style="fill: #262626" transform="translate(22.81375 51.983954)scale(0.11 -0.11)">
       <use xlink:href="#DejaVuSans-30"/>
       <use xlink:href="#DejaVuSans-2e" x="63.623047"/>
       <use xlink:href="#DejaVuSans-35" x="95.410156"/>
      </g>
     </g>
    </g>
    <g id="text_14">
     <!-- Allocation weight -->
     <g style="fill: #262626" transform="translate(16.318125 203.034531)rotate(-90)scale(0.12 -0.12)">
      <defs>
       <path id="DejaVuSans-41" d="M 2188 4044 
L 1331 1722 
L 3047 1722 
L 2188 4044 
z
M 1831 4666 
L 2547 4666 
L 4325 0 
L 3669 0 
L 3244 1197 
L 1141 1197 
L 716 0 
L 50 0 
L 1831 4666 
z
" transform="scale(0.015625)"/>
       <path id="DejaVuSans-6c" d="M 603 4863 
L 1178 4863 
L 1178 0 
L 603 0 
L 603 4863 
z
" transform="scale(0.015625)"/>
       <path id="DejaVuSans-74" d="M 1172 4494 
L 1172 3500 
L 2356 3500 
L 2356 3053 
L 1172 3053 
L 1172 1153 
Q 1172 725 1289 603 
Q 1406 481 1766 481 
L 2356 481 
L 2356 0 
L 1766 0 
Q 1100 0 847 248 
Q 594 497 594 1153 
L 594 3053 
L 172 3053 
L 172 3500 
L 594 3500 
L 594 4494 
L 1172 4494 
z
" transform="scale(0.015625)"/>
       <path id="DejaVuSans-20" transform="scale(0.015625)"/>
       <path id="DejaVuSans-77" d="M 269 3500 
L 844 3500 
L 1563 769 
L 2278 3500 
L 2956 3500 
L 3675 769 
L 4391 3500 
L 4966 3500 
L 4050 0 
L 3372 0 
L 2619 2869 
L 1863 0 
L 1184 0 
L 269 3500 
z
" transform="scale(0.015625)"/>
       <path id="DejaVuSans-67" d="M 2906 1791 
Q 2906 2416 2648 2759 
Q 2391 3103 1925 3103 
Q 1463 3103 1205 2759 
Q 947 2416 947 1791 
Q 947 1169 1205 825 
Q 1463 481 1925 481 
Q 2391 481 2648 825 
Q 2906 1169 2906 1791 
z
M 3481 434 
Q 3481 -459 3084 -895 
Q 2688 -1331 1869 -1331 
Q 1566 -1331 1297 -1286 
Q 1028 -1241 775 -1147 
L 775 -588 
Q 1028 -725 1275 -790 
Q 1522 -856 1778 -856 
Q 2344 -856 2625 -561 
Q 2906 -266 2906 331 
L 2906 616 
Q 2728 306 2450 153 
Q 2172 0 1784 0 
Q 1141 0 747 490 
Q 353 981 353 1791 
Q 353 2603 747 3093 
Q 1141 3584 1784 3584 
Q 2172 3584 2450 3431 
Q 2728 3278 2906 2969 
L 2906 3500 
L 3481 3500 
L 3481 434 
z
" transform="scale(0.015625)"/>
       <path id="DejaVuSans-68" d="M 3513 2113 
L 3513 0 
L 2938 0 
L 2938 2094 
Q 2938 2591 2744 2837 
Q 2550 3084 2163 3084 
Q 1697 3084 1428 2787 
Q 1159 2491 1159 1978 
L 1159 0 
L 581 0 
L 581 4863 
L 1159 4863 
L 1159 2956 
Q 1366 3272 1645 3428 
Q 1925 3584 2291 3584 
Q 2894 3584 3203 3211 
Q 3513 2838 3513 2113 
z
" transform="scale(0.015625)"/>
      </defs>
      <use xlink:href="#DejaVuSans-41"/>
      <use xlink:href="#DejaVuSans-6c" x="68.408203"/>
      <use xlink:href="#DejaVuSans-6c" x="96.191406"/>
      <use xlink:href="#DejaVuSans-6f" x="123.974609"/>
      <use xlink:href="#DejaVuSans-63" x="185.15625"/>
      <use xlink:href="#DejaVuSans-61" x="240.136719"/>
      <use xlink:href="#DejaVuSans-74" x="301.416016"/>
      <use xlink:href="#DejaVuSans-69" x="340.625"/>
      <use xlink:href="#DejaVuSans-6f" x="368.408203"/>
      <use xlink:href="#DejaVuSans-6e" x="429.589844"/>
      <use xlink:href="#DejaVuSans-20" x="492.96875"/>
      <use xlink:href="#DejaVuSans-77" x="524.755859"/>
      <use xlink:href="#DejaVuSans-65" x="606.542969"/>
      <use xlink:href="#DejaVuSans-69" x="668.066406"/>
      <use xlink:href="#DejaVuSans-67" x="695.849609"/>
      <use xlink:href="#DejaVuSans-68" x="759.326172"/>
      <use xlink:href="#DejaVuSans-74" x="822.705078"/>
     </g>
    </g>
   </g>
   <g id="line2d_13">
    <path d="M 67.834134 282.33848 
L 69.9508 282.33848 
L 70.656356 246.148059 
L 71.361912 252.179796 
L 72.067467 222.094152 
L 72.773023 229.624693 
L 73.478578 235.481781 
L 74.184134 240.167451 
L 75.595245 172.973868 
L 77.006357 188.597384 
L 77.711912 176.551601 
L 78.417468 178.286446 
L 79.123023 157.406535 
L 80.534135 170.054623 
L 81.23969 170.75088 
L 81.945246 176.064575 
L 82.650801 169.99259 
L 83.356357 174.877194 
L 84.061913 173.596359 
L 84.767468 177.946044 
L 85.473024 177.584379 
L 86.17858 181.46416 
L 86.884135 183.264758 
L 87.589691 184.675426 
L 89.000802 190.976269 
L 89.706358 192.634483 
L 91.117469 197.911189 
L 91.823025 200.323397 
L 92.52858 198.291126 
L 93.939691 202.714671 
L 94.645247 201.637731 
L 96.056358 205.238912 
L 96.761914 207.074616 
L 97.467469 202.260178 
L 98.173025 202.852036 
L 98.878581 204.618401 
L 99.584136 202.611309 
L 100.289692 201.372967 
L 100.995248 203.059749 
L 101.700803 204.255522 
L 102.406359 198.395222 
L 103.111914 200.041168 
L 103.81747 192.798758 
L 104.523026 194.488187 
L 105.228581 195.007785 
L 106.639692 198.126738 
L 107.345248 198.415586 
L 108.050804 198.539763 
L 110.167471 202.661011 
L 110.873026 203.946132 
L 111.578582 200.448109 
L 112.284137 199.560336 
L 112.989693 200.833846 
L 113.695249 200.645358 
L 114.400804 198.833783 
L 115.811916 201.254209 
L 116.517471 196.166925 
L 117.928582 198.560579 
L 118.634138 196.178843 
L 119.339694 197.181651 
L 120.045249 192.062844 
L 120.750805 192.603677 
L 121.45636 191.10665 
L 122.161916 190.759338 
L 122.867472 190.755933 
L 125.689694 195.135416 
L 126.39525 190.589412 
L 127.100805 189.518277 
L 128.511917 191.652075 
L 129.217472 190.2297 
L 129.923028 191.073314 
L 130.628583 187.432816 
L 131.334139 187.522137 
L 132.74525 189.561198 
L 133.450806 187.189419 
L 134.156362 185.887769 
L 134.861917 186.892464 
L 135.567473 187.307953 
L 136.273028 188.277652 
L 136.978584 188.783901 
L 137.68414 189.058296 
L 139.095251 190.887319 
L 139.800806 187.221143 
L 140.506362 186.768401 
L 141.917473 188.571611 
L 142.623029 189.097188 
L 144.03414 190.808037 
L 144.739696 187.697366 
L 145.445251 188.213992 
L 147.561918 190.690953 
L 148.267474 190.853627 
L 151.795252 194.665496 
L 152.500808 194.380641 
L 153.206363 194.401197 
L 153.911919 191.607396 
L 154.617474 191.260168 
L 155.32303 191.601307 
L 156.028586 190.890192 
L 156.734141 188.733582 
L 157.439697 187.116236 
L 159.556364 189.296898 
L 160.261919 189.681265 
L 162.378586 191.740314 
L 163.084142 192.239303 
L 163.789697 192.283784 
L 164.495253 192.064874 
L 165.906364 193.311109 
L 166.61192 193.027761 
L 168.023031 190.054698 
L 169.434142 191.327578 
L 170.139698 191.253957 
L 170.845254 191.631228 
L 171.550809 191.265096 
L 172.256365 191.876326 
L 172.961921 190.360474 
L 175.078587 192.163964 
L 175.784143 191.745618 
L 177.90081 193.476691 
L 178.606365 193.041687 
L 179.311921 193.603302 
L 180.017477 193.748987 
L 181.428588 194.842685 
L 182.134144 192.501755 
L 184.25081 194.12531 
L 184.956366 193.127407 
L 186.367477 194.183159 
L 187.073033 193.088101 
L 187.778588 191.049474 
L 189.1897 192.104838 
L 189.895255 190.513266 
L 190.600811 190.175836 
L 191.306367 190.699487 
L 192.011922 190.264591 
L 192.717478 190.700195 
L 193.423033 190.660921 
L 194.128589 191.170241 
L 194.834145 191.079254 
L 195.5397 191.580678 
L 196.245256 191.875154 
L 198.361923 191.432878 
L 199.067478 191.919004 
L 199.773034 192.1781 
L 202.595256 193.988402 
L 203.300812 193.225238 
L 204.006368 191.266712 
L 204.711923 191.218567 
L 205.417479 191.042421 
L 207.534146 192.335255 
L 208.239701 191.363528 
L 208.945257 191.816139 
L 210.356368 191.860614 
L 211.767479 192.419828 
L 212.473035 192.435509 
L 213.178591 192.224754 
L 213.884146 192.657993 
L 214.589702 191.332617 
L 215.295258 191.765978 
L 216.000813 192.068317 
L 216.706369 192.49412 
L 217.411924 192.668706 
L 218.11748 192.454724 
L 218.823036 192.657671 
L 219.528591 193.07286 
L 220.234147 191.875062 
L 222.350814 193.108654 
L 223.056369 192.399106 
L 223.761925 192.268995 
L 225.173036 192.472634 
L 225.878592 191.787012 
L 226.584147 192.187682 
L 227.289703 192.321814 
L 227.995259 191.351967 
L 228.700814 191.749288 
L 229.40637 191.290063 
L 230.111926 191.253056 
L 230.817481 191.560526 
L 231.523037 190.336036 
L 232.934148 191.119036 
L 233.639704 190.302779 
L 234.345259 190.691115 
L 235.050815 190.667528 
L 235.75637 189.885976 
L 236.461926 189.869771 
L 237.167482 189.413088 
L 238.578593 190.177906 
L 239.284149 188.902382 
L 240.69526 187.897855 
L 241.400815 188.280206 
L 242.106371 187.516027 
L 243.517482 187.673525 
L 244.928593 188.253792 
L 246.339705 188.994616 
L 247.04526 188.960897 
L 250.573038 190.756619 
L 251.278594 190.354322 
L 253.395261 191.399597 
L 254.100816 191.316265 
L 254.806372 191.658454 
L 255.511928 191.567943 
L 256.217483 191.906639 
L 256.923039 191.845295 
L 257.628595 192.180455 
L 258.33415 192.318193 
L 259.039706 191.347937 
L 259.745261 191.503299 
L 260.450817 191.2322 
L 261.156373 190.467259 
L 261.861928 190.600059 
L 262.567484 190.931244 
L 263.27304 191.115581 
L 265.389706 192.089491 
L 266.095262 190.746164 
L 266.800818 190.196816 
L 267.506373 190.521258 
L 268.917484 189.310767 
L 270.328596 189.956793 
L 271.034151 188.812833 
L 271.739707 188.02557 
L 272.445263 188.349669 
L 273.150818 187.617208 
L 273.856374 186.529636 
L 274.561929 186.855517 
L 275.267485 186.971335 
L 276.678596 185.775695 
L 277.384152 186.099731 
L 278.089707 185.167543 
L 278.795263 185.491446 
L 279.500819 185.108505 
L 280.91193 185.667883 
L 283.028597 186.48569 
L 284.439708 186.301497 
L 285.145264 186.612297 
L 285.850819 185.476545 
L 286.556375 185.787998 
L 287.261931 185.937807 
L 287.967486 186.245796 
L 288.673042 186.090225 
L 289.378597 186.206049 
L 291.495264 187.018909 
L 294.317487 187.841807 
L 295.023042 187.832493 
L 295.728598 187.97593 
L 297.845265 188.841641 
L 298.55082 188.839088 
L 299.256376 187.753619 
L 299.961932 188.04024 
L 300.667487 187.497232 
L 302.078598 188.011589 
L 302.784154 187.890158 
L 303.48971 188.172093 
L 304.195265 187.088104 
L 304.900821 187.086536 
L 305.606377 186.013477 
L 306.311932 185.710803 
L 307.723043 186.277534 
L 308.428599 185.201164 
L 309.134155 185.484363 
L 309.83971 184.857616 
L 311.250822 185.421089 
L 311.956377 185.151189 
L 312.661933 184.407222 
L 314.7786 185.244242 
L 316.189711 184.456831 
L 318.306378 185.236812 
L 319.011933 185.233107 
L 322.539711 186.532851 
L 323.950823 186.063763 
L 325.361934 186.260636 
L 327.478601 186.996731 
L 328.889712 186.472319 
L 330.300823 186.986347 
L 331.006379 187.001811 
L 331.711934 186.873359 
L 332.41749 186.248852 
L 333.123046 186.503731 
L 334.534157 186.659982 
L 335.239712 186.429924 
L 335.945268 186.681653 
L 337.356379 186.543247 
L 338.061935 186.031237 
L 339.473046 186.481119 
L 340.178602 185.869608 
L 342.295269 186.565659 
L 343.000824 186.377885 
L 343.70638 185.426082 
L 345.823047 186.064215 
L 346.528602 185.225243 
L 347.234158 185.469861 
L 348.645269 185.739365 
L 349.350825 185.980863 
L 350.05638 185.803043 
L 350.761936 186.043181 
L 351.467492 185.560589 
L 352.173047 184.859043 
L 352.878603 184.529475 
L 354.99527 185.098109 
L 356.406381 185.175163 
L 357.111937 185.411571 
L 357.817492 185.372152 
L 359.228603 185.840589 
L 359.934159 185.189481 
L 360.639715 185.211493 
L 361.34527 184.424578 
L 362.756382 184.888141 
L 363.461937 184.599679 
L 364.167493 184.831838 
L 365.578604 184.827321 
L 366.28416 185.057301 
L 366.989715 185.163545 
L 367.695271 185.391655 
L 368.400827 185.142785 
L 369.106382 185.142063 
L 369.811938 185.368628 
L 371.928605 185.174135 
L 372.63416 185.398534 
L 373.339716 185.215938 
L 374.045271 185.429417 
L 374.750827 184.807773 
L 375.456383 185.030956 
L 376.161938 184.940407 
L 376.867494 185.162271 
L 377.57305 185.701345 
L 378.278605 185.477916 
L 380.395272 185.700034 
L 381.806383 186.133391 
L 382.511939 185.547496 
L 383.217494 185.763547 
L 383.92305 185.851654 
L 384.628606 185.347239 
L 386.039717 185.776403 
L 386.745273 185.416153 
L 387.450828 185.463864 
L 388.156384 185.676775 
L 389.567495 185.69665 
L 390.273051 185.907659 
L 390.978606 185.326209 
L 391.684162 184.96518 
L 392.389717 185.176402 
L 393.095273 185.251837 
L 394.506384 185.670314 
L 395.21194 185.393086 
L 395.917496 185.463655 
L 397.328607 185.868328 
L 398.034162 185.863942 
L 398.739718 185.488112 
L 400.856385 186.053187 
L 401.561941 185.744909 
L 402.267496 185.132017 
L 402.973052 184.904878 
L 403.678607 184.890204 
L 404.384163 184.989482 
L 405.089719 184.603924 
L 405.795274 184.581809 
L 406.50083 184.430992 
L 407.206385 184.634119 
L 407.911941 184.410302 
L 408.617497 183.912415 
L 409.323052 183.58291 
L 410.028608 183.786111 
L 410.734164 183.084584 
L 411.439719 182.802411 
L 414.261942 183.557038 
L 414.967497 183.562262 
L 417.78972 184.357242 
L 419.906387 184.567305 
L 422.023053 185.150433 
L 422.728609 185.094754 
L 423.434165 185.287316 
L 424.13972 185.054991 
L 424.845276 185.246871 
L 426.256387 185.131519 
L 426.961943 185.322121 
L 427.667498 185.367245 
L 428.373054 185.556642 
L 428.373054 185.556642 
" clip-path="url(#p869dde6da3)" style="fill: none; stroke: #e24a33; stroke-width: 1.5; stroke-linecap: round"/>
   </g>
   <g id="line2d_14">
    <path d="M 67.834134 29.262582 
L 68.539689 88.245454 
L 69.245245 20.301832 
L 69.9508 85.810994 
L 70.656356 110.077255 
L 71.361912 129.732114 
L 72.067467 127.456467 
L 73.478578 70.632236 
L 74.184134 83.177181 
L 74.88969 101.282754 
L 75.595245 116.370731 
L 76.300801 113.955215 
L 77.006357 92.477781 
L 77.711912 95.896724 
L 79.123023 117.588237 
L 80.534135 134.52697 
L 81.23969 134.643484 
L 81.945246 125.348791 
L 82.650801 127.150538 
L 83.356357 115.280557 
L 84.061913 117.915135 
L 84.767468 117.688529 
L 85.473024 122.078378 
L 86.17858 110.641074 
L 86.884135 111.03308 
L 87.589691 114.72293 
L 88.295246 120.310115 
L 89.000802 110.405632 
L 89.706358 115.778534 
L 90.411913 114.21096 
L 91.117469 114.711198 
L 91.823025 113.9157 
L 92.52858 118.59411 
L 93.234136 122.012026 
L 96.056358 137.448729 
L 96.761914 131.161541 
L 97.467469 132.23977 
L 98.173025 133.959157 
L 98.878581 130.403089 
L 99.584136 128.23273 
L 100.289692 130.655079 
L 100.995248 133.81515 
L 101.700803 127.695596 
L 102.406359 129.474596 
L 103.111914 130.758084 
L 103.81747 133.477617 
L 104.523026 135.254453 
L 105.228581 137.965028 
L 105.934137 140.028824 
L 106.639692 140.875311 
L 107.345248 142.725937 
L 109.461915 149.706565 
L 110.167471 151.880858 
L 110.873026 146.419411 
L 111.578582 148.398165 
L 112.284137 149.938509 
L 112.989693 146.134894 
L 113.695249 146.998554 
L 114.400804 147.578096 
L 115.811916 151.347553 
L 116.517471 152.763521 
L 117.928582 156.362826 
L 118.634138 156.247012 
L 119.339694 152.13122 
L 120.750805 155.557727 
L 121.45636 154.315689 
L 122.161916 154.779047 
L 123.573027 157.457277 
L 124.278583 153.450822 
L 127.100805 159.516124 
L 127.806361 155.56267 
L 128.511917 154.557206 
L 129.217472 155.891786 
L 129.923028 156.536203 
L 130.628583 157.934006 
L 131.334139 158.1978 
L 132.039695 159.547155 
L 132.74525 160.633614 
L 134.861917 164.436891 
L 135.567473 162.09394 
L 136.273028 158.534524 
L 136.978584 159.785069 
L 137.68414 160.537126 
L 138.389695 161.74308 
L 139.095251 159.599103 
L 139.800806 160.790747 
L 140.506362 161.318612 
L 141.211918 162.471182 
L 141.917473 159.176842 
L 142.623029 160.327886 
L 143.328585 157.221935 
L 144.739696 159.396231 
L 145.445251 159.936163 
L 146.150807 157.916276 
L 146.856363 157.47973 
L 147.561918 158.026667 
L 148.97303 160.001797 
L 150.384141 162.0753 
L 151.089696 159.241771 
L 151.795252 160.267577 
L 152.500808 160.325616 
L 153.206363 161.325721 
L 153.911919 162.004747 
L 155.32303 163.784451 
L 156.734141 164.482026 
L 158.850808 167.20179 
L 159.556364 167.61657 
L 160.261919 168.180391 
L 160.967475 167.190315 
L 161.673031 167.108309 
L 162.378586 164.998333 
L 163.084142 165.861129 
L 163.789697 165.511098 
L 167.317476 169.53991 
L 168.023031 169.674575 
L 168.728587 170.259825 
L 169.434142 170.296669 
L 170.139698 171.025686 
L 170.845254 169.305059 
L 172.256365 170.820964 
L 172.961921 170.556232 
L 173.667476 171.154674 
L 174.373032 170.837626 
L 175.078587 170.379006 
L 175.784143 170.56406 
L 178.606365 173.393792 
L 179.311921 173.225807 
L 180.017477 173.907761 
L 181.428588 173.520534 
L 182.134144 174.188129 
L 182.839699 171.987415 
L 183.545255 172.65621 
L 184.25081 170.615853 
L 184.956366 171.111914 
L 185.661922 169.328265 
L 187.778588 171.310901 
L 188.484144 169.831262 
L 189.1897 170.481593 
L 189.895255 170.791573 
L 190.600811 171.310698 
L 192.011922 171.79158 
L 193.423033 173.016128 
L 194.128589 172.837317 
L 196.245256 174.632418 
L 196.950811 174.994741 
L 197.656367 175.574977 
L 198.361923 175.45705 
L 199.067478 176.028608 
L 199.773034 175.432471 
L 201.889701 177.0058 
L 202.595256 176.242852 
L 203.300812 176.192213 
L 204.711923 177.231989 
L 206.123035 178.173531 
L 207.534146 175.168262 
L 208.239701 175.568436 
L 208.945257 174.047379 
L 209.650813 174.583473 
L 210.356368 174.414244 
L 211.061924 174.943284 
L 211.767479 174.664806 
L 213.178591 175.701528 
L 213.884146 174.357421 
L 216.706369 176.290366 
L 218.823036 177.770107 
L 219.528591 176.444336 
L 220.234147 176.921779 
L 221.645258 175.075611 
L 223.056369 176.046316 
L 223.761925 175.836066 
L 226.584147 177.708985 
L 227.995259 178.154429 
L 228.700814 178.609381 
L 229.40637 177.900353 
L 232.228592 179.412499 
L 235.050815 181.142347 
L 235.75637 180.932344 
L 236.461926 181.230039 
L 237.873037 182.065646 
L 238.578593 180.695836 
L 239.284149 181.112404 
L 239.989704 181.358143 
L 240.69526 181.133084 
L 241.400815 181.4443 
L 242.106371 181.567251 
L 242.811927 181.404006 
L 247.04526 183.702689 
L 247.750816 184.087985 
L 248.456372 183.979915 
L 249.161927 184.36115 
L 249.867483 184.001919 
L 250.573038 184.380136 
L 251.278594 184.216765 
L 251.98415 184.369256 
L 252.689705 183.846433 
L 253.395261 184.195202 
L 254.100816 183.98361 
L 254.806372 182.975594 
L 255.511928 183.34774 
L 256.217483 182.247265 
L 257.628595 182.988681 
L 258.33415 182.75912 
L 260.450817 183.849405 
L 261.156373 183.598084 
L 263.978595 184.929369 
L 264.684151 185.142535 
L 266.095262 185.831868 
L 266.800818 185.517894 
L 268.211929 186.126434 
L 268.917484 186.363712 
L 269.62304 186.35686 
L 270.328596 185.278188 
L 271.034151 185.454586 
L 271.739707 185.788669 
L 272.445263 185.542503 
L 276.678596 187.485927 
L 277.384152 186.302248 
L 278.089707 186.62344 
L 278.795263 185.378932 
L 279.500819 185.651797 
L 280.206374 185.41898 
L 281.617486 186.056608 
L 282.323041 185.732863 
L 283.028597 186.048568 
L 283.734152 185.29728 
L 284.439708 185.612349 
L 285.145264 185.301003 
L 285.850819 185.614027 
L 287.261931 183.861071 
L 287.967486 184.175695 
L 288.673042 183.857405 
L 290.084153 182.031504 
L 290.789709 182.347929 
L 291.495264 181.665907 
L 292.20082 181.622004 
L 293.611931 180.371951 
L 294.317487 180.119545 
L 295.728598 180.710583 
L 296.434154 179.634845 
L 302.078598 182.057843 
L 302.784154 182.34529 
L 303.48971 182.402453 
L 306.311932 183.494993 
L 307.017488 183.508821 
L 308.428599 184.086772 
L 309.134155 184.210647 
L 310.545266 184.779504 
L 311.250822 184.923634 
L 311.956377 184.748697 
L 313.367488 185.219446 
L 314.7786 185.234286 
L 316.895266 185.96967 
L 317.600822 185.110296 
L 318.306378 184.880953 
L 319.717489 185.075351 
L 321.1286 185.546905 
L 324.656378 186.695689 
L 325.361934 186.225597 
L 326.067489 186.487485 
L 326.773045 186.56342 
L 328.184156 187.081123 
L 328.889712 186.948151 
L 329.595268 187.204576 
L 330.300823 187.086951 
L 331.711934 187.333683 
L 332.41749 187.586355 
L 333.123046 186.824004 
L 333.828601 187.010385 
L 334.534157 186.345212 
L 335.239712 186.206352 
L 336.650824 186.696081 
L 337.356379 186.697292 
L 338.061935 186.946358 
L 338.767491 186.960193 
L 339.473046 187.207287 
L 340.178602 187.100249 
L 342.295269 184.476373 
L 343.70638 184.912034 
L 344.411936 184.126594 
L 348.645269 185.374938 
L 350.05638 185.758803 
L 350.761936 184.942273 
L 352.173047 185.424432 
L 352.878603 185.099119 
L 353.584159 185.338625 
L 354.99527 183.998307 
L 356.406381 184.242692 
L 357.817492 184.067667 
L 358.523048 183.169855 
L 361.34527 184.087018 
L 362.050826 184.005808 
L 363.461937 184.474059 
L 364.167493 184.389578 
L 364.873048 184.075543 
L 366.989715 184.43223 
L 367.695271 184.169503 
L 369.106382 184.584979 
L 369.811938 183.939536 
L 370.517493 183.968821 
L 371.223049 184.197057 
L 371.928605 184.135499 
L 372.63416 183.960523 
L 373.339716 183.92797 
L 376.867494 185.002093 
L 377.57305 184.056209 
L 378.278605 184.040198 
L 378.984161 183.35587 
L 379.689716 182.951244 
L 380.395272 182.85681 
L 381.100828 183.054929 
L 381.806383 182.951915 
L 386.745273 184.398329 
L 388.156384 184.779712 
L 388.861939 184.772588 
L 389.567495 184.248495 
L 391.684162 184.841581 
L 392.389717 184.63962 
L 393.095273 184.120888 
L 393.800829 183.419454 
L 395.917496 184.056271 
L 396.623051 183.716832 
L 397.328607 183.711611 
L 398.034162 183.567592 
L 398.739718 183.777743 
L 399.445274 183.369356 
L 400.856385 183.78783 
L 401.561941 183.604507 
L 402.267496 183.812368 
L 402.973052 183.743276 
L 405.089719 184.309773 
L 405.795274 184.227438 
L 406.50083 184.431411 
L 407.206385 183.661369 
L 407.911941 183.320619 
L 409.323052 183.72894 
L 410.028608 183.80194 
L 410.734164 184.004274 
L 411.439719 183.787606 
L 412.145275 183.98167 
L 412.85083 183.901216 
L 414.261942 184.301367 
L 415.673053 184.271399 
L 416.378608 184.469514 
L 417.084164 183.8967 
L 417.78972 183.626356 
L 418.495275 183.824573 
L 419.200831 183.617949 
L 420.611942 183.817047 
L 422.023053 182.479286 
L 422.728609 182.677419 
L 423.434165 182.677369 
L 424.845276 182.986892 
L 425.550832 182.61736 
L 426.256387 182.813276 
L 426.961943 182.088683 
L 427.667498 182.284867 
L 428.373054 182.292886 
L 428.373054 182.292886 
" clip-path="url(#p869dde6da3)" style="fill: none; stroke: #348abd; stroke-width: 1.5; stroke-linecap: round"/>
   </g>
   <g id="line2d_15">
    <path d="M 67.834134 66.347045 
L 68.539689 174.342763 
L 69.245245 210.341335 
L 69.9508 225.121647 
L 70.656356 193.982143 
L 72.067467 200.770351 
L 72.773023 198.575367 
L 74.88969 219.799438 
L 75.595245 225.011025 
L 76.300801 211.058647 
L 77.006357 216.150064 
L 77.711912 216.825097 
L 79.123023 223.894622 
L 79.828579 223.243553 
L 80.534135 226.353813 
L 81.23969 226.992522 
L 82.650801 232.023973 
L 83.356357 232.434611 
L 84.061913 231.481809 
L 85.473024 212.173224 
L 86.17858 214.771937 
L 86.884135 214.790439 
L 88.295246 216.700325 
L 89.000802 218.817685 
L 89.706358 216.246307 
L 91.117469 220.054892 
L 91.823025 214.899866 
L 92.52858 214.929335 
L 93.234136 216.751204 
L 93.939691 218.255612 
L 94.645247 215.239841 
L 95.350803 209.899122 
L 96.056358 200.225269 
L 96.761914 200.74902 
L 97.467469 200.740181 
L 98.173025 196.042137 
L 99.584136 199.794152 
L 100.289692 199.023439 
L 102.406359 203.909202 
L 103.111914 197.963476 
L 103.81747 199.586072 
L 104.523026 199.691914 
L 105.228581 201.222406 
L 105.934137 200.250332 
L 106.639692 195.034747 
L 108.050804 197.915337 
L 108.756359 198.648043 
L 109.461915 200.042884 
L 110.167471 193.702363 
L 110.873026 195.131978 
L 112.284137 195.74286 
L 112.989693 195.699218 
L 113.695249 196.354174 
L 116.517471 201.267563 
L 117.223027 201.552995 
L 117.928582 199.531809 
L 118.634138 199.611516 
L 120.045249 201.817569 
L 120.750805 201.676736 
L 122.161916 203.668071 
L 122.867472 203.840359 
L 123.573027 204.821585 
L 124.984139 206.148216 
L 125.689694 206.052025 
L 126.39525 206.960197 
L 127.100805 204.479097 
L 129.923028 207.71245 
L 130.628583 207.984324 
L 131.334139 206.521581 
L 132.039695 202.247119 
L 132.74525 199.59702 
L 133.450806 200.062273 
L 134.156362 200.201038 
L 134.861917 200.457012 
L 135.567473 200.592327 
L 136.978584 202.243764 
L 137.68414 202.790899 
L 138.389695 203.578499 
L 139.095251 203.392379 
L 139.800806 204.158846 
L 140.506362 203.954938 
L 141.917473 205.316385 
L 143.328585 206.635182 
L 144.03414 205.486445 
L 145.445251 206.871167 
L 146.150807 206.469645 
L 146.856363 204.52764 
L 147.561918 205.210191 
L 148.267474 204.231386 
L 148.97303 204.904723 
L 149.678585 205.322635 
L 150.384141 202.000165 
L 151.089696 202.57768 
L 151.795252 201.683056 
L 152.500808 202.34963 
L 153.206363 199.860871 
L 153.911919 200.531421 
L 154.617474 201.004323 
L 155.32303 201.654996 
L 156.028586 200.616341 
L 156.734141 201.259822 
L 157.439697 200.577296 
L 158.145253 198.052535 
L 159.556364 199.339343 
L 160.261919 199.773142 
L 160.967475 199.878735 
L 161.673031 199.006638 
L 162.378586 199.112871 
L 163.084142 197.579876 
L 163.789697 198.054442 
L 164.495253 198.144701 
L 165.200809 198.735293 
L 165.906364 196.073078 
L 166.61192 196.684889 
L 167.317476 196.134772 
L 168.728587 196.752292 
L 169.434142 196.084503 
L 170.139698 196.324832 
L 170.845254 196.694826 
L 171.550809 195.779774 
L 172.961921 196.862122 
L 173.667476 196.956017 
L 175.784143 198.595859 
L 177.195254 198.427747 
L 179.311921 198.729736 
L 180.017477 198.677478 
L 181.428588 199.616603 
L 183.545255 201.120637 
L 188.484144 203.717286 
L 189.895255 204.037906 
L 191.306367 204.927685 
L 192.011922 204.989807 
L 193.423033 205.854038 
L 194.128589 205.320308 
L 194.834145 205.515488 
L 195.5397 205.021751 
L 196.245256 204.260531 
L 196.950811 204.684868 
L 197.656367 204.53418 
L 198.361923 204.510853 
L 199.067478 202.418663 
L 200.47859 203.152667 
L 201.184145 203.010948 
L 201.889701 201.84326 
L 202.595256 201.131003 
L 203.300812 200.942684 
L 204.006368 201.36225 
L 204.711923 200.497031 
L 206.123035 201.266168 
L 207.534146 201.502386 
L 208.945257 202.306725 
L 209.650813 202.335772 
L 210.356368 202.008966 
L 211.061924 202.000674 
L 211.767479 202.392566 
L 212.473035 202.002821 
L 213.178591 200.76996 
L 213.884146 200.76377 
L 214.589702 201.154079 
L 215.295258 201.379491 
L 216.000813 201.763183 
L 216.706369 201.560196 
L 217.411924 201.939436 
L 218.11748 201.171222 
L 218.823036 199.582152 
L 219.528591 199.603559 
L 220.234147 199.442956 
L 220.939702 199.413529 
L 222.350814 198.834858 
L 223.056369 198.203528 
L 223.761925 198.421637 
L 224.467481 198.091652 
L 225.173036 198.467754 
L 225.878592 198.010389 
L 226.584147 198.383522 
L 227.289703 197.233073 
L 227.995259 197.383535 
L 228.700814 195.706189 
L 230.817481 196.745439 
L 231.523037 196.841094 
L 232.228592 197.206468 
L 232.934148 197.28789 
L 233.639704 197.236011 
L 234.345259 196.728586 
L 235.050815 196.762289 
L 235.75637 197.120349 
L 236.461926 197.214955 
L 237.167482 196.462197 
L 239.989704 197.144767 
L 242.106371 198.092436 
L 242.811927 198.125277 
L 243.517482 198.46213 
L 244.223038 197.371455 
L 244.928593 197.199576 
L 245.634149 197.146471 
L 247.04526 197.814644 
L 247.750816 197.968237 
L 248.456372 198.296526 
L 249.161927 198.49344 
L 249.867483 197.743617 
L 250.573038 198.038673 
L 251.278594 197.856362 
L 252.689705 198.498812 
L 253.395261 198.504492 
L 254.100816 198.773568 
L 254.806372 198.702082 
L 255.511928 198.990925 
L 256.217483 199.021515 
L 256.923039 198.698561 
L 257.628595 197.952676 
L 259.039706 198.313035 
L 259.745261 198.068249 
L 260.450817 197.959858 
L 261.861928 198.52784 
L 263.27304 198.041091 
L 263.978595 197.400574 
L 264.684151 197.510601 
L 266.800818 198.409837 
L 267.506373 197.637786 
L 268.917484 198.188079 
L 269.62304 197.69108 
L 271.034151 198.185593 
L 271.739707 198.417288 
L 272.445263 198.389596 
L 274.561929 199.246218 
L 275.267485 199.124647 
L 276.678596 199.230931 
L 277.384152 199.460594 
L 278.089707 199.423048 
L 280.206374 200.246711 
L 280.91193 199.205088 
L 282.323041 197.900962 
L 283.734152 198.208336 
L 284.439708 198.481485 
L 285.145264 198.358972 
L 285.850819 198.561299 
L 286.556375 198.564261 
L 290.084153 199.889803 
L 290.789709 199.731535 
L 292.20082 200.135121 
L 293.611931 200.544389 
L 294.317487 200.525795 
L 296.434154 200.883307 
L 297.139709 199.912688 
L 297.845265 199.412798 
L 299.256376 199.831504 
L 299.961932 199.729497 
L 302.784154 200.162476 
L 304.195265 200.619831 
L 304.900821 200.584345 
L 306.311932 201.033863 
L 307.017488 200.231141 
L 308.428599 200.711301 
L 309.134155 200.458428 
L 309.83971 200.489858 
L 310.545266 200.7271 
L 311.250822 200.730349 
L 312.661933 201.199361 
L 313.367488 201.074688 
L 316.189711 201.779833 
L 317.600822 202.185985 
L 318.306378 202.093893 
L 319.717489 202.459497 
L 320.423045 202.191349 
L 321.1286 202.41398 
L 321.834156 202.29813 
L 323.245267 202.476381 
L 324.656378 202.569391 
L 326.067489 202.858497 
L 326.773045 202.717359 
L 327.478601 202.933135 
L 328.184156 202.456187 
L 328.889712 202.524764 
L 329.595268 202.739317 
L 331.006379 202.711867 
L 332.41749 203.035836 
L 333.123046 203.015661 
L 335.239712 203.519171 
L 338.061935 204.244388 
L 342.295269 205.361837 
L 343.000824 204.855563 
L 345.117491 205.378377 
L 345.823047 204.3857 
L 346.528602 204.554904 
L 347.234158 203.569303 
L 347.939714 203.401201 
L 349.350825 203.718433 
L 351.467492 203.985217 
L 352.173047 203.970158 
L 352.878603 204.163661 
L 353.584159 203.876109 
L 354.289714 203.830692 
L 356.406381 204.156877 
L 357.111937 203.985507 
L 358.523048 204.36494 
L 359.934159 204.354261 
L 360.639715 204.248545 
L 361.34527 204.364877 
L 362.050826 204.176152 
L 362.756382 204.335975 
L 363.461937 204.323358 
L 366.28416 205.031803 
L 369.811938 205.215304 
L 370.517493 205.38745 
L 371.223049 205.432616 
L 372.63416 205.727587 
L 373.339716 205.488499 
L 374.750827 205.531824 
L 375.456383 205.684742 
L 376.161938 205.116493 
L 376.867494 205.292397 
L 377.57305 204.451086 
L 379.689716 204.758015 
L 380.395272 204.732463 
L 381.100828 204.886356 
L 381.806383 204.488406 
L 382.511939 204.548721 
L 383.217494 204.03529 
L 383.92305 203.291974 
L 384.628606 203.444148 
L 386.039717 203.403435 
L 388.156384 202.821083 
L 388.861939 202.982728 
L 390.273051 203.137823 
L 390.978606 203.310374 
L 392.389717 203.269133 
L 395.21194 203.57457 
L 395.917496 203.743591 
L 397.328607 203.724339 
L 399.445274 203.192928 
L 400.150829 203.36061 
L 400.856385 203.245021 
L 402.267496 203.320019 
L 402.973052 203.208013 
L 405.795274 203.725238 
L 407.206385 203.989083 
L 407.911941 204.151297 
L 408.617497 204.043912 
L 410.028608 204.300761 
L 411.439719 204.503946 
L 412.145275 204.33665 
L 414.261942 204.710258 
L 414.967497 204.652091 
L 415.673053 204.110165 
L 416.378608 203.415599 
L 417.084164 203.574717 
L 417.78972 203.43152 
L 419.200831 203.402683 
L 419.906387 203.175534 
L 421.317498 203.178939 
L 422.023053 203.336313 
L 422.728609 202.810887 
L 423.434165 202.591117 
L 424.13972 202.53522 
L 424.845276 202.125394 
L 426.961943 202.536855 
L 428.373054 202.435938 
L 428.373054 202.435938 
" clip-path="url(#p869dde6da3)" style="fill: none; stroke: #988ed5; stroke-width: 1.5; stroke-linecap: round"/>
   </g>
   <g id="line2d_16">
    <path d="M 67.834134 282.33848 
L 68.539689 115.359891 
L 69.245245 171.019421 
L 69.9508 84.801327 
L 70.656356 124.308758 
L 71.361912 93.094828 
L 72.067467 120.129636 
L 72.773023 140.405741 
L 73.478578 156.176046 
L 74.184134 130.511235 
L 74.88969 139.998292 
L 76.300801 161.896783 
L 77.711912 177.955676 
L 78.417468 160.97581 
L 79.123023 167.523214 
L 79.828579 152.697129 
L 80.534135 134.832604 
L 81.23969 140.529575 
L 81.945246 147.28238 
L 82.650801 148.336817 
L 84.061913 159.503622 
L 85.473024 168.952457 
L 86.17858 173.15194 
L 86.884135 170.235911 
L 87.589691 163.528577 
L 88.295246 155.42903 
L 89.000802 159.522883 
L 89.706358 154.455774 
L 90.411913 150.813279 
L 91.823025 158.329005 
L 92.52858 154.898358 
L 93.234136 146.672798 
L 93.939691 150.242947 
L 94.645247 149.380142 
L 96.761914 158.877166 
L 97.467469 161.748359 
L 98.173025 163.301024 
L 98.878581 162.375969 
L 99.584136 163.956796 
L 100.289692 163.899378 
L 100.995248 163.576495 
L 101.700803 166.000209 
L 102.406359 167.68135 
L 103.81747 172.09124 
L 105.228581 163.781799 
L 107.345248 170.021624 
L 108.050804 165.248679 
L 108.756359 165.05837 
L 110.873026 170.733214 
L 111.578582 171.009816 
L 112.284137 169.240776 
L 112.989693 170.980741 
L 113.695249 169.279181 
L 114.400804 170.966633 
L 115.10636 165.706405 
L 116.517471 169.03875 
L 117.223027 169.999232 
L 120.045249 175.990659 
L 120.750805 173.065357 
L 121.45636 174.021573 
L 122.867472 169.912541 
L 123.573027 165.640684 
L 124.278583 167.081398 
L 124.984139 165.400223 
L 127.806361 170.839212 
L 128.511917 171.810743 
L 129.217472 172.418361 
L 129.923028 171.052835 
L 130.628583 172.289342 
L 131.334139 172.680847 
L 132.74525 174.929072 
L 133.450806 174.855393 
L 134.156362 174.079764 
L 136.978584 178.453854 
L 137.68414 177.226776 
L 139.800806 180.288282 
L 140.506362 179.7231 
L 141.211918 176.351689 
L 141.917473 177.351564 
L 142.623029 175.063833 
L 143.328585 176.057117 
L 144.03414 176.580063 
L 144.739696 177.541503 
L 145.445251 176.076769 
L 146.856363 177.957508 
L 147.561918 175.30682 
L 148.267474 174.442429 
L 148.97303 174.663386 
L 149.678585 171.818479 
L 151.795252 174.581479 
L 152.500808 173.555679 
L 153.911919 175.324505 
L 154.617474 175.192493 
L 155.32303 175.84496 
L 156.028586 176.690147 
L 156.734141 177.266954 
L 157.439697 178.087826 
L 158.145253 178.647983 
L 158.850808 175.837392 
L 159.556364 176.650377 
L 160.261919 174.718265 
L 160.967475 174.364223 
L 163.084142 176.746009 
L 163.789697 176.05039 
L 164.495253 174.829063 
L 165.200809 172.710358 
L 165.906364 173.493416 
L 166.61192 171.853396 
L 167.317476 172.63146 
L 168.023031 173.191006 
L 168.728587 171.1619 
L 169.434142 171.928635 
L 170.139698 171.349149 
L 170.845254 172.104179 
L 171.550809 172.153676 
L 172.256365 169.819805 
L 172.961921 170.569929 
L 173.667476 168.817724 
L 174.373032 167.918639 
L 175.078587 166.811672 
L 175.784143 166.061775 
L 176.489699 166.280902 
L 177.195254 165.89062 
L 177.90081 164.073669 
L 178.606365 163.198524 
L 179.311921 163.107376 
L 181.428588 159.420109 
L 182.839699 160.919114 
L 183.545255 158.812157 
L 184.25081 159.556291 
L 184.956366 159.336891 
L 185.661922 160.069044 
L 186.367477 159.213829 
L 187.778588 160.653883 
L 188.484144 160.759364 
L 189.1897 159.086619 
L 189.895255 159.794963 
L 190.600811 158.795258 
L 191.306367 157.180735 
L 192.011922 157.887841 
L 192.717478 156.033457 
L 193.423033 154.680443 
L 194.128589 154.528525 
L 194.834145 153.531787 
L 195.5397 154.054338 
L 196.245256 153.577319 
L 196.950811 153.864073 
L 197.656367 153.812915 
L 198.361923 153.627362 
L 199.773034 154.996629 
L 200.47859 153.472083 
L 201.889701 153.113991 
L 205.417479 156.395935 
L 206.123035 156.471024 
L 207.534146 157.736023 
L 208.239701 157.758395 
L 208.945257 158.378196 
L 209.650813 157.502851 
L 210.356368 157.953307 
L 211.061924 158.563039 
L 211.767479 158.378445 
L 212.473035 158.023887 
L 213.884146 159.21922 
L 214.589702 159.318435 
L 215.295258 159.586329 
L 216.000813 158.42314 
L 216.706369 159.007646 
L 217.411924 157.631688 
L 218.11748 157.799437 
L 220.234147 159.521175 
L 220.939702 159.67961 
L 221.645258 160.239696 
L 222.350814 160.449735 
L 223.056369 161.001267 
L 223.761925 160.82008 
L 224.467481 160.276243 
L 225.173036 159.020657 
L 225.878592 159.399143 
L 227.289703 160.482309 
L 227.995259 160.737465 
L 229.40637 161.794865 
L 230.111926 161.144173 
L 230.817481 159.91593 
L 231.523037 160.441348 
L 232.228592 160.298366 
L 232.934148 160.817685 
L 233.639704 160.960073 
L 235.050815 159.635827 
L 235.75637 159.985132 
L 236.461926 159.327214 
L 237.167482 159.837634 
L 237.873037 158.602569 
L 239.284149 159.616798 
L 239.989704 159.697954 
L 240.69526 160.080999 
L 241.400815 159.43944 
L 242.106371 159.473669 
L 242.811927 159.295714 
L 243.517482 158.1751 
L 244.928593 159.08914 
L 245.634149 158.411818 
L 246.339705 157.052996 
L 247.04526 157.544312 
L 247.750816 157.087901 
L 248.456372 156.24046 
L 249.161927 155.685282 
L 249.867483 156.174291 
L 250.573038 154.900409 
L 251.278594 155.388677 
L 251.98415 155.497499 
L 252.689705 155.979784 
L 253.395261 155.017846 
L 254.100816 154.783938 
L 256.217483 156.136737 
L 257.628595 155.738684 
L 258.33415 155.369482 
L 259.745261 155.740386 
L 260.450817 155.509059 
L 261.156373 155.970257 
L 261.861928 154.972117 
L 262.567484 154.336626 
L 263.978595 153.681061 
L 264.684151 153.419981 
L 265.389706 153.496918 
L 268.211929 155.305221 
L 268.917484 155.112249 
L 270.328596 155.870598 
L 271.034151 156.308203 
L 271.739707 156.293569 
L 272.445263 156.008831 
L 273.150818 155.889413 
L 273.856374 156.130919 
L 274.561929 154.96473 
L 275.267485 154.42967 
L 276.678596 154.424229 
L 278.795263 155.680669 
L 279.500819 155.297047 
L 280.206374 154.717483 
L 280.91193 155.138674 
L 281.617486 155.042602 
L 282.323041 155.459965 
L 283.028597 154.571605 
L 283.734152 154.987784 
L 284.439708 154.350352 
L 285.145264 154.264806 
L 286.556375 155.088431 
L 287.261931 155.287639 
L 287.967486 154.194935 
L 289.378597 154.923814 
L 290.084153 155.027104 
L 290.789709 154.656917 
L 291.495264 154.846407 
L 292.20082 154.247808 
L 292.906375 154.275725 
L 293.611931 154.674674 
L 295.023042 154.278335 
L 295.728598 154.457826 
L 296.434154 154.851305 
L 297.139709 155.023994 
L 297.845265 155.413335 
L 298.55082 154.687225 
L 299.961932 155.460869 
L 300.667487 155.508724 
L 301.373043 154.989779 
L 302.078598 154.029281 
L 302.784154 154.41344 
L 303.48971 153.636429 
L 304.195265 154.019471 
L 304.900821 153.657694 
L 305.606377 154.038406 
L 306.311932 153.620011 
L 307.017488 153.958655 
L 307.723043 153.061666 
L 309.134155 153.801217 
L 309.83971 153.926198 
L 310.545266 152.938792 
L 311.250822 152.327535 
L 312.661933 152.492919 
L 313.367488 152.864969 
L 314.073044 152.279417 
L 314.7786 151.549211 
L 316.189711 151.193366 
L 318.306378 152.265661 
L 319.011933 151.850649 
L 319.717489 151.079499 
L 321.1286 150.125924 
L 321.834156 149.896409 
L 322.539711 150.262271 
L 323.245267 149.981647 
L 323.950823 150.345265 
L 324.656378 150.040442 
L 325.361934 150.011971 
L 326.067489 149.442707 
L 326.773045 149.11599 
L 327.478601 148.205842 
L 328.889712 148.810132 
L 330.300823 149.518217 
L 331.006379 149.229876 
L 331.711934 148.799576 
L 332.41749 148.885194 
L 333.123046 149.239181 
L 333.828601 148.656263 
L 335.945268 149.32763 
L 336.650824 148.867556 
L 338.767491 149.907589 
L 339.473046 149.115714 
L 340.884157 149.802429 
L 341.589713 150.000296 
L 344.411936 151.254367 
L 345.117491 151.232791 
L 347.234158 152.223515 
L 347.939714 152.117233 
L 348.645269 151.361726 
L 349.350825 151.097345 
L 350.05638 151.212123 
L 350.761936 151.538308 
L 351.467492 151.602419 
L 352.878603 152.248029 
L 353.584159 151.937993 
L 354.99527 152.577211 
L 355.700825 152.668406 
L 356.406381 152.556221 
L 357.111937 152.871993 
L 357.817492 152.669268 
L 358.523048 152.983237 
L 359.228603 152.302818 
L 359.934159 152.616157 
L 360.639715 152.684323 
L 362.050826 153.304678 
L 362.756382 152.593056 
L 363.461937 152.503959 
L 364.167493 152.812355 
L 364.873048 152.836148 
L 365.578604 152.377853 
L 366.28416 152.40434 
L 367.695271 153.014359 
L 368.400827 152.816302 
L 369.106382 152.417525 
L 369.811938 152.644085 
L 371.223049 152.037506 
L 372.63416 152.197764 
L 373.339716 152.497627 
L 374.045271 152.557761 
L 375.456383 153.071552 
L 376.161938 153.366682 
L 376.867494 152.591977 
L 377.57305 153.265062 
L 378.278605 153.247257 
L 380.395272 154.119495 
L 381.100828 153.399481 
L 383.92305 154.443594 
L 384.628606 154.427748 
L 385.334161 153.881656 
L 386.039717 153.81648 
L 386.745273 154.100193 
L 387.450828 153.945556 
L 388.156384 153.558064 
L 388.861939 153.517953 
L 389.567495 153.799836 
L 390.273051 153.201007 
L 391.684162 153.423971 
L 392.389717 153.237231 
L 393.800829 153.764105 
L 394.506384 153.187654 
L 395.21194 153.092232 
L 395.917496 152.500471 
L 396.623051 152.778497 
L 397.328607 152.469582 
L 398.739718 152.956476 
L 399.445274 153.231172 
L 400.150829 152.510918 
L 400.856385 152.269034 
L 402.973052 153.0888 
L 403.678607 152.614821 
L 404.384163 152.525842 
L 405.089719 152.79685 
L 406.50083 152.328804 
L 408.617497 153.134649 
L 409.323052 153.089878 
L 410.028608 152.585924 
L 412.145275 153.381952 
L 412.85083 152.96903 
L 413.556386 152.3172 
L 414.261942 152.581471 
L 414.967497 152.614132 
L 416.378608 153.138271 
L 417.084164 153.223186 
L 417.78972 153.482975 
L 418.495275 153.098147 
L 419.200831 153.247127 
L 420.611942 152.764621 
L 422.728609 153.535894 
L 424.845276 153.574205 
L 425.550832 153.780993 
L 426.256387 153.445993 
L 426.961943 153.698723 
L 427.667498 153.445478 
L 428.373054 153.697222 
L 428.373054 153.697222 
" clip-path="url(#p869dde6da3)" style="fill: none; stroke: #777777; stroke-width: 1.5; stroke-linecap: round"/>
   </g>
   <g id="line2d_17">
    <path d="M 67.834134 282.33848 
L 68.539689 282.33848 
L 69.245245 258.623999 
L 69.9508 264.55262 
L 70.656356 268.109792 
L 71.361912 270.48124 
L 72.067467 272.175131 
L 72.773023 273.44555 
L 73.478578 274.433653 
L 74.88969 275.870894 
L 75.595245 276.40986 
L 76.300801 274.328253 
L 77.711912 275.396284 
L 79.123023 276.213013 
L 80.534135 276.857799 
L 81.23969 269.709311 
L 81.945246 264.301948 
L 83.356357 265.870342 
L 84.061913 260.128728 
L 85.473024 261.837171 
L 87.589691 263.957996 
L 88.295246 262.255362 
L 90.411913 264.0811 
L 91.117469 255.266673 
L 91.823025 255.157636 
L 93.234136 256.626871 
L 93.939691 245.402267 
L 94.645247 246.349349 
L 95.350803 242.884406 
L 97.467469 245.637016 
L 99.584136 248.030589 
L 100.289692 247.674604 
L 100.995248 241.532749 
L 103.111914 243.933086 
L 104.523026 245.382347 
L 105.228581 244.648312 
L 105.934137 239.813177 
L 106.639692 240.572557 
L 107.345248 234.971814 
L 108.050804 235.788481 
L 108.756359 231.500247 
L 109.461915 224.529762 
L 112.284137 228.142807 
L 112.989693 228.976587 
L 113.695249 229.348015 
L 114.400804 227.609174 
L 115.10636 228.414017 
L 115.811916 222.534095 
L 116.517471 223.388443 
L 117.223027 219.103843 
L 117.928582 216.610485 
L 118.634138 217.510869 
L 119.339694 218.029412 
L 122.161916 221.327313 
L 124.278583 223.574941 
L 124.984139 221.982214 
L 125.689694 218.07213 
L 127.806361 220.313979 
L 128.511917 218.408053 
L 129.923028 216.250424 
L 132.039695 218.405469 
L 132.74525 217.904315 
L 134.156362 219.260823 
L 134.861917 215.631389 
L 136.273028 216.992758 
L 136.978584 213.358623 
L 137.68414 213.012111 
L 138.389695 209.054279 
L 139.095251 209.458569 
L 141.917473 212.208754 
L 142.623029 212.099987 
L 143.328585 212.750343 
L 144.03414 211.380771 
L 144.739696 211.804911 
L 145.445251 211.526977 
L 148.267474 213.989986 
L 148.97303 211.412871 
L 151.089696 213.200912 
L 151.795252 211.427461 
L 153.911919 213.156998 
L 154.617474 212.192865 
L 155.32303 209.739353 
L 157.439697 211.440895 
L 158.145253 211.7609 
L 158.850808 212.303805 
L 159.556364 209.72188 
L 160.967475 210.813859 
L 161.673031 210.275911 
L 162.378586 210.809708 
L 163.084142 210.198753 
L 164.495253 211.244256 
L 165.200809 211.288413 
L 168.728587 213.755429 
L 169.434142 212.987619 
L 170.139698 212.671379 
L 170.845254 212.889743 
L 173.667476 214.72699 
L 174.373032 214.780255 
L 175.784143 215.657635 
L 176.489699 214.234322 
L 177.195254 213.402451 
L 178.606365 214.275059 
L 179.311921 213.958759 
L 184.25081 216.842241 
L 185.661922 217.351072 
L 187.073033 215.965094 
L 191.306367 218.224252 
L 192.011922 217.691223 
L 194.834145 219.056243 
L 195.5397 217.927675 
L 196.245256 218.279646 
L 196.950811 217.373139 
L 197.656367 217.246995 
L 199.067478 217.943161 
L 199.773034 217.286426 
L 200.47859 217.347092 
L 201.184145 216.793011 
L 204.006368 218.144464 
L 204.711923 217.927429 
L 205.417479 216.692124 
L 206.123035 215.208516 
L 207.534146 215.883189 
L 210.356368 216.387983 
L 211.061924 215.014556 
L 211.767479 214.769445 
L 213.178591 215.304407 
L 214.589702 215.945882 
L 215.295258 214.612908 
L 216.000813 214.582704 
L 216.706369 213.272785 
L 221.645258 215.480364 
L 222.350814 214.668716 
L 225.878592 216.172488 
L 226.584147 214.401819 
L 229.40637 215.583326 
L 230.111926 215.591945 
L 230.817481 215.750126 
L 231.523037 216.035913 
L 232.228592 214.978607 
L 232.934148 213.550055 
L 239.284149 216.087333 
L 240.69526 216.022122 
L 241.400815 215.707067 
L 243.517482 216.506644 
L 244.223038 216.446574 
L 244.928593 215.477027 
L 245.634149 215.518244 
L 246.339705 215.781316 
L 247.04526 214.602619 
L 247.750816 214.155384 
L 248.456372 214.420688 
L 249.161927 214.038604 
L 251.278594 214.809049 
L 251.98415 213.874182 
L 252.689705 213.246307 
L 254.806372 214.025542 
L 255.511928 213.054459 
L 259.039706 214.26886 
L 259.745261 213.824547 
L 262.567484 214.813918 
L 263.27304 214.929961 
L 263.978595 215.171569 
L 264.684151 214.784844 
L 265.389706 213.737817 
L 266.095262 213.981081 
L 266.800818 214.093128 
L 268.211929 213.409315 
L 268.917484 213.650326 
L 269.62304 213.386759 
L 278.089707 216.154052 
L 280.206374 216.811513 
L 280.91193 216.874654 
L 287.261931 218.705858 
L 287.967486 218.909157 
L 288.673042 218.79481 
L 290.084153 219.166466 
L 290.789709 219.110704 
L 294.317487 219.681879 
L 295.023042 219.449258 
L 295.728598 218.793871 
L 297.139709 219.183715 
L 297.845265 218.694349 
L 299.256376 219.081243 
L 299.961932 218.203543 
L 300.667487 218.298163 
L 301.373043 218.280455 
L 302.078598 218.407138 
L 302.784154 217.813746 
L 307.017488 218.931489 
L 308.428599 219.200495 
L 309.134155 218.670439 
L 312.661933 219.58521 
L 313.367488 218.77815 
L 316.189711 219.49838 
L 316.895266 218.350845 
L 317.600822 218.466255 
L 318.306378 218.147762 
L 320.423045 218.684175 
L 321.834156 218.405226 
L 322.539711 217.441291 
L 323.245267 217.620071 
L 323.950823 217.223159 
L 324.656378 217.193728 
L 325.361934 217.371719 
L 326.067489 217.313951 
L 328.184156 217.841177 
L 328.889712 217.869714 
L 329.595268 216.78999 
L 330.300823 216.342278 
L 335.239712 217.492032 
L 335.945268 216.431085 
L 336.650824 216.603617 
L 337.356379 216.127985 
L 338.061935 215.840356 
L 338.767491 215.041853 
L 344.411936 216.388866 
L 345.117491 215.851852 
L 347.234158 216.35427 
L 347.939714 216.38469 
L 348.645269 216.549988 
L 350.05638 216.012079 
L 352.878603 216.58476 
L 354.99527 216.990066 
L 355.700825 216.607215 
L 356.406381 216.494114 
L 357.111937 216.179717 
L 359.934159 216.817392 
L 360.639715 216.595694 
L 361.34527 216.753351 
L 362.050826 216.483424 
L 363.461937 216.724001 
L 364.167493 216.082619 
L 365.578604 216.395886 
L 366.28416 215.930306 
L 366.989715 215.260008 
L 367.695271 214.989528 
L 371.223049 215.767867 
L 371.928605 215.623837 
L 372.63416 215.340661 
L 373.339716 215.495034 
L 374.045271 214.989728 
L 374.750827 215.144197 
L 375.456383 214.266205 
L 376.867494 214.576329 
L 377.57305 215.151365 
L 379.689716 215.525641 
L 380.395272 215.216265 
L 381.100828 215.367102 
L 381.806383 215.362775 
L 382.511939 215.512608 
L 383.217494 215.304162 
L 385.334161 215.750066 
L 386.039717 215.447102 
L 387.450828 215.657862 
L 388.156384 215.789423 
L 388.861939 215.714718 
L 390.273051 215.962738 
L 391.684162 216.159116 
L 394.506384 216.729628 
L 395.21194 216.720258 
L 395.917496 216.861069 
L 396.623051 216.710968 
L 400.150829 217.325301 
L 400.856385 217.269985 
L 403.678607 217.815633 
L 404.384163 217.500922 
L 405.089719 217.337381 
L 408.617497 218.00888 
L 409.323052 218.017994 
L 411.439719 218.413407 
L 412.145275 217.918835 
L 413.556386 218.181237 
L 414.261942 217.474934 
L 417.084164 217.770766 
L 417.78972 217.726975 
L 419.906387 218.114644 
L 420.611942 218.123893 
L 424.13972 218.669589 
L 425.550832 218.729247 
L 427.667498 219.01999 
L 428.373054 218.642389 
L 428.373054 218.642389 
" clip-path="url(#p869dde6da3)" style="fill: none; stroke: #fbc15e; stroke-width: 1.5; stroke-linecap: round"/>
   </g>
   <g id="patch_3">
    <path d="M 49.807188 295.440313 
L 49.807188 7.2 
" style="fill: none; stroke: #262626; stroke-linejoin: miter; stroke-linecap: square"/>
   </g>
   <g id="patch_4">
    <path d="M 446.4 295.440313 
L 446.4 7.2 
" style="fill: none; stroke: #262626; stroke-linejoin: miter; stroke-linecap: square"/>
   </g>
   <g id="patch_5">
    <path d="M 49.807188 295.440313 
L 446.4 295.440313 
" style="fill: none; stroke: #262626; stroke-linejoin: miter; stroke-linecap: square"/>
   </g>
   <g id="patch_6">
    <path d="M 49.807188 7.2 
L 446.4 7.2 
" style="fill: none; stroke: #262626; stroke-linejoin: miter; stroke-linecap: square"/>
   </g>
   <g id="legend_1">
    <g id="patch_7">
     <path d="M 370.72 96.729688 
L 438.7 96.729688 
Q 440.9 96.729688 440.9 94.529688 
L 440.9 14.9 
Q 440.9 12.7 438.7 12.7 
L 370.72 12.7 
Q 368.52 12.7 368.52 14.9 
L 368.52 94.529688 
Q 368.52 96.729688 370.72 96.729688 
z
" style="fill: #ffffff; opacity: 0.8; stroke: #cccccc; stroke-width: 0.5; stroke-linejoin: miter"/>
    </g>
    <g id="line2d_18">
     <path d="M 372.92 21.608281 
L 383.92 21.608281 
L 394.92 21.608281 
" style="fill: none; stroke: #e24a33; stroke-width: 1.5; stroke-linecap: round"/>
    </g>
    <g id="text_15">
     <!-- AAPL -->
     <g style="fill: #262626" transform="translate(403.72 25.458281)scale(0.11 -0.11)">
      <defs>
       <path id="DejaVuSans-50" d="M 1259 4147 
L 1259 2394 
L 2053 2394 
Q 2494 2394 2734 2622 
Q 2975 2850 2975 3272 
Q 2975 3691 2734 3919 
Q 2494 4147 2053 4147 
L 1259 4147 
z
M 628 4666 
L 2053 4666 
Q 2838 4666 3239 4311 
Q 3641 3956 3641 3272 
Q 3641 2581 3239 2228 
Q 2838 1875 2053 1875 
L 1259 1875 
L 1259 0 
L 628 0 
L 628 4666 
z
" transform="scale(0.015625)"/>
       <path id="DejaVuSans-4c" d="M 628 4666 
L 1259 4666 
L 1259 531 
L 3531 531 
L 3531 0 
L 628 0 
L 628 4666 
z
" transform="scale(0.015625)"/>
      </defs>
      <use xlink:href="#DejaVuSans-41"/>
      <use xlink:href="#DejaVuSans-41" x="71.158203"/>
      <use xlink:href="#DejaVuSans-50" x="139.566406"/>
      <use xlink:href="#DejaVuSans-4c" x="199.869141"/>
     </g>
    </g>
    <g id="line2d_19">
     <path d="M 372.92 37.754219 
L 383.92 37.754219 
L 394.92 37.754219 
" style="fill: none; stroke: #348abd; stroke-width: 1.5; stroke-linecap: round"/>
    </g>
    <g id="text_16">
     <!-- MSTR -->
     <g style="fill: #262626" transform="translate(403.72 41.604219)scale(0.11 -0.11)">
      <defs>
       <path id="DejaVuSans-4d" d="M 628 4666 
L 1569 4666 
L 2759 1491 
L 3956 4666 
L 4897 4666 
L 4897 0 
L 4281 0 
L 4281 4097 
L 3078 897 
L 2444 897 
L 1241 4097 
L 1241 0 
L 628 0 
L 628 4666 
z
" transform="scale(0.015625)"/>
       <path id="DejaVuSans-53" d="M 3425 4513 
L 3425 3897 
Q 3066 4069 2747 4153 
Q 2428 4238 2131 4238 
Q 1616 4238 1336 4038 
Q 1056 3838 1056 3469 
Q 1056 3159 1242 3001 
Q 1428 2844 1947 2747 
L 2328 2669 
Q 3034 2534 3370 2195 
Q 3706 1856 3706 1288 
Q 3706 609 3251 259 
Q 2797 -91 1919 -91 
Q 1588 -91 1214 -16 
Q 841 59 441 206 
L 441 856 
Q 825 641 1194 531 
Q 1563 422 1919 422 
Q 2459 422 2753 634 
Q 3047 847 3047 1241 
Q 3047 1584 2836 1778 
Q 2625 1972 2144 2069 
L 1759 2144 
Q 1053 2284 737 2584 
Q 422 2884 422 3419 
Q 422 4038 858 4394 
Q 1294 4750 2059 4750 
Q 2388 4750 2728 4690 
Q 3069 4631 3425 4513 
z
" transform="scale(0.015625)"/>
       <path id="DejaVuSans-54" d="M -19 4666 
L 3928 4666 
L 3928 4134 
L 2272 4134 
L 2272 0 
L 1638 0 
L 1638 4134 
L -19 4134 
L -19 4666 
z
" transform="scale(0.015625)"/>
       <path id="DejaVuSans-52" d="M 2841 2188 
Q 3044 2119 3236 1894 
Q 3428 1669 3622 1275 
L 4263 0 
L 3584 0 
L 2988 1197 
Q 2756 1666 2539 1819 
Q 2322 1972 1947 1972 
L 1259 1972 
L 1259 0 
L 628 0 
L 628 4666 
L 2053 4666 
Q 2853 4666 3247 4331 
Q 3641 3997 3641 3322 
Q 3641 2881 3436 2590 
Q 3231 2300 2841 2188 
z
M 1259 4147 
L 1259 2491 
L 2053 2491 
Q 2509 2491 2742 2702 
Q 2975 2913 2975 3322 
Q 2975 3731 2742 3939 
Q 2509 4147 2053 4147 
L 1259 4147 
z
" transform="scale(0.015625)"/>
      </defs>
      <use xlink:href="#DejaVuSans-4d"/>
      <use xlink:href="#DejaVuSans-53" x="86.279297"/>
      <use xlink:href="#DejaVuSans-54" x="149.755859"/>
      <use xlink:href="#DejaVuSans-52" x="210.839844"/>
     </g>
    </g>
    <g id="line2d_20">
     <path d="M 372.92 53.900156 
L 383.92 53.900156 
L 394.92 53.900156 
" style="fill: none; stroke: #988ed5; stroke-width: 1.5; stroke-linecap: round"/>
    </g>
    <g id="text_17">
     <!-- TSLA -->
     <g style="fill: #262626" transform="translate(403.72 57.750156)scale(0.11 -0.11)">
      <use xlink:href="#DejaVuSans-54"/>
      <use xlink:href="#DejaVuSans-53" x="61.083984"/>
      <use xlink:href="#DejaVuSans-4c" x="124.560547"/>
      <use xlink:href="#DejaVuSans-41" x="182.523438"/>
     </g>
    </g>
    <g id="line2d_21">
     <path d="M 372.92 70.046094 
L 383.92 70.046094 
L 394.92 70.046094 
" style="fill: none; stroke: #777777; stroke-width: 1.5; stroke-linecap: round"/>
    </g>
    <g id="text_18">
     <!-- MSFT -->
     <g style="fill: #262626" transform="translate(403.72 73.896094)scale(0.11 -0.11)">
      <defs>
       <path id="DejaVuSans-46" d="M 628 4666 
L 3309 4666 
L 3309 4134 
L 1259 4134 
L 1259 2759 
L 3109 2759 
L 3109 2228 
L 1259 2228 
L 1259 0 
L 628 0 
L 628 4666 
z
" transform="scale(0.015625)"/>
      </defs>
      <use xlink:href="#DejaVuSans-4d"/>
      <use xlink:href="#DejaVuSans-53" x="86.279297"/>
      <use xlink:href="#DejaVuSans-46" x="149.755859"/>
      <use xlink:href="#DejaVuSans-54" x="205.525391"/>
     </g>
    </g>
    <g id="line2d_22">
     <path d="M 372.92 86.192031 
L 383.92 86.192031 
L 394.92 86.192031 
" style="fill: none; stroke: #fbc15e; stroke-width: 1.5; stroke-linecap: round"/>
    </g>
    <g id="text_19">
     <!-- AMZN -->
     <g style="fill: #262626" transform="translate(403.72 90.042031)scale(0.11 -0.11)">
      <defs>
       <path id="DejaVuSans-5a" d="M 359 4666 
L 4025 4666 
L 4025 4184 
L 1075 531 
L 4097 531 
L 4097 0 
L 288 0 
L 288 481 
L 3238 4134 
L 359 4134 
L 359 4666 
z
" transform="scale(0.015625)"/>
       <path id="DejaVuSans-4e" d="M 628 4666 
L 1478 4666 
L 3547 763 
L 3547 4666 
L 4159 4666 
L 4159 0 
L 3309 0 
L 1241 3903 
L 1241 0 
L 628 0 
L 628 4666 
z
" transform="scale(0.015625)"/>
      </defs>
      <use xlink:href="#DejaVuSans-41"/>
      <use xlink:href="#DejaVuSans-4d" x="68.408203"/>
      <use xlink:href="#DejaVuSans-5a" x="154.6875"/>
      <use xlink:href="#DejaVuSans-4e" x="223.193359"/>
     </g>
    </g>
   </g>
  </g>
 </g>
 <defs>
  <clipPath id="p869dde6da3">
   <rect x="49.807188" y="7.2" width="396.592812" height="288.240312"/>
  </clipPath>
 </defs>
</svg>
