<?xml version="1.0" encoding="utf-8" standalone="no"?>
<!DOCTYPE svg PUBLIC "-//W3C//DTD SVG 1.1//EN"
  "http://www.w3.org/Graphics/SVG/1.1/DTD/svg11.dtd">
<svg xmlns:xlink="http://www.w3.org/1999/xlink" width="856.8pt" height="352.8pt" viewBox="0 0 856.8 352.8" xmlns="http://www.w3.org/2000/svg" version="1.1">
 <metadata>
  <rdf:RDF xmlns:dc="http://purl.org/dc/elements/1.1/" xmlns:cc="http://creativecommons.org/ns#" xmlns:rdf="http://www.w3.org/1999/02/22-rdf-syntax-ns#">
   <cc:Work>
    <dc:type rdf:resource="http://purl.org/dc/dcmitype/StillImage"/>
    <dc:date>2022-02-12T19:26:46.074833</dc:date>
    <dc:format>image/svg+xml</dc:format>
    <dc:creator>
     <cc:Agent>
      <dc:title>Matplotlib v3.5.1, https://matplotlib.org/</dc:title>
     </cc:Agent>
    </dc:creator>
   </cc:Work>
  </rdf:RDF>
 </metadata>
 <defs>
  <style type="text/css">*{stroke-linejoin: round; stroke-linecap: butt}</style>
 </defs>
 <g id="figure_1">
  <g id="patch_1">
   <path d="M 0 352.8 
L 856.8 352.8 
L 856.8 0 
L 0 0 
z
" style="fill: #ffffff"/>
  </g>
  <g id="axes_1">
   <g id="patch_2">
    <path d="M 60.30875 309.840312 
L 849.6 309.840312 
L 849.6 24.14175 
L 60.30875 24.14175 
z
" style="fill: #ffffff"/>
   </g>
   <g id="matplotlib.axis_1">
    <g id="xtick_1">
     <g id="line2d_1">
      <path d="M 96.185625 309.840312 
L 96.185625 24.14175 
" clip-path="url(#p72abb64d6e)" style="fill: none; stroke: #cccccc; stroke-linecap: round"/>
     </g>
     <g id="line2d_2">
      <defs>
       <path id="m2b673248f8" d="M 0 0 
L 0 6 
" style="stroke: #262626; stroke-width: 1.25"/>
      </defs>
      <g>
       <use xlink:href="#m2b673248f8" x="96.185625" y="309.840312" style="fill: #262626; stroke: #262626; stroke-width: 1.25"/>
      </g>
     </g>
     <g id="text_1">
      <!-- 2016-08-22 -->
      <g style="fill: #262626" transform="translate(64.222031 327.698594)scale(0.11 -0.11)">
       <defs>
        <path id="DejaVuSans-32" d="M 1228 531 
L 3431 531 
L 3431 0 
L 469 0 
L 469 531 
Q 828 903 1448 1529 
Q 2069 2156 2228 2338 
Q 2531 2678 2651 2914 
Q 2772 3150 2772 3378 
Q 2772 3750 2511 3984 
Q 2250 4219 1831 4219 
Q 1534 4219 1204 4116 
Q 875 4013 500 3803 
L 500 4441 
Q 881 4594 1212 4672 
Q 1544 4750 1819 4750 
Q 2544 4750 2975 4387 
Q 3406 4025 3406 3419 
Q 3406 3131 3298 2873 
Q 3191 2616 2906 2266 
Q 2828 2175 2409 1742 
Q 1991 1309 1228 531 
z
" transform="scale(0.015625)"/>
        <path id="DejaVuSans-30" d="M 2034 4250 
Q 1547 4250 1301 3770 
Q 1056 3291 1056 2328 
Q 1056 1369 1301 889 
Q 1547 409 2034 409 
Q 2525 409 2770 889 
Q 3016 1369 3016 2328 
Q 3016 3291 2770 3770 
Q 2525 4250 2034 4250 
z
M 2034 4750 
Q 2819 4750 3233 4129 
Q 3647 3509 3647 2328 
Q 3647 1150 3233 529 
Q 2819 -91 2034 -91 
Q 1250 -91 836 529 
Q 422 1150 422 2328 
Q 422 3509 836 4129 
Q 1250 4750 2034 4750 
z
" transform="scale(0.015625)"/>
        <path id="DejaVuSans-31" d="M 794 531 
L 1825 531 
L 1825 4091 
L 703 3866 
L 703 4441 
L 1819 4666 
L 2450 4666 
L 2450 531 
L 3481 531 
L 3481 0 
L 794 0 
L 794 531 
z
" transform="scale(0.015625)"/>
        <path id="DejaVuSans-36" d="M 2113 2584 
Q 1688 2584 1439 2293 
Q 1191 2003 1191 1497 
Q 1191 994 1439 701 
Q 1688 409 2113 409 
Q 2538 409 2786 701 
Q 3034 994 3034 1497 
Q 3034 2003 2786 2293 
Q 2538 2584 2113 2584 
z
M 3366 4563 
L 3366 3988 
Q 3128 4100 2886 4159 
Q 2644 4219 2406 4219 
Q 1781 4219 1451 3797 
Q 1122 3375 1075 2522 
Q 1259 2794 1537 2939 
Q 1816 3084 2150 3084 
Q 2853 3084 3261 2657 
Q 3669 2231 3669 1497 
Q 3669 778 3244 343 
Q 2819 -91 2113 -91 
Q 1303 -91 875 529 
Q 447 1150 447 2328 
Q 447 3434 972 4092 
Q 1497 4750 2381 4750 
Q 2619 4750 2861 4703 
Q 3103 4656 3366 4563 
z
" transform="scale(0.015625)"/>
        <path id="DejaVuSans-2d" d="M 313 2009 
L 1997 2009 
L 1997 1497 
L 313 1497 
L 313 2009 
z
" transform="scale(0.015625)"/>
        <path id="DejaVuSans-38" d="M 2034 2216 
Q 1584 2216 1326 1975 
Q 1069 1734 1069 1313 
Q 1069 891 1326 650 
Q 1584 409 2034 409 
Q 2484 409 2743 651 
Q 3003 894 3003 1313 
Q 3003 1734 2745 1975 
Q 2488 2216 2034 2216 
z
M 1403 2484 
Q 997 2584 770 2862 
Q 544 3141 544 3541 
Q 544 4100 942 4425 
Q 1341 4750 2034 4750 
Q 2731 4750 3128 4425 
Q 3525 4100 3525 3541 
Q 3525 3141 3298 2862 
Q 3072 2584 2669 2484 
Q 3125 2378 3379 2068 
Q 3634 1759 3634 1313 
Q 3634 634 3220 271 
Q 2806 -91 2034 -91 
Q 1263 -91 848 271 
Q 434 634 434 1313 
Q 434 1759 690 2068 
Q 947 2378 1403 2484 
z
M 1172 3481 
Q 1172 3119 1398 2916 
Q 1625 2713 2034 2713 
Q 2441 2713 2670 2916 
Q 2900 3119 2900 3481 
Q 2900 3844 2670 4047 
Q 2441 4250 2034 4250 
Q 1625 4250 1398 4047 
Q 1172 3844 1172 3481 
z
" transform="scale(0.015625)"/>
       </defs>
       <use xlink:href="#DejaVuSans-32"/>
       <use xlink:href="#DejaVuSans-30" x="63.623047"/>
       <use xlink:href="#DejaVuSans-31" x="127.246094"/>
       <use xlink:href="#DejaVuSans-36" x="190.869141"/>
       <use xlink:href="#DejaVuSans-2d" x="254.492188"/>
       <use xlink:href="#DejaVuSans-30" x="290.576172"/>
       <use xlink:href="#DejaVuSans-38" x="354.199219"/>
       <use xlink:href="#DejaVuSans-2d" x="417.822266"/>
       <use xlink:href="#DejaVuSans-32" x="453.90625"/>
       <use xlink:href="#DejaVuSans-32" x="517.529297"/>
      </g>
     </g>
    </g>
    <g id="xtick_2">
     <g id="line2d_3">
      <path d="M 210.261539 309.840312 
L 210.261539 24.14175 
" clip-path="url(#p72abb64d6e)" style="fill: none; stroke: #cccccc; stroke-linecap: round"/>
     </g>
     <g id="line2d_4">
      <g>
       <use xlink:href="#m2b673248f8" x="210.261539" y="309.840312" style="fill: #262626; stroke: #262626; stroke-width: 1.25"/>
      </g>
     </g>
     <g id="text_2">
      <!-- 2017-06-08 -->
      <g style="fill: #262626" transform="translate(178.297945 327.698594)scale(0.11 -0.11)">
       <defs>
        <path id="DejaVuSans-37" d="M 525 4666 
L 3525 4666 
L 3525 4397 
L 1831 0 
L 1172 0 
L 2766 4134 
L 525 4134 
L 525 4666 
z
" transform="scale(0.015625)"/>
       </defs>
       <use xlink:href="#DejaVuSans-32"/>
       <use xlink:href="#DejaVuSans-30" x="63.623047"/>
       <use xlink:href="#DejaVuSans-31" x="127.246094"/>
       <use xlink:href="#DejaVuSans-37" x="190.869141"/>
       <use xlink:href="#DejaVuSans-2d" x="254.492188"/>
       <use xlink:href="#DejaVuSans-30" x="290.576172"/>
       <use xlink:href="#DejaVuSans-36" x="354.199219"/>
       <use xlink:href="#DejaVuSans-2d" x="417.822266"/>
       <use xlink:href="#DejaVuSans-30" x="453.90625"/>
       <use xlink:href="#DejaVuSans-38" x="517.529297"/>
      </g>
     </g>
    </g>
    <g id="xtick_3">
     <g id="line2d_5">
      <path d="M 324.337453 309.840312 
L 324.337453 24.14175 
" clip-path="url(#p72abb64d6e)" style="fill: none; stroke: #cccccc; stroke-linecap: round"/>
     </g>
     <g id="line2d_6">
      <g>
       <use xlink:href="#m2b673248f8" x="324.337453" y="309.840312" style="fill: #262626; stroke: #262626; stroke-width: 1.25"/>
      </g>
     </g>
     <g id="text_3">
      <!-- 2018-03-26 -->
      <g style="fill: #262626" transform="translate(292.37386 327.698594)scale(0.11 -0.11)">
       <defs>
        <path id="DejaVuSans-33" d="M 2597 2516 
Q 3050 2419 3304 2112 
Q 3559 1806 3559 1356 
Q 3559 666 3084 287 
Q 2609 -91 1734 -91 
Q 1441 -91 1130 -33 
Q 819 25 488 141 
L 488 750 
Q 750 597 1062 519 
Q 1375 441 1716 441 
Q 2309 441 2620 675 
Q 2931 909 2931 1356 
Q 2931 1769 2642 2001 
Q 2353 2234 1838 2234 
L 1294 2234 
L 1294 2753 
L 1863 2753 
Q 2328 2753 2575 2939 
Q 2822 3125 2822 3475 
Q 2822 3834 2567 4026 
Q 2313 4219 1838 4219 
Q 1578 4219 1281 4162 
Q 984 4106 628 3988 
L 628 4550 
Q 988 4650 1302 4700 
Q 1616 4750 1894 4750 
Q 2613 4750 3031 4423 
Q 3450 4097 3450 3541 
Q 3450 3153 3228 2886 
Q 3006 2619 2597 2516 
z
" transform="scale(0.015625)"/>
       </defs>
       <use xlink:href="#DejaVuSans-32"/>
       <use xlink:href="#DejaVuSans-30" x="63.623047"/>
       <use xlink:href="#DejaVuSans-31" x="127.246094"/>
       <use xlink:href="#DejaVuSans-38" x="190.869141"/>
       <use xlink:href="#DejaVuSans-2d" x="254.492188"/>
       <use xlink:href="#DejaVuSans-30" x="290.576172"/>
       <use xlink:href="#DejaVuSans-33" x="354.199219"/>
       <use xlink:href="#DejaVuSans-2d" x="417.822266"/>
       <use xlink:href="#DejaVuSans-32" x="453.90625"/>
       <use xlink:href="#DejaVuSans-36" x="517.529297"/>
      </g>
     </g>
    </g>
    <g id="xtick_4">
     <g id="line2d_7">
      <path d="M 438.413367 309.840312 
L 438.413367 24.14175 
" clip-path="url(#p72abb64d6e)" style="fill: none; stroke: #cccccc; stroke-linecap: round"/>
     </g>
     <g id="line2d_8">
      <g>
       <use xlink:href="#m2b673248f8" x="438.413367" y="309.840312" style="fill: #262626; stroke: #262626; stroke-width: 1.25"/>
      </g>
     </g>
     <g id="text_4">
      <!-- 2019-01-10 -->
      <g style="fill: #262626" transform="translate(406.449774 327.698594)scale(0.11 -0.11)">
       <defs>
        <path id="DejaVuSans-39" d="M 703 97 
L 703 672 
Q 941 559 1184 500 
Q 1428 441 1663 441 
Q 2288 441 2617 861 
Q 2947 1281 2994 2138 
Q 2813 1869 2534 1725 
Q 2256 1581 1919 1581 
Q 1219 1581 811 2004 
Q 403 2428 403 3163 
Q 403 3881 828 4315 
Q 1253 4750 1959 4750 
Q 2769 4750 3195 4129 
Q 3622 3509 3622 2328 
Q 3622 1225 3098 567 
Q 2575 -91 1691 -91 
Q 1453 -91 1209 -44 
Q 966 3 703 97 
z
M 1959 2075 
Q 2384 2075 2632 2365 
Q 2881 2656 2881 3163 
Q 2881 3666 2632 3958 
Q 2384 4250 1959 4250 
Q 1534 4250 1286 3958 
Q 1038 3666 1038 3163 
Q 1038 2656 1286 2365 
Q 1534 2075 1959 2075 
z
" transform="scale(0.015625)"/>
       </defs>
       <use xlink:href="#DejaVuSans-32"/>
       <use xlink:href="#DejaVuSans-30" x="63.623047"/>
       <use xlink:href="#DejaVuSans-31" x="127.246094"/>
       <use xlink:href="#DejaVuSans-39" x="190.869141"/>
       <use xlink:href="#DejaVuSans-2d" x="254.492188"/>
       <use xlink:href="#DejaVuSans-30" x="290.576172"/>
       <use xlink:href="#DejaVuSans-31" x="354.199219"/>
       <use xlink:href="#DejaVuSans-2d" x="417.822266"/>
       <use xlink:href="#DejaVuSans-31" x="453.90625"/>
       <use xlink:href="#DejaVuSans-30" x="517.529297"/>
      </g>
     </g>
    </g>
    <g id="xtick_5">
     <g id="line2d_9">
      <path d="M 552.489282 309.840312 
L 552.489282 24.14175 
" clip-path="url(#p72abb64d6e)" style="fill: none; stroke: #cccccc; stroke-linecap: round"/>
     </g>
     <g id="line2d_10">
      <g>
       <use xlink:href="#m2b673248f8" x="552.489282" y="309.840312" style="fill: #262626; stroke: #262626; stroke-width: 1.25"/>
      </g>
     </g>
     <g id="text_5">
      <!-- 2019-10-25 -->
      <g style="fill: #262626" transform="translate(520.525688 327.698594)scale(0.11 -0.11)">
       <defs>
        <path id="DejaVuSans-35" d="M 691 4666 
L 3169 4666 
L 3169 4134 
L 1269 4134 
L 1269 2991 
Q 1406 3038 1543 3061 
Q 1681 3084 1819 3084 
Q 2600 3084 3056 2656 
Q 3513 2228 3513 1497 
Q 3513 744 3044 326 
Q 2575 -91 1722 -91 
Q 1428 -91 1123 -41 
Q 819 9 494 109 
L 494 744 
Q 775 591 1075 516 
Q 1375 441 1709 441 
Q 2250 441 2565 725 
Q 2881 1009 2881 1497 
Q 2881 1984 2565 2268 
Q 2250 2553 1709 2553 
Q 1456 2553 1204 2497 
Q 953 2441 691 2322 
L 691 4666 
z
" transform="scale(0.015625)"/>
       </defs>
       <use xlink:href="#DejaVuSans-32"/>
       <use xlink:href="#DejaVuSans-30" x="63.623047"/>
       <use xlink:href="#DejaVuSans-31" x="127.246094"/>
       <use xlink:href="#DejaVuSans-39" x="190.869141"/>
       <use xlink:href="#DejaVuSans-2d" x="254.492188"/>
       <use xlink:href="#DejaVuSans-31" x="290.576172"/>
       <use xlink:href="#DejaVuSans-30" x="354.199219"/>
       <use xlink:href="#DejaVuSans-2d" x="417.822266"/>
       <use xlink:href="#DejaVuSans-32" x="453.90625"/>
       <use xlink:href="#DejaVuSans-35" x="517.529297"/>
      </g>
     </g>
    </g>
    <g id="xtick_6">
     <g id="line2d_11">
      <path d="M 666.565196 309.840312 
L 666.565196 24.14175 
" clip-path="url(#p72abb64d6e)" style="fill: none; stroke: #cccccc; stroke-linecap: round"/>
     </g>
     <g id="line2d_12">
      <g>
       <use xlink:href="#m2b673248f8" x="666.565196" y="309.840312" style="fill: #262626; stroke: #262626; stroke-width: 1.25"/>
      </g>
     </g>
     <g id="text_6">
      <!-- 2020-08-12 -->
      <g style="fill: #262626" transform="translate(634.601602 327.698594)scale(0.11 -0.11)">
       <use xlink:href="#DejaVuSans-32"/>
       <use xlink:href="#DejaVuSans-30" x="63.623047"/>
       <use xlink:href="#DejaVuSans-32" x="127.246094"/>
       <use xlink:href="#DejaVuSans-30" x="190.869141"/>
       <use xlink:href="#DejaVuSans-2d" x="254.492188"/>
       <use xlink:href="#DejaVuSans-30" x="290.576172"/>
       <use xlink:href="#DejaVuSans-38" x="354.199219"/>
       <use xlink:href="#DejaVuSans-2d" x="417.822266"/>
       <use xlink:href="#DejaVuSans-31" x="453.90625"/>
       <use xlink:href="#DejaVuSans-32" x="517.529297"/>
      </g>
     </g>
    </g>
    <g id="xtick_7">
     <g id="line2d_13">
      <path d="M 780.64111 309.840312 
L 780.64111 24.14175 
" clip-path="url(#p72abb64d6e)" style="fill: none; stroke: #cccccc; stroke-linecap: round"/>
     </g>
     <g id="line2d_14">
      <g>
       <use xlink:href="#m2b673248f8" x="780.64111" y="309.840312" style="fill: #262626; stroke: #262626; stroke-width: 1.25"/>
      </g>
     </g>
     <g id="text_7">
      <!-- 2021-05-28 -->
      <g style="fill: #262626" transform="translate(748.677516 327.698594)scale(0.11 -0.11)">
       <use xlink:href="#DejaVuSans-32"/>
       <use xlink:href="#DejaVuSans-30" x="63.623047"/>
       <use xlink:href="#DejaVuSans-32" x="127.246094"/>
       <use xlink:href="#DejaVuSans-31" x="190.869141"/>
       <use xlink:href="#DejaVuSans-2d" x="254.492188"/>
       <use xlink:href="#DejaVuSans-30" x="290.576172"/>
       <use xlink:href="#DejaVuSans-35" x="354.199219"/>
       <use xlink:href="#DejaVuSans-2d" x="417.822266"/>
       <use xlink:href="#DejaVuSans-32" x="453.90625"/>
       <use xlink:href="#DejaVuSans-38" x="517.529297"/>
      </g>
     </g>
    </g>
    <g id="text_8">
     <!-- date -->
     <g style="fill: #262626" transform="translate(441.424375 343.104375)scale(0.12 -0.12)">
      <defs>
       <path id="DejaVuSans-64" d="M 2906 2969 
L 2906 4863 
L 3481 4863 
L 3481 0 
L 2906 0 
L 2906 525 
Q 2725 213 2448 61 
Q 2172 -91 1784 -91 
Q 1150 -91 751 415 
Q 353 922 353 1747 
Q 353 2572 751 3078 
Q 1150 3584 1784 3584 
Q 2172 3584 2448 3432 
Q 2725 3281 2906 2969 
z
M 947 1747 
Q 947 1113 1208 752 
Q 1469 391 1925 391 
Q 2381 391 2643 752 
Q 2906 1113 2906 1747 
Q 2906 2381 2643 2742 
Q 2381 3103 1925 3103 
Q 1469 3103 1208 2742 
Q 947 2381 947 1747 
z
" transform="scale(0.015625)"/>
       <path id="DejaVuSans-61" d="M 2194 1759 
Q 1497 1759 1228 1600 
Q 959 1441 959 1056 
Q 959 750 1161 570 
Q 1363 391 1709 391 
Q 2188 391 2477 730 
Q 2766 1069 2766 1631 
L 2766 1759 
L 2194 1759 
z
M 3341 1997 
L 3341 0 
L 2766 0 
L 2766 531 
Q 2569 213 2275 61 
Q 1981 -91 1556 -91 
Q 1019 -91 701 211 
Q 384 513 384 1019 
Q 384 1609 779 1909 
Q 1175 2209 1959 2209 
L 2766 2209 
L 2766 2266 
Q 2766 2663 2505 2880 
Q 2244 3097 1772 3097 
Q 1472 3097 1187 3025 
Q 903 2953 641 2809 
L 641 3341 
Q 956 3463 1253 3523 
Q 1550 3584 1831 3584 
Q 2591 3584 2966 3190 
Q 3341 2797 3341 1997 
z
" transform="scale(0.015625)"/>
       <path id="DejaVuSans-74" d="M 1172 4494 
L 1172 3500 
L 2356 3500 
L 2356 3053 
L 1172 3053 
L 1172 1153 
Q 1172 725 1289 603 
Q 1406 481 1766 481 
L 2356 481 
L 2356 0 
L 1766 0 
Q 1100 0 847 248 
Q 594 497 594 1153 
L 594 3053 
L 172 3053 
L 172 3500 
L 594 3500 
L 594 4494 
L 1172 4494 
z
" transform="scale(0.015625)"/>
       <path id="DejaVuSans-65" d="M 3597 1894 
L 3597 1613 
L 953 1613 
Q 991 1019 1311 708 
Q 1631 397 2203 397 
Q 2534 397 2845 478 
Q 3156 559 3463 722 
L 3463 178 
Q 3153 47 2828 -22 
Q 2503 -91 2169 -91 
Q 1331 -91 842 396 
Q 353 884 353 1716 
Q 353 2575 817 3079 
Q 1281 3584 2069 3584 
Q 2775 3584 3186 3129 
Q 3597 2675 3597 1894 
z
M 3022 2063 
Q 3016 2534 2758 2815 
Q 2500 3097 2075 3097 
Q 1594 3097 1305 2825 
Q 1016 2553 972 2059 
L 3022 2063 
z
" transform="scale(0.015625)"/>
      </defs>
      <use xlink:href="#DejaVuSans-64"/>
      <use xlink:href="#DejaVuSans-61" x="63.476562"/>
      <use xlink:href="#DejaVuSans-74" x="124.755859"/>
      <use xlink:href="#DejaVuSans-65" x="163.964844"/>
     </g>
    </g>
   </g>
   <g id="matplotlib.axis_2">
    <g id="ytick_1">
     <g id="line2d_15">
      <path d="M 60.30875 260.956855 
L 849.6 260.956855 
" clip-path="url(#p72abb64d6e)" style="fill: none; stroke: #cccccc; stroke-linecap: round"/>
     </g>
     <g id="line2d_16">
      <defs>
       <path id="mdfd3c6a248" d="M 0 0 
L -6 0 
" style="stroke: #262626; stroke-width: 1.25"/>
      </defs>
      <g>
       <use xlink:href="#mdfd3c6a248" x="60.30875" y="260.956855" style="fill: #262626; stroke: #262626; stroke-width: 1.25"/>
      </g>
     </g>
     <g id="text_9">
      <!-- 400 -->
      <g style="fill: #262626" transform="translate(29.8125 265.135995)scale(0.11 -0.11)">
       <defs>
        <path id="DejaVuSans-34" d="M 2419 4116 
L 825 1625 
L 2419 1625 
L 2419 4116 
z
M 2253 4666 
L 3047 4666 
L 3047 1625 
L 3713 1625 
L 3713 1100 
L 3047 1100 
L 3047 0 
L 2419 0 
L 2419 1100 
L 313 1100 
L 313 1709 
L 2253 4666 
z
" transform="scale(0.015625)"/>
       </defs>
       <use xlink:href="#DejaVuSans-34"/>
       <use xlink:href="#DejaVuSans-30" x="63.623047"/>
       <use xlink:href="#DejaVuSans-30" x="127.246094"/>
      </g>
     </g>
    </g>
    <g id="ytick_2">
     <g id="line2d_17">
      <path d="M 60.30875 210.653397 
L 849.6 210.653397 
" clip-path="url(#p72abb64d6e)" style="fill: none; stroke: #cccccc; stroke-linecap: round"/>
     </g>
     <g id="line2d_18">
      <g>
       <use xlink:href="#mdfd3c6a248" x="60.30875" y="210.653397" style="fill: #262626; stroke: #262626; stroke-width: 1.25"/>
      </g>
     </g>
     <g id="text_10">
      <!-- 600 -->
      <g style="fill: #262626" transform="translate(29.8125 214.832538)scale(0.11 -0.11)">
       <use xlink:href="#DejaVuSans-36"/>
       <use xlink:href="#DejaVuSans-30" x="63.623047"/>
       <use xlink:href="#DejaVuSans-30" x="127.246094"/>
      </g>
     </g>
    </g>
    <g id="ytick_3">
     <g id="line2d_19">
      <path d="M 60.30875 160.349939 
L 849.6 160.349939 
" clip-path="url(#p72abb64d6e)" style="fill: none; stroke: #cccccc; stroke-linecap: round"/>
     </g>
     <g id="line2d_20">
      <g>
       <use xlink:href="#mdfd3c6a248" x="60.30875" y="160.349939" style="fill: #262626; stroke: #262626; stroke-width: 1.25"/>
      </g>
     </g>
     <g id="text_11">
      <!-- 800 -->
      <g style="fill: #262626" transform="translate(29.8125 164.52908)scale(0.11 -0.11)">
       <use xlink:href="#DejaVuSans-38"/>
       <use xlink:href="#DejaVuSans-30" x="63.623047"/>
       <use xlink:href="#DejaVuSans-30" x="127.246094"/>
      </g>
     </g>
    </g>
    <g id="ytick_4">
     <g id="line2d_21">
      <path d="M 60.30875 110.046482 
L 849.6 110.046482 
" clip-path="url(#p72abb64d6e)" style="fill: none; stroke: #cccccc; stroke-linecap: round"/>
     </g>
     <g id="line2d_22">
      <g>
       <use xlink:href="#mdfd3c6a248" x="60.30875" y="110.046482" style="fill: #262626; stroke: #262626; stroke-width: 1.25"/>
      </g>
     </g>
     <g id="text_12">
      <!-- 1000 -->
      <g style="fill: #262626" transform="translate(22.81375 114.225622)scale(0.11 -0.11)">
       <use xlink:href="#DejaVuSans-31"/>
       <use xlink:href="#DejaVuSans-30" x="63.623047"/>
       <use xlink:href="#DejaVuSans-30" x="127.246094"/>
       <use xlink:href="#DejaVuSans-30" x="190.869141"/>
      </g>
     </g>
    </g>
    <g id="ytick_5">
     <g id="line2d_23">
      <path d="M 60.30875 59.743024 
L 849.6 59.743024 
" clip-path="url(#p72abb64d6e)" style="fill: none; stroke: #cccccc; stroke-linecap: round"/>
     </g>
     <g id="line2d_24">
      <g>
       <use xlink:href="#mdfd3c6a248" x="60.30875" y="59.743024" style="fill: #262626; stroke: #262626; stroke-width: 1.25"/>
      </g>
     </g>
     <g id="text_13">
      <!-- 1200 -->
      <g style="fill: #262626" transform="translate(22.81375 63.922165)scale(0.11 -0.11)">
       <use xlink:href="#DejaVuSans-31"/>
       <use xlink:href="#DejaVuSans-32" x="63.623047"/>
       <use xlink:href="#DejaVuSans-30" x="127.246094"/>
       <use xlink:href="#DejaVuSans-30" x="190.869141"/>
      </g>
     </g>
    </g>
    <g id="text_14">
     <!-- $W(t)$ -->
     <g style="fill: #262626" transform="translate(16.318125 180.011031)rotate(-90)scale(0.12 -0.12)">
      <defs>
       <path id="DejaVuSans-Oblique-57" d="M 616 4666 
L 1228 4666 
L 1453 697 
L 3213 4666 
L 3916 4666 
L 4147 697 
L 5888 4666 
L 6528 4666 
L 4453 0 
L 3659 0 
L 3444 3891 
L 1697 0 
L 903 0 
L 616 4666 
z
" transform="scale(0.015625)"/>
       <path id="DejaVuSans-28" d="M 1984 4856 
Q 1566 4138 1362 3434 
Q 1159 2731 1159 2009 
Q 1159 1288 1364 580 
Q 1569 -128 1984 -844 
L 1484 -844 
Q 1016 -109 783 600 
Q 550 1309 550 2009 
Q 550 2706 781 3412 
Q 1013 4119 1484 4856 
L 1984 4856 
z
" transform="scale(0.015625)"/>
       <path id="DejaVuSans-Oblique-74" d="M 2706 3500 
L 2619 3053 
L 1472 3053 
L 1100 1153 
Q 1081 1047 1072 975 
Q 1063 903 1063 863 
Q 1063 663 1183 572 
Q 1303 481 1569 481 
L 2150 481 
L 2053 0 
L 1503 0 
Q 991 0 739 200 
Q 488 400 488 806 
Q 488 878 497 964 
Q 506 1050 525 1153 
L 897 3053 
L 409 3053 
L 500 3500 
L 978 3500 
L 1172 4494 
L 1747 4494 
L 1556 3500 
L 2706 3500 
z
" transform="scale(0.015625)"/>
       <path id="DejaVuSans-29" d="M 513 4856 
L 1013 4856 
Q 1481 4119 1714 3412 
Q 1947 2706 1947 2009 
Q 1947 1309 1714 600 
Q 1481 -109 1013 -844 
L 513 -844 
Q 928 -128 1133 580 
Q 1338 1288 1338 2009 
Q 1338 2731 1133 3434 
Q 928 4138 513 4856 
z
" transform="scale(0.015625)"/>
      </defs>
      <use xlink:href="#DejaVuSans-Oblique-57" transform="translate(0 0.125)"/>
      <use xlink:href="#DejaVuSans-28" transform="translate(98.876953 0.125)"/>
      <use xlink:href="#DejaVuSans-Oblique-74" transform="translate(137.890625 0.125)"/>
      <use xlink:href="#DejaVuSans-29" transform="translate(177.099609 0.125)"/>
     </g>
    </g>
   </g>
   <g id="line2d_25">
    <path d="M 96.185625 294.595826 
L 96.756005 294.312005 
L 97.326384 294.737585 
L 97.896764 294.53627 
L 98.467143 293.869496 
L 99.037523 293.73611 
L 99.607902 294.012272 
L 100.748662 293.803712 
L 101.319041 293.585594 
L 101.889421 292.374361 
L 102.4598 292.651864 
L 103.03018 292.715911 
L 103.600559 294.663165 
L 104.170939 293.675967 
L 104.741319 294.528419 
L 105.311698 294.544809 
L 106.452457 293.230104 
L 107.022837 293.544006 
L 107.593216 293.12307 
L 108.163596 292.303794 
L 108.733976 291.1254 
L 109.304355 291.073405 
L 109.874735 291.629729 
L 110.445114 290.333427 
L 111.015494 289.36574 
L 111.585873 289.548119 
L 112.156253 288.870822 
L 112.726633 289.032858 
L 113.297012 289.066139 
L 113.867392 288.259119 
L 115.008151 288.536651 
L 115.57853 288.276331 
L 116.14891 289.183614 
L 116.71929 288.951765 
L 117.860049 289.751308 
L 118.430428 290.510478 
L 119.000808 290.104641 
L 119.571187 290.184167 
L 120.141567 290.79512 
L 120.711947 289.916103 
L 121.282326 288.231116 
L 121.852706 288.482952 
L 122.423085 289.481536 
L 122.993465 289.81176 
L 123.563844 292.427372 
L 124.134224 291.353698 
L 124.704604 291.705834 
L 125.274983 293.271041 
L 125.845363 293.285501 
L 126.415742 294.189018 
L 126.986122 291.762168 
L 127.556501 291.605184 
L 128.126881 292.743084 
L 128.697261 295.045013 
L 129.26764 295.154045 
L 129.83802 296.854014 
L 130.408399 294.97474 
L 130.978779 294.532835 
L 131.549158 293.683677 
L 132.119538 293.459766 
L 132.689918 291.936661 
L 133.260297 291.477653 
L 133.830677 291.947679 
L 134.401056 291.91876 
L 134.971436 292.97734 
L 135.541815 293.23289 
L 136.112195 294.231415 
L 136.682575 294.92153 
L 137.252954 295.143139 
L 137.823334 293.567399 
L 138.964093 292.549042 
L 139.534472 292.730695 
L 140.104852 292.512557 
L 140.675232 293.097189 
L 141.245611 291.887675 
L 142.38637 292.968507 
L 142.95675 293.261131 
L 143.527129 292.443916 
L 144.097509 292.049837 
L 144.667889 292.18855 
L 145.808648 292.930254 
L 146.379027 292.123783 
L 146.949407 292.209689 
L 147.519786 292.703283 
L 148.090166 293.933802 
L 149.230925 293.368691 
L 149.801305 291.624338 
L 150.371684 290.433764 
L 151.512443 290.405743 
L 152.082823 290.106146 
L 152.653203 289.122729 
L 153.223582 288.773035 
L 153.793962 289.395107 
L 154.364341 289.519119 
L 155.5051 289.457784 
L 156.07548 288.645138 
L 156.645859 288.313554 
L 157.216239 287.240389 
L 157.786619 287.04032 
L 158.356998 287.175454 
L 159.497757 288.148168 
L 160.638516 287.275526 
L 161.208896 289.274765 
L 161.779276 289.587776 
L 162.349655 289.302097 
L 162.920035 288.793933 
L 163.490414 288.527926 
L 164.060794 288.111526 
L 164.631173 287.310144 
L 165.201553 287.270998 
L 165.771933 286.779353 
L 166.912692 286.629013 
L 167.483071 285.725653 
L 168.053451 285.826316 
L 168.62383 286.089762 
L 169.19421 286.566464 
L 169.76459 286.353794 
L 170.334969 286.708198 
L 170.905349 285.939425 
L 171.475728 286.443301 
L 172.046108 286.344 
L 172.616487 286.639557 
L 173.186867 286.676907 
L 173.757247 286.25411 
L 174.327626 286.143888 
L 174.898006 286.174107 
L 175.468385 285.991323 
L 176.038765 286.18089 
L 177.179524 286.007171 
L 177.749904 286.051171 
L 178.320283 285.673181 
L 178.890663 286.88668 
L 179.461042 286.456589 
L 180.601801 286.670991 
L 181.172181 286.546402 
L 181.742561 285.802089 
L 182.31294 284.444946 
L 182.88332 284.262743 
L 183.453699 283.521473 
L 184.024079 283.201313 
L 184.594458 282.086425 
L 185.164838 281.991683 
L 185.735218 282.795162 
L 186.305597 283.069886 
L 186.875977 282.150077 
L 187.446356 282.49115 
L 188.016736 283.007312 
L 188.587115 283.947674 
L 189.157495 282.55382 
L 189.727875 282.409295 
L 190.298254 282.770986 
L 190.868634 282.436314 
L 191.439013 282.615848 
L 192.009393 281.754519 
L 193.150152 281.524157 
L 193.720532 280.829787 
L 194.290911 280.392496 
L 194.861291 278.536489 
L 195.43167 278.718964 
L 196.00205 279.181668 
L 197.142809 279.58481 
L 197.713189 278.443297 
L 198.283568 278.242551 
L 199.424327 278.703365 
L 199.994707 277.73274 
L 200.565086 277.931655 
L 201.135466 277.228132 
L 201.705846 279.14149 
L 202.276225 278.084831 
L 202.846605 277.99163 
L 203.416984 277.075588 
L 203.987364 277.073563 
L 204.557743 276.431859 
L 205.128123 275.402516 
L 206.268882 275.046138 
L 206.839262 275.280266 
L 207.409641 275.056533 
L 207.980021 274.009728 
L 208.5504 273.750204 
L 209.12078 274.360502 
L 209.69116 273.856359 
L 210.261539 273.83654 
L 210.831919 276.504855 
L 211.402298 277.568363 
L 211.972678 276.284154 
L 212.543057 276.621237 
L 213.113437 277.580324 
L 213.683817 275.887927 
L 214.254196 275.211146 
L 214.824576 275.494498 
L 215.394955 274.710191 
L 215.965335 274.778359 
L 216.535714 274.485339 
L 217.106094 275.27426 
L 217.676474 276.680449 
L 218.246853 275.509383 
L 218.817233 276.711578 
L 219.387612 277.170637 
L 219.957992 278.434902 
L 220.528371 277.09655 
L 221.098751 277.671706 
L 222.23951 275.187674 
L 222.80989 275.336022 
L 223.380269 274.224209 
L 223.950649 274.613194 
L 224.521028 274.435468 
L 225.091408 273.742513 
L 225.661788 272.615327 
L 226.232167 272.341749 
L 226.802547 272.192656 
L 227.372926 272.480707 
L 227.943306 271.421374 
L 228.513685 271.269286 
L 229.084065 270.359544 
L 229.654445 271.044816 
L 230.224824 274.26336 
L 230.795204 276.80015 
L 231.365583 276.137713 
L 231.935963 276.115494 
L 232.506342 276.861435 
L 233.647102 276.444782 
L 234.217481 276.582696 
L 234.787861 277.197091 
L 235.35824 279.277884 
L 235.92862 278.299744 
L 236.498999 277.04666 
L 237.069379 277.110451 
L 237.639759 277.404818 
L 238.210138 278.886364 
L 238.780518 279.074795 
L 239.350897 279.509448 
L 239.921277 278.35882 
L 240.491656 279.062641 
L 241.632416 279.977393 
L 242.202795 279.886852 
L 242.773175 279.251288 
L 243.913934 277.06826 
L 244.484313 277.337757 
L 245.054693 278.345241 
L 245.625073 278.188174 
L 246.195452 277.245342 
L 246.765832 278.304774 
L 247.336211 277.313045 
L 247.906591 276.98454 
L 248.47697 275.608397 
L 249.04735 276.264204 
L 249.61773 276.67038 
L 250.188109 277.640096 
L 250.758489 277.928047 
L 251.328868 277.783092 
L 252.469627 279.220704 
L 253.040007 280.491045 
L 253.610387 280.530657 
L 254.180766 279.489688 
L 255.321525 278.652318 
L 256.462284 278.939536 
L 257.032664 278.254157 
L 257.603044 276.973579 
L 258.173423 276.331167 
L 258.743803 276.171844 
L 259.314182 276.440728 
L 260.454941 275.322423 
L 262.16608 274.561218 
L 263.306839 276.229903 
L 263.877219 276.36446 
L 264.447598 277.574905 
L 265.017978 276.857828 
L 265.588358 277.08608 
L 266.158737 277.012868 
L 266.729117 267.074509 
L 267.299496 266.435211 
L 267.869876 266.979758 
L 268.440255 267.061896 
L 269.010635 267.659792 
L 269.581015 266.340804 
L 270.151394 265.609767 
L 270.721774 265.456684 
L 271.292153 264.684817 
L 272.432912 265.346765 
L 273.003292 265.105133 
L 273.573672 264.54134 
L 274.144051 265.44295 
L 274.714431 264.593116 
L 275.28481 265.217535 
L 275.85519 265.443852 
L 276.995949 263.075447 
L 277.566328 260.889776 
L 278.136708 260.152234 
L 278.707088 260.171992 
L 279.277467 262.769787 
L 279.847847 261.524345 
L 280.418226 262.61905 
L 280.988606 265.023323 
L 281.558985 264.435924 
L 282.129365 263.538616 
L 283.840504 262.055969 
L 284.410883 262.345949 
L 284.981263 262.418912 
L 286.122022 261.156311 
L 286.692402 260.307559 
L 287.262781 260.597906 
L 287.833161 261.335701 
L 288.40354 261.575447 
L 288.97392 262.085625 
L 290.114679 261.121805 
L 290.685059 260.829995 
L 291.255438 262.088947 
L 291.825818 260.574803 
L 292.396197 259.413343 
L 292.966577 258.861748 
L 294.107336 255.971395 
L 294.677716 255.563273 
L 295.248095 255.476758 
L 295.818475 253.76569 
L 296.388854 251.474679 
L 296.959234 251.677925 
L 297.529613 252.140307 
L 298.099993 252.28461 
L 298.670373 252.156554 
L 299.811132 247.083099 
L 300.381511 247.513171 
L 300.951891 246.036791 
L 301.52227 244.087441 
L 302.09265 243.0039 
L 303.233409 240.487417 
L 303.803789 244.953041 
L 304.374168 242.481493 
L 304.944548 245.93871 
L 305.514927 241.632947 
L 306.085307 243.735519 
L 306.655687 249.139621 
L 307.226066 249.613331 
L 307.796446 245.986263 
L 308.366825 243.793118 
L 308.937205 240.961512 
L 309.507584 239.868844 
L 310.077964 240.902758 
L 310.648344 239.393408 
L 311.218723 238.502599 
L 311.789103 238.26837 
L 312.359482 236.908009 
L 312.929862 235.13583 
L 313.500241 236.061552 
L 314.070621 236.265581 
L 314.641001 237.890056 
L 315.21138 237.318537 
L 315.78176 235.319624 
L 316.352139 234.358829 
L 317.492898 233.1794 
L 318.063278 230.902957 
L 318.633658 229.444645 
L 319.204037 230.480272 
L 319.774417 230.394428 
L 320.344796 230.990774 
L 320.915176 231.771735 
L 321.485555 233.952013 
L 322.055935 230.906729 
L 322.626315 231.360144 
L 323.196694 234.351898 
L 323.767074 238.289441 
L 324.337453 233.0996 
L 325.478212 242.762991 
L 326.048592 241.360231 
L 326.618972 247.231337 
L 327.759731 243.93691 
L 328.33011 240.900738 
L 328.90049 244.606737 
L 329.470869 244.480069 
L 330.041249 241.975161 
L 330.611629 242.726125 
L 331.182008 240.945206 
L 331.752388 242.260628 
L 332.322767 241.29759 
L 332.893147 236.476836 
L 334.033906 232.687848 
L 334.604286 235.100647 
L 335.174665 235.771649 
L 335.745045 240.264448 
L 336.315424 240.300897 
L 337.456183 231.902989 
L 338.026563 232.556865 
L 338.596943 231.094344 
L 339.167322 232.08616 
L 339.737702 231.881283 
L 340.308081 231.009953 
L 340.878461 229.495157 
L 341.44884 230.061096 
L 342.01922 228.804254 
L 342.5896 228.60378 
L 343.159979 229.115914 
L 343.730359 229.243819 
L 344.300738 231.178664 
L 344.871118 230.327356 
L 346.011877 231.318314 
L 346.582257 230.383569 
L 347.152636 230.706407 
L 347.723016 229.074019 
L 348.293395 229.00223 
L 348.863775 228.482846 
L 349.434154 228.367936 
L 350.004534 227.322329 
L 350.574914 227.068106 
L 351.145293 225.935522 
L 351.715673 224.080181 
L 352.286052 221.742257 
L 352.856432 221.734227 
L 353.426811 222.426258 
L 353.997191 222.754815 
L 354.567571 222.41739 
L 355.13795 221.639185 
L 355.70833 221.25625 
L 356.278709 219.802149 
L 356.849089 220.491617 
L 357.989848 219.065913 
L 358.560228 217.851733 
L 359.130607 219.45211 
L 359.700987 220.627469 
L 360.271366 224.754185 
L 360.841746 222.600088 
L 361.412125 225.108072 
L 361.982505 221.941198 
L 362.552885 222.056116 
L 363.123264 220.819118 
L 363.693644 222.343597 
L 364.264023 221.771585 
L 364.834403 220.780403 
L 365.404782 218.605476 
L 365.975162 218.291017 
L 366.545542 217.485225 
L 367.115921 214.135953 
L 367.686301 212.822901 
L 368.25668 212.207686 
L 368.82706 210.544884 
L 369.397439 210.691853 
L 369.967819 212.881795 
L 370.538199 212.700224 
L 371.108578 213.402304 
L 371.678958 211.459097 
L 372.249337 208.556783 
L 372.819717 212.67903 
L 373.390096 212.462791 
L 373.960476 215.515593 
L 374.530856 215.508105 
L 375.101235 213.85811 
L 375.671615 210.837016 
L 376.241994 211.628234 
L 376.812374 209.765849 
L 377.382753 208.622245 
L 377.953133 206.805613 
L 378.523513 205.846918 
L 379.093892 206.776343 
L 379.664272 206.139584 
L 380.234651 204.246857 
L 380.805031 207.17329 
L 381.37541 206.840826 
L 381.94579 207.148767 
L 382.51617 207.612064 
L 383.086549 207.217152 
L 383.656929 205.529633 
L 384.227308 205.611926 
L 384.797688 205.126694 
L 385.368067 203.431914 
L 385.938447 202.944104 
L 386.508827 197.974005 
L 387.079206 197.661333 
L 387.649586 196.790548 
L 388.219965 194.929286 
L 388.790345 198.608986 
L 389.360724 201.285927 
L 389.931104 201.823838 
L 390.501484 202.629927 
L 391.071863 198.840708 
L 392.212622 198.441729 
L 392.783002 199.818971 
L 393.353381 204.594816 
L 393.923761 202.001681 
L 394.494141 203.27769 
L 395.06452 201.767439 
L 395.6349 203.843284 
L 396.205279 202.374636 
L 396.775659 199.47167 
L 397.346038 199.663285 
L 397.916418 196.812722 
L 398.486797 197.53114 
L 399.057177 197.395425 
L 399.627557 199.928302 
L 400.197936 201.215456 
L 400.768316 204.711622 
L 401.338695 206.276535 
L 401.909075 208.260328 
L 402.479454 207.650865 
L 403.049834 216.887255 
L 403.620214 219.545247 
L 404.190593 214.022535 
L 404.760973 216.277175 
L 405.331352 211.490756 
L 405.901732 210.692392 
L 406.472111 215.482726 
L 407.042491 215.96022 
L 407.612871 213.975969 
L 408.18325 215.626398 
L 408.75363 224.068964 
L 409.324009 214.7575 
L 409.894389 225.097271 
L 410.464768 233.05007 
L 411.035148 233.603219 
L 412.175907 223.396582 
L 412.746287 223.522277 
L 413.316666 226.20159 
L 413.887046 225.069542 
L 414.457425 216.264485 
L 415.027805 216.382012 
L 415.598185 219.753077 
L 416.168564 225.701233 
L 416.738944 226.148885 
L 417.309323 228.770746 
L 417.879703 226.937002 
L 418.450082 228.709305 
L 419.020462 235.153725 
L 419.590842 236.825409 
L 420.161221 235.078317 
L 420.731601 236.226431 
L 421.30198 230.033516 
L 421.87236 229.983482 
L 422.442739 222.424237 
L 423.013119 222.833556 
L 423.583499 221.515447 
L 424.153878 215.298044 
L 424.724258 223.44519 
L 425.294637 221.135013 
L 425.865017 226.761809 
L 426.435396 225.594335 
L 427.005776 225.359149 
L 427.576156 223.803099 
L 428.146535 224.111013 
L 429.287294 235.016123 
L 429.857674 232.640411 
L 430.428053 236.849367 
L 430.998433 239.674979 
L 431.568813 246.261446 
L 432.139192 249.166435 
L 432.709572 239.023823 
L 433.279951 239.516857 
L 433.850331 238.381337 
L 434.42071 236.475416 
L 434.99109 233.794688 
L 435.56147 237.250743 
L 436.131849 231.142232 
L 436.702229 227.173621 
L 437.272608 225.064713 
L 437.842988 224.694137 
L 438.413367 224.96563 
L 438.983747 226.170258 
L 439.554127 228.020893 
L 440.124506 223.446663 
L 441.265265 221.92518 
L 441.835645 221.493962 
L 442.406024 226.380642 
L 442.976404 225.689058 
L 443.546784 224.6508 
L 444.117163 223.321246 
L 444.687543 225.956349 
L 445.257922 229.405589 
L 445.828302 223.640921 
L 446.398681 220.327163 
L 446.969061 227.195698 
L 447.539441 226.263355 
L 448.10982 224.163691 
L 448.6802 225.738502 
L 449.820959 229.54173 
L 450.391338 229.23523 
L 450.961718 225.486965 
L 451.532098 225.403688 
L 452.102477 226.65882 
L 452.672857 227.569751 
L 453.243236 226.118103 
L 453.813616 226.648422 
L 454.383995 226.548023 
L 454.954375 225.421113 
L 456.665514 224.692409 
L 457.235893 224.811309 
L 457.806273 222.410324 
L 458.376652 220.713997 
L 458.947032 221.065167 
L 459.517412 222.82528 
L 460.087791 226.108762 
L 460.658171 226.445573 
L 461.22855 222.378699 
L 461.79893 222.033945 
L 462.369309 220.583474 
L 462.939689 220.870197 
L 465.791587 210.427633 
L 466.361966 214.922567 
L 467.502726 213.45574 
L 468.073105 214.920914 
L 469.213864 213.670216 
L 469.784244 211.02806 
L 470.354623 211.022085 
L 470.925003 210.390402 
L 471.495383 210.67235 
L 472.065762 209.209779 
L 472.636142 208.308366 
L 473.206521 209.410574 
L 473.776901 208.371123 
L 474.34728 208.593471 
L 475.48804 208.430297 
L 476.058419 207.095272 
L 476.628799 206.894835 
L 477.199178 206.991304 
L 477.769558 205.056135 
L 478.339937 202.145633 
L 478.910317 203.785883 
L 479.480697 203.384871 
L 480.051076 199.762991 
L 481.191835 201.480324 
L 481.762215 202.963148 
L 482.332594 203.935853 
L 482.902974 199.136516 
L 483.473354 200.109285 
L 484.043733 202.668113 
L 484.614113 202.927507 
L 485.184492 204.253083 
L 485.754872 204.817088 
L 486.325251 210.355608 
L 486.895631 208.869769 
L 487.466011 206.458755 
L 488.03639 203.469563 
L 488.60677 206.409998 
L 489.177149 207.418279 
L 489.747529 207.383019 
L 490.317908 207.220356 
L 490.888288 210.690411 
L 491.458668 210.120926 
L 492.029047 209.148423 
L 492.599427 210.581135 
L 493.169806 210.699346 
L 493.740186 213.97164 
L 494.310565 220.436942 
L 494.880945 217.25639 
L 495.451325 216.279522 
L 496.021704 214.886333 
L 497.162463 206.51419 
L 497.732843 206.379326 
L 498.303222 207.098366 
L 498.873602 205.93989 
L 499.443982 205.947025 
L 500.584741 202.974167 
L 501.15512 202.331428 
L 501.7255 201.491992 
L 502.295879 202.030476 
L 502.866259 201.896277 
L 503.436639 205.012813 
L 504.007018 203.514123 
L 504.577398 202.972196 
L 505.147777 203.72835 
L 505.718157 201.515402 
L 506.288536 200.513694 
L 506.858916 200.043457 
L 507.999675 199.583644 
L 509.140434 194.795955 
L 509.710814 195.950318 
L 510.851573 194.385221 
L 511.421953 195.365651 
L 511.992332 196.816291 
L 513.133091 198.810819 
L 513.703471 197.018085 
L 514.84423 195.646377 
L 516.555369 202.044669 
L 517.125748 203.111878 
L 517.696128 205.432799 
L 518.266507 206.170636 
L 518.836887 208.709514 
L 519.407266 213.599683 
L 519.977646 211.605132 
L 520.548026 211.001272 
L 521.118405 207.650416 
L 522.259164 211.484462 
L 522.829544 208.275733 
L 523.399923 213.315653 
L 523.970303 212.443008 
L 524.540683 210.909804 
L 525.111062 208.84951 
L 525.681442 210.020551 
L 526.251821 208.212235 
L 526.822201 209.683689 
L 527.39258 214.34427 
L 527.96296 212.643701 
L 528.53334 213.178123 
L 529.103719 212.984365 
L 529.674099 211.014454 
L 530.244478 211.729747 
L 531.385237 210.140402 
L 531.955617 206.810435 
L 532.525997 207.473815 
L 533.096376 207.682572 
L 533.666756 208.552736 
L 534.237135 208.218667 
L 534.807515 206.56136 
L 535.377894 207.010735 
L 535.948274 209.346456 
L 536.518654 208.115499 
L 537.089033 208.366967 
L 537.659413 207.769722 
L 538.229792 210.003855 
L 538.800172 210.626539 
L 539.370551 214.045097 
L 539.940931 211.837218 
L 540.511311 213.91041 
L 541.08169 215.219672 
L 541.65207 214.225863 
L 542.222449 214.493878 
L 542.792829 216.482163 
L 543.363208 215.462959 
L 543.933588 214.058096 
L 544.503968 214.649322 
L 545.074347 216.896842 
L 545.644727 215.389061 
L 546.215106 215.411161 
L 546.785486 214.411568 
L 547.355865 214.106636 
L 547.926245 211.646374 
L 549.067004 210.391353 
L 549.637384 212.808908 
L 550.207763 210.582417 
L 550.778143 212.278701 
L 551.348522 212.419536 
L 551.918902 210.728366 
L 552.489282 211.993982 
L 553.059661 210.449427 
L 553.630041 211.693053 
L 554.20042 210.072831 
L 554.7708 210.380586 
L 555.911559 208.10806 
L 556.481939 208.29698 
L 557.622698 209.251786 
L 558.193077 209.226704 
L 558.763457 210.226853 
L 559.333836 209.611727 
L 559.904216 211.396186 
L 560.474596 211.24098 
L 561.044975 212.110896 
L 561.615355 211.138656 
L 562.185734 211.0645 
L 562.756114 211.802164 
L 563.326493 212.738067 
L 563.896873 211.872825 
L 564.467253 209.570696 
L 565.608012 206.193999 
L 566.748771 209.278032 
L 567.31915 210.209741 
L 567.88953 210.757359 
L 568.45991 212.218667 
L 569.030289 211.112674 
L 569.600669 211.332714 
L 570.171048 212.076203 
L 570.741428 211.356605 
L 571.311807 210.440232 
L 571.882187 210.257165 
L 572.452567 209.463332 
L 573.022946 207.961332 
L 573.593326 208.525519 
L 574.163705 207.779816 
L 574.734085 208.051355 
L 575.304464 207.545968 
L 575.874844 207.819646 
L 576.445224 201.812253 
L 577.015603 201.716343 
L 577.585983 203.576491 
L 578.156362 203.453854 
L 578.726742 199.375639 
L 579.297121 201.31396 
L 579.867501 199.194181 
L 580.437881 199.081955 
L 581.00826 199.851178 
L 581.57864 198.910709 
L 582.149019 200.310703 
L 582.719399 199.378596 
L 583.289778 201.1353 
L 583.860158 201.542992 
L 584.430538 200.01595 
L 585.000917 200.838372 
L 585.571297 198.963156 
L 586.141676 199.363241 
L 586.712056 199.45333 
L 587.282435 201.375675 
L 587.852815 204.214641 
L 588.423195 201.927856 
L 588.993574 201.006156 
L 589.563954 199.596282 
L 590.134333 190.01075 
L 590.704713 189.988132 
L 591.275092 185.900243 
L 591.845472 186.576926 
L 592.415852 185.407343 
L 592.986231 183.319094 
L 593.556611 178.860659 
L 594.69737 177.349334 
L 595.838129 179.165231 
L 596.408509 177.553144 
L 596.978888 176.389913 
L 597.549268 177.966487 
L 598.119647 182.810334 
L 598.690027 190.202227 
L 599.260406 193.430774 
L 599.830786 192.657568 
L 600.401166 201.167182 
L 600.971545 200.840936 
L 601.541925 194.266811 
L 602.112304 198.571901 
L 602.682684 192.873532 
L 603.253063 197.185699 
L 603.823443 199.404254 
L 604.393823 208.307538 
L 604.964202 200.357979 
L 605.534582 206.550044 
L 606.104961 219.297656 
L 606.675341 208.929777 
L 607.24572 218.885037 
L 607.8161 208.895233 
L 608.38648 208.452176 
L 608.956859 204.18151 
L 609.527239 207.583259 
L 610.667998 199.228727 
L 611.238377 203.412804 
L 611.808757 197.067344 
L 612.379137 202.002848 
L 612.949516 196.07777 
L 613.519896 197.171625 
L 614.090275 201.096063 
L 614.660655 199.882224 
L 615.231034 201.023499 
L 615.801414 192.862008 
L 616.371794 192.019494 
L 616.942173 189.344215 
L 617.512553 189.273047 
L 618.653312 170.625778 
L 619.223691 169.177337 
L 619.794071 161.263264 
L 620.364451 163.500137 
L 620.93483 162.573811 
L 621.50521 168.303343 
L 622.075589 164.98515 
L 622.645969 162.573729 
L 623.216348 161.380934 
L 623.786728 163.822097 
L 624.357108 168.831492 
L 624.927487 163.702505 
L 625.497867 156.106073 
L 626.068246 170.41695 
L 626.638626 167.853557 
L 627.209005 167.409614 
L 627.779385 164.722256 
L 628.920144 162.251738 
L 629.490524 159.863536 
L 630.060903 164.230125 
L 630.631283 163.900371 
L 632.912801 157.400435 
L 633.483181 153.521994 
L 634.05356 157.5203 
L 634.62394 158.1607 
L 635.194319 159.418391 
L 636.335078 160.911011 
L 636.905458 157.743815 
L 637.475838 155.703765 
L 638.046217 155.410755 
L 638.616597 154.680221 
L 639.186976 156.376605 
L 639.757356 154.194614 
L 640.327735 151.033109 
L 640.898115 145.18664 
L 641.468495 141.007572 
L 642.038874 148.992686 
L 642.609254 149.728547 
L 643.179633 147.417732 
L 643.750013 143.748251 
L 644.320392 141.820624 
L 644.890772 140.718151 
L 645.461152 139.367501 
L 646.601911 131.976537 
L 647.17229 134.743583 
L 647.74267 132.868083 
L 648.313049 137.956507 
L 648.883429 138.481148 
L 649.453809 132.218826 
L 650.024188 123.395968 
L 650.594568 122.402582 
L 651.164947 109.630589 
L 651.735327 114.083142 
L 652.876086 100.070923 
L 653.446466 98.858669 
L 654.016845 106.596698 
L 654.587225 107.819096 
L 655.157604 113.183717 
L 655.727984 114.374046 
L 656.298363 117.253715 
L 656.868743 99.108292 
L 657.439123 103.714802 
L 658.009502 106.178677 
L 658.579882 115.632895 
L 659.150261 114.220298 
L 659.720641 110.462276 
L 660.29102 114.716068 
L 660.8614 111.871786 
L 661.43178 110.512978 
L 662.002159 101.654016 
L 662.572539 104.177639 
L 663.142918 102.527618 
L 663.713298 97.71177 
L 664.283677 95.734763 
L 664.854057 100.456198 
L 665.424437 102.213113 
L 665.994816 107.491459 
L 666.565196 100.721825 
L 667.135575 100.764809 
L 667.705955 101.439435 
L 668.276334 98.883436 
L 668.846714 89.267042 
L 669.417094 93.267856 
L 669.987473 89.888442 
L 670.557853 90.647989 
L 671.128232 88.758981 
L 671.698612 85.725237 
L 672.268991 78.244704 
L 672.839371 80.788917 
L 673.409751 80.416921 
L 673.98013 77.048929 
L 674.55051 72.998449 
L 675.120889 70.297527 
L 675.691269 84.337985 
L 676.261648 90.043431 
L 676.832028 102.261678 
L 677.402408 92.447023 
L 677.972787 100.086342 
L 678.543167 104.544459 
L 679.113546 105.162205 
L 679.683926 100.589139 
L 680.824685 111.964857 
L 681.395065 116.418278 
L 681.965444 115.830368 
L 682.535824 102.925951 
L 683.106203 113.413821 
L 683.676583 111.700131 
L 684.817342 99.359237 
L 685.387722 101.796291 
L 685.958101 101.091566 
L 686.528481 95.589321 
L 687.09886 103.4911 
L 687.66924 97.443437 
L 688.239619 105.23993 
L 688.809999 97.695519 
L 689.380379 97.709426 
L 689.950758 90.058589 
L 690.521138 77.702726 
L 691.091517 77.671734 
L 691.661897 83.737188 
L 692.232276 85.661977 
L 693.373036 96.066213 
L 693.943415 95.103406 
L 694.513795 97.134416 
L 695.084174 97.747955 
L 695.654554 95.573796 
L 696.224933 96.264297 
L 696.795313 90.077037 
L 697.365693 100.778476 
L 697.936072 96.862822 
L 698.506452 109.996026 
L 699.076831 112.332115 
L 699.647211 108.487867 
L 700.21759 93.199549 
L 700.78797 86.16287 
L 701.35835 86.803767 
L 701.928729 99.681968 
L 702.499109 108.341997 
L 703.069488 99.990105 
L 703.639868 102.229281 
L 704.210247 100.626717 
L 704.780627 100.028558 
L 705.351007 99.911687 
L 705.921386 102.398534 
L 706.491766 101.279076 
L 707.062145 102.701766 
L 707.632525 103.010218 
L 708.202904 100.424767 
L 708.773284 94.895813 
L 709.343664 93.954382 
L 709.914043 94.043874 
L 710.484423 90.355429 
L 712.195561 94.646756 
L 712.765941 94.696031 
L 713.336321 94.324452 
L 713.9067 100.290046 
L 714.47708 100.439174 
L 715.047459 99.226946 
L 715.617839 96.379908 
L 716.188218 95.330729 
L 716.758598 88.930418 
L 717.328978 89.262545 
L 717.899357 91.862495 
L 718.469737 90.607492 
L 719.040116 89.896392 
L 719.610496 91.638682 
L 720.180875 92.712028 
L 720.751255 82.901491 
L 721.321635 80.41093 
L 722.462394 84.833808 
L 723.032773 89.624887 
L 723.603153 87.115446 
L 724.173532 92.367492 
L 724.743912 88.337794 
L 725.314292 86.759802 
L 725.884671 93.071284 
L 726.455051 92.366067 
L 727.02543 88.707045 
L 727.59581 88.978535 
L 728.166189 92.196202 
L 728.736569 90.194253 
L 729.306949 79.894281 
L 729.877328 77.225695 
L 731.018087 76.052213 
L 731.588467 73.72128 
L 732.158846 81.044342 
L 732.729226 79.280794 
L 733.299606 81.505476 
L 733.869985 70.202588 
L 734.440365 66.059937 
L 735.010744 69.245508 
L 735.581124 67.18889 
L 736.151503 64.589547 
L 737.292263 55.509347 
L 737.862642 64.893819 
L 738.433022 65.571923 
L 739.003401 63.728692 
L 739.573781 66.709274 
L 740.14416 64.234836 
L 740.71454 63.279056 
L 741.28492 68.308272 
L 741.855299 76.523333 
L 742.425679 80.558011 
L 742.996058 79.640418 
L 743.566438 90.158752 
L 744.136817 86.693939 
L 744.707197 81.183147 
L 745.277577 86.285769 
L 745.847956 94.050182 
L 746.418336 98.504235 
L 746.988715 96.946369 
L 747.559095 101.05306 
L 748.129474 89.658537 
L 748.699854 89.156684 
L 749.270234 83.250563 
L 749.840613 85.715792 
L 750.410993 86.634458 
L 750.981372 86.702807 
L 751.551752 82.381556 
L 752.122131 92.112575 
L 752.692511 87.566937 
L 753.262891 85.596984 
L 753.83327 84.79245 
L 754.40365 90.275737 
L 754.974029 93.560601 
L 755.544409 92.600243 
L 756.114788 90.800958 
L 756.685168 92.11093 
L 757.255547 88.115346 
L 758.396307 75.798753 
L 758.966686 76.544103 
L 760.107445 70.676401 
L 760.677825 64.421436 
L 761.248204 63.785974 
L 761.818584 58.408191 
L 762.388964 66.697596 
L 762.959343 62.696206 
L 763.529723 62.338137 
L 764.100102 65.995343 
L 764.670482 68.607524 
L 765.240861 66.253848 
L 765.811241 71.923084 
L 766.381621 68.685269 
L 766.952 62.454509 
L 767.52238 61.331959 
L 768.092759 59.048859 
L 768.663139 59.018497 
L 769.233518 59.377134 
L 770.374278 72.391852 
L 770.944657 75.348715 
L 771.515037 72.705927 
L 772.085416 73.172455 
L 772.655796 82.591704 
L 773.226175 80.105669 
L 773.796555 87.173095 
L 774.366935 87.382399 
L 774.937314 81.381344 
L 775.507694 79.139038 
L 776.078073 82.255064 
L 776.648453 83.151385 
L 777.218832 81.048582 
L 777.789212 85.107617 
L 778.359592 80.815121 
L 778.929971 79.778483 
L 779.500351 79.012261 
L 780.07073 81.570904 
L 780.64111 82.710008 
L 781.211489 83.077781 
L 781.781869 81.384039 
L 782.352249 85.301948 
L 782.922628 83.369464 
L 783.493008 84.047859 
L 784.063387 79.603131 
L 784.633767 76.817068 
L 785.204146 71.620922 
L 785.774526 71.491716 
L 786.344906 66.261326 
L 786.915285 65.664422 
L 787.485665 63.688577 
L 788.056044 57.570185 
L 788.626424 57.542319 
L 789.196803 61.183146 
L 789.767183 57.852437 
L 790.337563 58.027868 
L 790.907942 61.11137 
L 791.478322 65.607333 
L 792.048701 60.090441 
L 792.619081 58.239608 
L 793.75984 59.757518 
L 794.33022 53.729616 
L 794.900599 41.677028 
L 796.041358 38.012824 
L 796.611738 38.474829 
L 797.182117 39.686311 
L 797.752497 42.482167 
L 798.322877 42.354274 
L 799.463636 51.521861 
L 800.034015 54.496235 
L 801.174774 49.763385 
L 801.745154 45.387811 
L 802.315534 44.013314 
L 802.885913 37.128048 
L 803.456293 44.214256 
L 804.026672 43.623325 
L 804.597052 46.347688 
L 805.167431 66.286653 
L 805.737811 65.717127 
L 806.308191 63.198275 
L 806.87857 62.902872 
L 807.44895 59.853377 
L 808.019329 61.285413 
L 808.589709 61.123916 
L 809.730468 65.43473 
L 810.300848 64.865263 
L 811.441607 65.211693 
L 812.011986 70.460196 
L 812.582366 74.083089 
L 813.152745 73.858879 
L 813.723125 71.671522 
L 813.723125 71.671522 
" clip-path="url(#p72abb64d6e)" style="fill: none; stroke: #e24a33; stroke-width: 1.5; stroke-linecap: round"/>
   </g>
   <g id="patch_3">
    <path d="M 60.30875 309.840312 
L 60.30875 24.14175 
" style="fill: none; stroke: #262626; stroke-linejoin: miter; stroke-linecap: square"/>
   </g>
   <g id="patch_4">
    <path d="M 849.6 309.840312 
L 849.6 24.14175 
" style="fill: none; stroke: #262626; stroke-linejoin: miter; stroke-linecap: square"/>
   </g>
   <g id="patch_5">
    <path d="M 60.30875 309.840312 
L 849.6 309.840312 
" style="fill: none; stroke: #262626; stroke-linejoin: miter; stroke-linecap: square"/>
   </g>
   <g id="patch_6">
    <path d="M 60.30875 24.14175 
L 849.6 24.14175 
" style="fill: none; stroke: #262626; stroke-linejoin: miter; stroke-linecap: square"/>
   </g>
   <g id="text_15">
    <!-- Portfolio value -->
    <g style="fill: #262626" transform="translate(403.384375 18.14175)scale(0.144 -0.144)">
     <defs>
      <path id="DejaVuSans-50" d="M 1259 4147 
L 1259 2394 
L 2053 2394 
Q 2494 2394 2734 2622 
Q 2975 2850 2975 3272 
Q 2975 3691 2734 3919 
Q 2494 4147 2053 4147 
L 1259 4147 
z
M 628 4666 
L 2053 4666 
Q 2838 4666 3239 4311 
Q 3641 3956 3641 3272 
Q 3641 2581 3239 2228 
Q 2838 1875 2053 1875 
L 1259 1875 
L 1259 0 
L 628 0 
L 628 4666 
z
" transform="scale(0.015625)"/>
      <path id="DejaVuSans-6f" d="M 1959 3097 
Q 1497 3097 1228 2736 
Q 959 2375 959 1747 
Q 959 1119 1226 758 
Q 1494 397 1959 397 
Q 2419 397 2687 759 
Q 2956 1122 2956 1747 
Q 2956 2369 2687 2733 
Q 2419 3097 1959 3097 
z
M 1959 3584 
Q 2709 3584 3137 3096 
Q 3566 2609 3566 1747 
Q 3566 888 3137 398 
Q 2709 -91 1959 -91 
Q 1206 -91 779 398 
Q 353 888 353 1747 
Q 353 2609 779 3096 
Q 1206 3584 1959 3584 
z
" transform="scale(0.015625)"/>
      <path id="DejaVuSans-72" d="M 2631 2963 
Q 2534 3019 2420 3045 
Q 2306 3072 2169 3072 
Q 1681 3072 1420 2755 
Q 1159 2438 1159 1844 
L 1159 0 
L 581 0 
L 581 3500 
L 1159 3500 
L 1159 2956 
Q 1341 3275 1631 3429 
Q 1922 3584 2338 3584 
Q 2397 3584 2469 3576 
Q 2541 3569 2628 3553 
L 2631 2963 
z
" transform="scale(0.015625)"/>
      <path id="DejaVuSans-66" d="M 2375 4863 
L 2375 4384 
L 1825 4384 
Q 1516 4384 1395 4259 
Q 1275 4134 1275 3809 
L 1275 3500 
L 2222 3500 
L 2222 3053 
L 1275 3053 
L 1275 0 
L 697 0 
L 697 3053 
L 147 3053 
L 147 3500 
L 697 3500 
L 697 3744 
Q 697 4328 969 4595 
Q 1241 4863 1831 4863 
L 2375 4863 
z
" transform="scale(0.015625)"/>
      <path id="DejaVuSans-6c" d="M 603 4863 
L 1178 4863 
L 1178 0 
L 603 0 
L 603 4863 
z
" transform="scale(0.015625)"/>
      <path id="DejaVuSans-69" d="M 603 3500 
L 1178 3500 
L 1178 0 
L 603 0 
L 603 3500 
z
M 603 4863 
L 1178 4863 
L 1178 4134 
L 603 4134 
L 603 4863 
z
" transform="scale(0.015625)"/>
      <path id="DejaVuSans-20" transform="scale(0.015625)"/>
      <path id="DejaVuSans-76" d="M 191 3500 
L 800 3500 
L 1894 563 
L 2988 3500 
L 3597 3500 
L 2284 0 
L 1503 0 
L 191 3500 
z
" transform="scale(0.015625)"/>
      <path id="DejaVuSans-75" d="M 544 1381 
L 544 3500 
L 1119 3500 
L 1119 1403 
Q 1119 906 1312 657 
Q 1506 409 1894 409 
Q 2359 409 2629 706 
Q 2900 1003 2900 1516 
L 2900 3500 
L 3475 3500 
L 3475 0 
L 2900 0 
L 2900 538 
Q 2691 219 2414 64 
Q 2138 -91 1772 -91 
Q 1169 -91 856 284 
Q 544 659 544 1381 
z
M 1991 3584 
L 1991 3584 
z
" transform="scale(0.015625)"/>
     </defs>
     <use xlink:href="#DejaVuSans-50"/>
     <use xlink:href="#DejaVuSans-6f" x="56.677734"/>
     <use xlink:href="#DejaVuSans-72" x="117.859375"/>
     <use xlink:href="#DejaVuSans-74" x="158.972656"/>
     <use xlink:href="#DejaVuSans-66" x="198.181641"/>
     <use xlink:href="#DejaVuSans-6f" x="233.386719"/>
     <use xlink:href="#DejaVuSans-6c" x="294.568359"/>
     <use xlink:href="#DejaVuSans-69" x="322.351562"/>
     <use xlink:href="#DejaVuSans-6f" x="350.134766"/>
     <use xlink:href="#DejaVuSans-20" x="411.316406"/>
     <use xlink:href="#DejaVuSans-76" x="443.103516"/>
     <use xlink:href="#DejaVuSans-61" x="502.283203"/>
     <use xlink:href="#DejaVuSans-6c" x="563.5625"/>
     <use xlink:href="#DejaVuSans-75" x="591.345703"/>
     <use xlink:href="#DejaVuSans-65" x="654.724609"/>
    </g>
   </g>
  </g>
 </g>
 <defs>
  <clipPath id="p72abb64d6e">
   <rect x="60.30875" y="24.14175" width="789.29125" height="285.698562"/>
  </clipPath>
 </defs>
</svg>
