<?xml version="1.0" encoding="utf-8" standalone="no"?>
<!DOCTYPE svg PUBLIC "-//W3C//DTD SVG 1.1//EN"
  "http://www.w3.org/Graphics/SVG/1.1/DTD/svg11.dtd">
<svg xmlns:xlink="http://www.w3.org/1999/xlink" width="424.8pt" height="280.8pt" viewBox="0 0 424.8 280.8" xmlns="http://www.w3.org/2000/svg" version="1.1">
 <metadata>
  <rdf:RDF xmlns:dc="http://purl.org/dc/elements/1.1/" xmlns:cc="http://creativecommons.org/ns#" xmlns:rdf="http://www.w3.org/1999/02/22-rdf-syntax-ns#">
   <cc:Work>
    <dc:type rdf:resource="http://purl.org/dc/dcmitype/StillImage"/>
    <dc:date>2022-02-11T14:15:18.158684</dc:date>
    <dc:format>image/svg+xml</dc:format>
    <dc:creator>
     <cc:Agent>
      <dc:title>Matplotlib v3.5.1, https://matplotlib.org/</dc:title>
     </cc:Agent>
    </dc:creator>
   </cc:Work>
  </rdf:RDF>
 </metadata>
 <defs>
  <style type="text/css">*{stroke-linejoin: round; stroke-linecap: butt}</style>
 </defs>
 <g id="figure_1">
  <g id="patch_1">
   <path d="M 0 280.8 
L 424.8 280.8 
L 424.8 0 
L 0 0 
z
" style="fill: #ffffff"/>
  </g>
  <g id="axes_1">
   <g id="patch_2">
    <path d="M 20.878125 259.921875 
L 417.6 259.921875 
L 417.6 22.318125 
L 20.878125 22.318125 
z
" style="fill: #ffffff"/>
   </g>
   <g id="matplotlib.axis_1">
    <g id="xtick_1"/>
    <g id="xtick_2"/>
    <g id="xtick_3"/>
    <g id="xtick_4"/>
    <g id="xtick_5"/>
    <g id="xtick_6"/>
    <g id="text_1">
     <!-- Omega risk (denominator) -->
     <g style="fill: #262626" transform="translate(153.047656 271.520313)scale(0.1 -0.1)">
      <defs>
       <path id="DejaVuSans-4f" d="M 2522 4238 
Q 1834 4238 1429 3725 
Q 1025 3213 1025 2328 
Q 1025 1447 1429 934 
Q 1834 422 2522 422 
Q 3209 422 3611 934 
Q 4013 1447 4013 2328 
Q 4013 3213 3611 3725 
Q 3209 4238 2522 4238 
z
M 2522 4750 
Q 3503 4750 4090 4092 
Q 4678 3434 4678 2328 
Q 4678 1225 4090 567 
Q 3503 -91 2522 -91 
Q 1538 -91 948 565 
Q 359 1222 359 2328 
Q 359 3434 948 4092 
Q 1538 4750 2522 4750 
z
" transform="scale(0.015625)"/>
       <path id="DejaVuSans-6d" d="M 3328 2828 
Q 3544 3216 3844 3400 
Q 4144 3584 4550 3584 
Q 5097 3584 5394 3201 
Q 5691 2819 5691 2113 
L 5691 0 
L 5113 0 
L 5113 2094 
Q 5113 2597 4934 2840 
Q 4756 3084 4391 3084 
Q 3944 3084 3684 2787 
Q 3425 2491 3425 1978 
L 3425 0 
L 2847 0 
L 2847 2094 
Q 2847 2600 2669 2842 
Q 2491 3084 2119 3084 
Q 1678 3084 1418 2786 
Q 1159 2488 1159 1978 
L 1159 0 
L 581 0 
L 581 3500 
L 1159 3500 
L 1159 2956 
Q 1356 3278 1631 3431 
Q 1906 3584 2284 3584 
Q 2666 3584 2933 3390 
Q 3200 3197 3328 2828 
z
" transform="scale(0.015625)"/>
       <path id="DejaVuSans-65" d="M 3597 1894 
L 3597 1613 
L 953 1613 
Q 991 1019 1311 708 
Q 1631 397 2203 397 
Q 2534 397 2845 478 
Q 3156 559 3463 722 
L 3463 178 
Q 3153 47 2828 -22 
Q 2503 -91 2169 -91 
Q 1331 -91 842 396 
Q 353 884 353 1716 
Q 353 2575 817 3079 
Q 1281 3584 2069 3584 
Q 2775 3584 3186 3129 
Q 3597 2675 3597 1894 
z
M 3022 2063 
Q 3016 2534 2758 2815 
Q 2500 3097 2075 3097 
Q 1594 3097 1305 2825 
Q 1016 2553 972 2059 
L 3022 2063 
z
" transform="scale(0.015625)"/>
       <path id="DejaVuSans-67" d="M 2906 1791 
Q 2906 2416 2648 2759 
Q 2391 3103 1925 3103 
Q 1463 3103 1205 2759 
Q 947 2416 947 1791 
Q 947 1169 1205 825 
Q 1463 481 1925 481 
Q 2391 481 2648 825 
Q 2906 1169 2906 1791 
z
M 3481 434 
Q 3481 -459 3084 -895 
Q 2688 -1331 1869 -1331 
Q 1566 -1331 1297 -1286 
Q 1028 -1241 775 -1147 
L 775 -588 
Q 1028 -725 1275 -790 
Q 1522 -856 1778 -856 
Q 2344 -856 2625 -561 
Q 2906 -266 2906 331 
L 2906 616 
Q 2728 306 2450 153 
Q 2172 0 1784 0 
Q 1141 0 747 490 
Q 353 981 353 1791 
Q 353 2603 747 3093 
Q 1141 3584 1784 3584 
Q 2172 3584 2450 3431 
Q 2728 3278 2906 2969 
L 2906 3500 
L 3481 3500 
L 3481 434 
z
" transform="scale(0.015625)"/>
       <path id="DejaVuSans-61" d="M 2194 1759 
Q 1497 1759 1228 1600 
Q 959 1441 959 1056 
Q 959 750 1161 570 
Q 1363 391 1709 391 
Q 2188 391 2477 730 
Q 2766 1069 2766 1631 
L 2766 1759 
L 2194 1759 
z
M 3341 1997 
L 3341 0 
L 2766 0 
L 2766 531 
Q 2569 213 2275 61 
Q 1981 -91 1556 -91 
Q 1019 -91 701 211 
Q 384 513 384 1019 
Q 384 1609 779 1909 
Q 1175 2209 1959 2209 
L 2766 2209 
L 2766 2266 
Q 2766 2663 2505 2880 
Q 2244 3097 1772 3097 
Q 1472 3097 1187 3025 
Q 903 2953 641 2809 
L 641 3341 
Q 956 3463 1253 3523 
Q 1550 3584 1831 3584 
Q 2591 3584 2966 3190 
Q 3341 2797 3341 1997 
z
" transform="scale(0.015625)"/>
       <path id="DejaVuSans-20" transform="scale(0.015625)"/>
       <path id="DejaVuSans-72" d="M 2631 2963 
Q 2534 3019 2420 3045 
Q 2306 3072 2169 3072 
Q 1681 3072 1420 2755 
Q 1159 2438 1159 1844 
L 1159 0 
L 581 0 
L 581 3500 
L 1159 3500 
L 1159 2956 
Q 1341 3275 1631 3429 
Q 1922 3584 2338 3584 
Q 2397 3584 2469 3576 
Q 2541 3569 2628 3553 
L 2631 2963 
z
" transform="scale(0.015625)"/>
       <path id="DejaVuSans-69" d="M 603 3500 
L 1178 3500 
L 1178 0 
L 603 0 
L 603 3500 
z
M 603 4863 
L 1178 4863 
L 1178 4134 
L 603 4134 
L 603 4863 
z
" transform="scale(0.015625)"/>
       <path id="DejaVuSans-73" d="M 2834 3397 
L 2834 2853 
Q 2591 2978 2328 3040 
Q 2066 3103 1784 3103 
Q 1356 3103 1142 2972 
Q 928 2841 928 2578 
Q 928 2378 1081 2264 
Q 1234 2150 1697 2047 
L 1894 2003 
Q 2506 1872 2764 1633 
Q 3022 1394 3022 966 
Q 3022 478 2636 193 
Q 2250 -91 1575 -91 
Q 1294 -91 989 -36 
Q 684 19 347 128 
L 347 722 
Q 666 556 975 473 
Q 1284 391 1588 391 
Q 1994 391 2212 530 
Q 2431 669 2431 922 
Q 2431 1156 2273 1281 
Q 2116 1406 1581 1522 
L 1381 1569 
Q 847 1681 609 1914 
Q 372 2147 372 2553 
Q 372 3047 722 3315 
Q 1072 3584 1716 3584 
Q 2034 3584 2315 3537 
Q 2597 3491 2834 3397 
z
" transform="scale(0.015625)"/>
       <path id="DejaVuSans-6b" d="M 581 4863 
L 1159 4863 
L 1159 1991 
L 2875 3500 
L 3609 3500 
L 1753 1863 
L 3688 0 
L 2938 0 
L 1159 1709 
L 1159 0 
L 581 0 
L 581 4863 
z
" transform="scale(0.015625)"/>
       <path id="DejaVuSans-28" d="M 1984 4856 
Q 1566 4138 1362 3434 
Q 1159 2731 1159 2009 
Q 1159 1288 1364 580 
Q 1569 -128 1984 -844 
L 1484 -844 
Q 1016 -109 783 600 
Q 550 1309 550 2009 
Q 550 2706 781 3412 
Q 1013 4119 1484 4856 
L 1984 4856 
z
" transform="scale(0.015625)"/>
       <path id="DejaVuSans-64" d="M 2906 2969 
L 2906 4863 
L 3481 4863 
L 3481 0 
L 2906 0 
L 2906 525 
Q 2725 213 2448 61 
Q 2172 -91 1784 -91 
Q 1150 -91 751 415 
Q 353 922 353 1747 
Q 353 2572 751 3078 
Q 1150 3584 1784 3584 
Q 2172 3584 2448 3432 
Q 2725 3281 2906 2969 
z
M 947 1747 
Q 947 1113 1208 752 
Q 1469 391 1925 391 
Q 2381 391 2643 752 
Q 2906 1113 2906 1747 
Q 2906 2381 2643 2742 
Q 2381 3103 1925 3103 
Q 1469 3103 1208 2742 
Q 947 2381 947 1747 
z
" transform="scale(0.015625)"/>
       <path id="DejaVuSans-6e" d="M 3513 2113 
L 3513 0 
L 2938 0 
L 2938 2094 
Q 2938 2591 2744 2837 
Q 2550 3084 2163 3084 
Q 1697 3084 1428 2787 
Q 1159 2491 1159 1978 
L 1159 0 
L 581 0 
L 581 3500 
L 1159 3500 
L 1159 2956 
Q 1366 3272 1645 3428 
Q 1925 3584 2291 3584 
Q 2894 3584 3203 3211 
Q 3513 2838 3513 2113 
z
" transform="scale(0.015625)"/>
       <path id="DejaVuSans-6f" d="M 1959 3097 
Q 1497 3097 1228 2736 
Q 959 2375 959 1747 
Q 959 1119 1226 758 
Q 1494 397 1959 397 
Q 2419 397 2687 759 
Q 2956 1122 2956 1747 
Q 2956 2369 2687 2733 
Q 2419 3097 1959 3097 
z
M 1959 3584 
Q 2709 3584 3137 3096 
Q 3566 2609 3566 1747 
Q 3566 888 3137 398 
Q 2709 -91 1959 -91 
Q 1206 -91 779 398 
Q 353 888 353 1747 
Q 353 2609 779 3096 
Q 1206 3584 1959 3584 
z
" transform="scale(0.015625)"/>
       <path id="DejaVuSans-74" d="M 1172 4494 
L 1172 3500 
L 2356 3500 
L 2356 3053 
L 1172 3053 
L 1172 1153 
Q 1172 725 1289 603 
Q 1406 481 1766 481 
L 2356 481 
L 2356 0 
L 1766 0 
Q 1100 0 847 248 
Q 594 497 594 1153 
L 594 3053 
L 172 3053 
L 172 3500 
L 594 3500 
L 594 4494 
L 1172 4494 
z
" transform="scale(0.015625)"/>
       <path id="DejaVuSans-29" d="M 513 4856 
L 1013 4856 
Q 1481 4119 1714 3412 
Q 1947 2706 1947 2009 
Q 1947 1309 1714 600 
Q 1481 -109 1013 -844 
L 513 -844 
Q 928 -128 1133 580 
Q 1338 1288 1338 2009 
Q 1338 2731 1133 3434 
Q 928 4138 513 4856 
z
" transform="scale(0.015625)"/>
      </defs>
      <use xlink:href="#DejaVuSans-4f"/>
      <use xlink:href="#DejaVuSans-6d" x="78.710938"/>
      <use xlink:href="#DejaVuSans-65" x="176.123047"/>
      <use xlink:href="#DejaVuSans-67" x="237.646484"/>
      <use xlink:href="#DejaVuSans-61" x="301.123047"/>
      <use xlink:href="#DejaVuSans-20" x="362.402344"/>
      <use xlink:href="#DejaVuSans-72" x="394.189453"/>
      <use xlink:href="#DejaVuSans-69" x="435.302734"/>
      <use xlink:href="#DejaVuSans-73" x="463.085938"/>
      <use xlink:href="#DejaVuSans-6b" x="515.185547"/>
      <use xlink:href="#DejaVuSans-20" x="573.095703"/>
      <use xlink:href="#DejaVuSans-28" x="604.882812"/>
      <use xlink:href="#DejaVuSans-64" x="643.896484"/>
      <use xlink:href="#DejaVuSans-65" x="707.373047"/>
      <use xlink:href="#DejaVuSans-6e" x="768.896484"/>
      <use xlink:href="#DejaVuSans-6f" x="832.275391"/>
      <use xlink:href="#DejaVuSans-6d" x="893.457031"/>
      <use xlink:href="#DejaVuSans-69" x="990.869141"/>
      <use xlink:href="#DejaVuSans-6e" x="1018.652344"/>
      <use xlink:href="#DejaVuSans-61" x="1082.03125"/>
      <use xlink:href="#DejaVuSans-74" x="1143.310547"/>
      <use xlink:href="#DejaVuSans-6f" x="1182.519531"/>
      <use xlink:href="#DejaVuSans-72" x="1243.701172"/>
      <use xlink:href="#DejaVuSans-29" x="1284.814453"/>
     </g>
    </g>
   </g>
   <g id="matplotlib.axis_2">
    <g id="ytick_1"/>
    <g id="ytick_2"/>
    <g id="ytick_3"/>
    <g id="ytick_4"/>
    <g id="ytick_5"/>
    <g id="ytick_6"/>
    <g id="ytick_7"/>
    <g id="text_2">
     <!-- Omega reward (numerator) -->
     <g style="fill: #262626" transform="translate(14.798438 210.114531)rotate(-90)scale(0.1 -0.1)">
      <defs>
       <path id="DejaVuSans-77" d="M 269 3500 
L 844 3500 
L 1563 769 
L 2278 3500 
L 2956 3500 
L 3675 769 
L 4391 3500 
L 4966 3500 
L 4050 0 
L 3372 0 
L 2619 2869 
L 1863 0 
L 1184 0 
L 269 3500 
z
" transform="scale(0.015625)"/>
       <path id="DejaVuSans-75" d="M 544 1381 
L 544 3500 
L 1119 3500 
L 1119 1403 
Q 1119 906 1312 657 
Q 1506 409 1894 409 
Q 2359 409 2629 706 
Q 2900 1003 2900 1516 
L 2900 3500 
L 3475 3500 
L 3475 0 
L 2900 0 
L 2900 538 
Q 2691 219 2414 64 
Q 2138 -91 1772 -91 
Q 1169 -91 856 284 
Q 544 659 544 1381 
z
M 1991 3584 
L 1991 3584 
z
" transform="scale(0.015625)"/>
      </defs>
      <use xlink:href="#DejaVuSans-4f"/>
      <use xlink:href="#DejaVuSans-6d" x="78.710938"/>
      <use xlink:href="#DejaVuSans-65" x="176.123047"/>
      <use xlink:href="#DejaVuSans-67" x="237.646484"/>
      <use xlink:href="#DejaVuSans-61" x="301.123047"/>
      <use xlink:href="#DejaVuSans-20" x="362.402344"/>
      <use xlink:href="#DejaVuSans-72" x="394.189453"/>
      <use xlink:href="#DejaVuSans-65" x="433.052734"/>
      <use xlink:href="#DejaVuSans-77" x="494.576172"/>
      <use xlink:href="#DejaVuSans-61" x="576.363281"/>
      <use xlink:href="#DejaVuSans-72" x="637.642578"/>
      <use xlink:href="#DejaVuSans-64" x="677.005859"/>
      <use xlink:href="#DejaVuSans-20" x="740.482422"/>
      <use xlink:href="#DejaVuSans-28" x="772.269531"/>
      <use xlink:href="#DejaVuSans-6e" x="811.283203"/>
      <use xlink:href="#DejaVuSans-75" x="874.662109"/>
      <use xlink:href="#DejaVuSans-6d" x="938.041016"/>
      <use xlink:href="#DejaVuSans-65" x="1035.453125"/>
      <use xlink:href="#DejaVuSans-72" x="1096.976562"/>
      <use xlink:href="#DejaVuSans-61" x="1138.089844"/>
      <use xlink:href="#DejaVuSans-74" x="1199.369141"/>
      <use xlink:href="#DejaVuSans-6f" x="1238.578125"/>
      <use xlink:href="#DejaVuSans-72" x="1299.759766"/>
      <use xlink:href="#DejaVuSans-29" x="1340.873047"/>
     </g>
    </g>
   </g>
   <g id="PathCollection_1">
    <defs>
     <path id="mba4817be73" d="M 0 3 
C 0.795609 3 1.55874 2.683901 2.12132 2.12132 
C 2.683901 1.55874 3 0.795609 3 0 
C 3 -0.795609 2.683901 -1.55874 2.12132 -2.12132 
C 1.55874 -2.683901 0.795609 -3 0 -3 
C -0.795609 -3 -1.55874 -2.683901 -2.12132 -2.12132 
C -2.683901 -1.55874 -3 -0.795609 -3 0 
C -3 0.795609 -2.683901 1.55874 -2.12132 2.12132 
C -1.55874 2.683901 -0.795609 3 0 3 
z
" style="stroke: #e24a33; stroke-width: 0.5"/>
    </defs>
    <g clip-path="url(#pab148e8959)">
     <use xlink:href="#mba4817be73" x="111.042187" y="177.120568" style="fill: #e24a33; stroke: #e24a33; stroke-width: 0.5"/>
    </g>
   </g>
   <g id="line2d_1">
    <path d="M 38.910938 249.121705 
L 39.271955 244.027908 
L 39.993989 240.29899 
L 40.716024 237.731629 
L 41.799076 234.714272 
L 43.243145 231.476275 
L 45.048231 228.119443 
L 46.853317 225.22968 
L 49.019421 222.167866 
L 51.546542 218.986397 
L 54.43468 215.719446 
L 57.683835 212.389814 
L 61.294008 209.013109 
L 65.265198 205.600286 
L 69.597405 202.159219 
L 74.651647 198.439067 
L 80.066906 194.734838 
L 86.2042 190.820536 
L 92.70251 186.943992 
L 99.922856 182.902347 
L 107.865236 178.724033 
L 116.168633 174.605883 
L 125.194064 170.373518 
L 134.941531 166.044394 
L 145.772049 161.484712 
L 157.324601 156.869122 
L 169.599188 152.205612 
L 182.956827 147.373195 
L 197.036501 142.516437 
L 212.199226 137.52221 
L 228.445003 132.408159 
L 245.773832 127.189361 
L 264.185712 121.878703 
L 283.680645 116.487219 
L 304.619646 110.930464 
L 326.6417 105.31777 
L 350.107822 99.568666 
L 375.018013 93.698289 
L 399.567187 88.122269 
L 399.567187 88.122269 
" clip-path="url(#pab148e8959)" style="fill: none; stroke: #808080; stroke-width: 1.5; stroke-linecap: round"/>
   </g>
   <g id="line2d_2">
    <path d="M 38.910938 213.121136 
L 399.567187 33.118295 
L 399.567187 33.118295 
" clip-path="url(#pab148e8959)" style="fill: none; stroke-dasharray: 9.6,2.4,1.5,2.4; stroke-dashoffset: 0; stroke: #1a1a1a; stroke-width: 1.5"/>
   </g>
   <g id="patch_3">
    <path d="M 20.878125 259.921875 
L 20.878125 22.318125 
" style="fill: none; stroke: #262626; stroke-linejoin: miter; stroke-linecap: square"/>
   </g>
   <g id="patch_4">
    <path d="M 417.6 259.921875 
L 417.6 22.318125 
" style="fill: none; stroke: #262626; stroke-linejoin: miter; stroke-linecap: square"/>
   </g>
   <g id="patch_5">
    <path d="M 20.878125 259.921875 
L 417.6 259.921875 
" style="fill: none; stroke: #262626; stroke-linejoin: miter; stroke-linecap: square"/>
   </g>
   <g id="patch_6">
    <path d="M 20.878125 22.318125 
L 417.6 22.318125 
" style="fill: none; stroke: #262626; stroke-linejoin: miter; stroke-linecap: square"/>
   </g>
   <g id="text_3">
    <!-- Omega frontier -->
    <g style="fill: #262626" transform="translate(173.491875 16.318125)scale(0.12 -0.12)">
     <defs>
      <path id="DejaVuSans-66" d="M 2375 4863 
L 2375 4384 
L 1825 4384 
Q 1516 4384 1395 4259 
Q 1275 4134 1275 3809 
L 1275 3500 
L 2222 3500 
L 2222 3053 
L 1275 3053 
L 1275 0 
L 697 0 
L 697 3053 
L 147 3053 
L 147 3500 
L 697 3500 
L 697 3744 
Q 697 4328 969 4595 
Q 1241 4863 1831 4863 
L 2375 4863 
z
" transform="scale(0.015625)"/>
     </defs>
     <use xlink:href="#DejaVuSans-4f"/>
     <use xlink:href="#DejaVuSans-6d" x="78.710938"/>
     <use xlink:href="#DejaVuSans-65" x="176.123047"/>
     <use xlink:href="#DejaVuSans-67" x="237.646484"/>
     <use xlink:href="#DejaVuSans-61" x="301.123047"/>
     <use xlink:href="#DejaVuSans-20" x="362.402344"/>
     <use xlink:href="#DejaVuSans-66" x="394.189453"/>
     <use xlink:href="#DejaVuSans-72" x="429.394531"/>
     <use xlink:href="#DejaVuSans-6f" x="468.257812"/>
     <use xlink:href="#DejaVuSans-6e" x="529.439453"/>
     <use xlink:href="#DejaVuSans-74" x="592.818359"/>
     <use xlink:href="#DejaVuSans-69" x="632.027344"/>
     <use xlink:href="#DejaVuSans-65" x="659.810547"/>
     <use xlink:href="#DejaVuSans-72" x="721.333984"/>
    </g>
   </g>
   <g id="legend_1">
    <g id="patch_7">
     <path d="M 28.578125 79.555938 
L 145.719531 79.555938 
Q 147.919531 79.555938 147.919531 77.355938 
L 147.919531 30.018125 
Q 147.919531 27.818125 145.719531 27.818125 
L 28.578125 27.818125 
Q 26.378125 27.818125 26.378125 30.018125 
L 26.378125 77.355938 
Q 26.378125 79.555938 28.578125 79.555938 
z
" style="fill: #ffffff; opacity: 0.8; stroke: #cccccc; stroke-width: 0.5; stroke-linejoin: miter"/>
    </g>
    <g id="line2d_3">
     <path d="M 30.778125 36.726406 
L 41.778125 36.726406 
L 52.778125 36.726406 
" style="fill: none; stroke: #808080; stroke-width: 1.5; stroke-linecap: round"/>
    </g>
    <g id="text_4">
     <!-- omega frontier -->
     <g style="fill: #262626" transform="translate(61.578125 40.576406)scale(0.11 -0.11)">
      <use xlink:href="#DejaVuSans-6f"/>
      <use xlink:href="#DejaVuSans-6d" x="61.181641"/>
      <use xlink:href="#DejaVuSans-65" x="158.59375"/>
      <use xlink:href="#DejaVuSans-67" x="220.117188"/>
      <use xlink:href="#DejaVuSans-61" x="283.59375"/>
      <use xlink:href="#DejaVuSans-20" x="344.873047"/>
      <use xlink:href="#DejaVuSans-66" x="376.660156"/>
      <use xlink:href="#DejaVuSans-72" x="411.865234"/>
      <use xlink:href="#DejaVuSans-6f" x="450.728516"/>
      <use xlink:href="#DejaVuSans-6e" x="511.910156"/>
      <use xlink:href="#DejaVuSans-74" x="575.289062"/>
      <use xlink:href="#DejaVuSans-69" x="614.498047"/>
      <use xlink:href="#DejaVuSans-65" x="642.28125"/>
      <use xlink:href="#DejaVuSans-72" x="703.804688"/>
     </g>
    </g>
    <g id="line2d_4">
     <path d="M 30.778125 52.872344 
L 41.778125 52.872344 
L 52.778125 52.872344 
" style="fill: none; stroke-dasharray: 9.6,2.4,1.5,2.4; stroke-dashoffset: 0; stroke: #1a1a1a; stroke-width: 1.5"/>
    </g>
    <g id="text_5">
     <!-- tangent line -->
     <g style="fill: #262626" transform="translate(61.578125 56.722344)scale(0.11 -0.11)">
      <defs>
       <path id="DejaVuSans-6c" d="M 603 4863 
L 1178 4863 
L 1178 0 
L 603 0 
L 603 4863 
z
" transform="scale(0.015625)"/>
      </defs>
      <use xlink:href="#DejaVuSans-74"/>
      <use xlink:href="#DejaVuSans-61" x="39.208984"/>
      <use xlink:href="#DejaVuSans-6e" x="100.488281"/>
      <use xlink:href="#DejaVuSans-67" x="163.867188"/>
      <use xlink:href="#DejaVuSans-65" x="227.34375"/>
      <use xlink:href="#DejaVuSans-6e" x="288.867188"/>
      <use xlink:href="#DejaVuSans-74" x="352.246094"/>
      <use xlink:href="#DejaVuSans-20" x="391.455078"/>
      <use xlink:href="#DejaVuSans-6c" x="423.242188"/>
      <use xlink:href="#DejaVuSans-69" x="451.025391"/>
      <use xlink:href="#DejaVuSans-6e" x="478.808594"/>
      <use xlink:href="#DejaVuSans-65" x="542.1875"/>
     </g>
    </g>
    <g id="PathCollection_2">
     <g>
      <use xlink:href="#mba4817be73" x="41.778125" y="69.980781" style="fill: #e24a33; stroke: #e24a33; stroke-width: 0.5"/>
     </g>
    </g>
    <g id="text_6">
     <!-- tangent point -->
     <g style="fill: #262626" transform="translate(61.578125 72.868281)scale(0.11 -0.11)">
      <defs>
       <path id="DejaVuSans-70" d="M 1159 525 
L 1159 -1331 
L 581 -1331 
L 581 3500 
L 1159 3500 
L 1159 2969 
Q 1341 3281 1617 3432 
Q 1894 3584 2278 3584 
Q 2916 3584 3314 3078 
Q 3713 2572 3713 1747 
Q 3713 922 3314 415 
Q 2916 -91 2278 -91 
Q 1894 -91 1617 61 
Q 1341 213 1159 525 
z
M 3116 1747 
Q 3116 2381 2855 2742 
Q 2594 3103 2138 3103 
Q 1681 3103 1420 2742 
Q 1159 2381 1159 1747 
Q 1159 1113 1420 752 
Q 1681 391 2138 391 
Q 2594 391 2855 752 
Q 3116 1113 3116 1747 
z
" transform="scale(0.015625)"/>
      </defs>
      <use xlink:href="#DejaVuSans-74"/>
      <use xlink:href="#DejaVuSans-61" x="39.208984"/>
      <use xlink:href="#DejaVuSans-6e" x="100.488281"/>
      <use xlink:href="#DejaVuSans-67" x="163.867188"/>
      <use xlink:href="#DejaVuSans-65" x="227.34375"/>
      <use xlink:href="#DejaVuSans-6e" x="288.867188"/>
      <use xlink:href="#DejaVuSans-74" x="352.246094"/>
      <use xlink:href="#DejaVuSans-20" x="391.455078"/>
      <use xlink:href="#DejaVuSans-70" x="423.242188"/>
      <use xlink:href="#DejaVuSans-6f" x="486.71875"/>
      <use xlink:href="#DejaVuSans-69" x="547.900391"/>
      <use xlink:href="#DejaVuSans-6e" x="575.683594"/>
      <use xlink:href="#DejaVuSans-74" x="639.0625"/>
     </g>
    </g>
   </g>
  </g>
 </g>
 <defs>
  <clipPath id="pab148e8959">
   <rect x="20.878125" y="22.318125" width="396.721875" height="237.60375"/>
  </clipPath>
 </defs>
</svg>
