<?xml version="1.0" encoding="UTF-8" standalone="no"?>
<!DOCTYPE svg PUBLIC "-//W3C//DTD SVG 1.1//EN"
 "http://www.w3.org/Graphics/SVG/1.1/DTD/svg11.dtd">
<!-- Generated by graphviz version 2.43.0 (0)
 -->
<!-- Title: packages_scikit&#45;portfolio Pages: 1 -->
<svg width="1497pt" height="835pt"
 viewBox="0.00 0.00 1497.00 835.00" xmlns="http://www.w3.org/2000/svg" xmlns:xlink="http://www.w3.org/1999/xlink">
<g id="graph0" class="graph" transform="scale(1 1) rotate(0) translate(4 831)">
<title>packages_scikit&#45;portfolio</title>
<polygon fill="white" stroke="transparent" points="-4,4 -4,-831 1493,-831 1493,4 -4,4"/>
<!-- skportfolio -->
<g id="node1" class="node">
<title>skportfolio</title>
<polygon fill="aliceblue" stroke="aliceblue" points="1396,-460 1320,-460 1320,-424 1396,-424 1396,-460"/>
<text text-anchor="middle" x="1358" y="-438.3" font-family="Times,serif" font-size="14.00">skportfolio</text>
</g>
<!-- skportfolio._base -->
<g id="node2" class="node">
<title>skportfolio._base</title>
<polygon fill="aliceblue" stroke="aliceblue" points="606.5,-572 496.5,-572 496.5,-536 606.5,-536 606.5,-572"/>
<text text-anchor="middle" x="551.5" y="-550.3" font-family="Times,serif" font-size="14.00">skportfolio._base</text>
</g>
<!-- skportfolio&#45;&gt;skportfolio._base -->
<g id="edge1" class="edge">
<title>skportfolio&#45;&gt;skportfolio._base</title>
<path fill="none" stroke="black" d="M1319.7,-453.36C1286.25,-463.25 1235.68,-477.46 1191,-487 1056.8,-515.66 1022.45,-520.41 886,-535 792.62,-544.98 683.93,-549.94 616.67,-552.23"/>
<polygon fill="black" stroke="black" points="606.64,-552.57 616.49,-547.74 611.64,-552.4 616.64,-552.23 616.64,-552.23 616.64,-552.23 611.64,-552.4 616.79,-556.73 606.64,-552.57 606.64,-552.57"/>
</g>
<!-- skportfolio.frontier -->
<g id="node7" class="node">
<title>skportfolio.frontier</title>
<polygon fill="aquamarine" stroke="aquamarine" points="1116.5,-273 996.5,-273 996.5,-237 1116.5,-237 1116.5,-273"/>
<text text-anchor="middle" x="1056.5" y="-251.3" font-family="Times,serif" font-size="14.00">skportfolio.frontier</text>
</g>
<!-- skportfolio&#45;&gt;skportfolio.frontier -->
<g id="edge2" class="edge">
<title>skportfolio&#45;&gt;skportfolio.frontier</title>
<path fill="none" stroke="black" d="M1341.47,-423.85C1314.12,-392.98 1254.23,-330.2 1191,-295 1171.11,-283.93 1147.81,-275.59 1126.29,-269.47"/>
<polygon fill="black" stroke="black" points="1116.54,-266.82 1127.37,-265.11 1121.37,-268.13 1126.19,-269.45 1126.19,-269.45 1126.19,-269.45 1121.37,-268.13 1125.01,-273.79 1116.54,-266.82 1116.54,-266.82"/>
</g>
<!-- skportfolio.metrics -->
<g id="node15" class="node">
<title>skportfolio.metrics</title>
<polygon fill="burlywood" stroke="burlywood" points="394.5,-726 274.5,-726 274.5,-690 394.5,-690 394.5,-726"/>
<text text-anchor="middle" x="334.5" y="-704.3" font-family="Times,serif" font-size="14.00">skportfolio.metrics</text>
</g>
<!-- skportfolio&#45;&gt;skportfolio.metrics -->
<g id="edge3" class="edge">
<title>skportfolio&#45;&gt;skportfolio.metrics</title>
<path fill="none" stroke="black" d="M1336.49,-460.26C1307.62,-487.12 1255.36,-540.16 1227,-596 1196.35,-656.36 1244.23,-702.17 1191,-744 1129.86,-792.05 597.07,-737.5 404.54,-715.97"/>
<polygon fill="black" stroke="black" points="394.53,-714.85 404.97,-711.49 399.5,-715.4 404.47,-715.96 404.47,-715.96 404.47,-715.96 399.5,-715.4 403.97,-720.43 394.53,-714.85 394.53,-714.85"/>
</g>
<!-- skportfolio.misc -->
<g id="node18" class="node">
<title>skportfolio.misc</title>
<polygon fill="cadetblue" stroke="cadetblue" points="1109.5,-460 1003.5,-460 1003.5,-424 1109.5,-424 1109.5,-460"/>
<text text-anchor="middle" x="1056.5" y="-438.3" font-family="Times,serif" font-size="14.00">skportfolio.misc</text>
</g>
<!-- skportfolio&#45;&gt;skportfolio.misc -->
<g id="edge4" class="edge">
<title>skportfolio&#45;&gt;skportfolio.misc</title>
<path fill="none" stroke="black" d="M1319.98,-442C1269.97,-442 1180.16,-442 1119.7,-442"/>
<polygon fill="black" stroke="black" points="1109.51,-442 1119.51,-437.5 1114.51,-442 1119.51,-442 1119.51,-442 1119.51,-442 1114.51,-442 1119.51,-446.5 1109.51,-442 1109.51,-442"/>
</g>
<!-- skportfolio.misc._hrp -->
<g id="node19" class="node">
<title>skportfolio.misc._hrp</title>
<polygon fill="cadetblue" stroke="cadetblue" points="845.5,-472 711.5,-472 711.5,-436 845.5,-436 845.5,-472"/>
<text text-anchor="middle" x="778.5" y="-450.3" font-family="Times,serif" font-size="14.00">skportfolio.misc._hrp</text>
</g>
<!-- skportfolio&#45;&gt;skportfolio.misc._hrp -->
<g id="edge5" class="edge">
<title>skportfolio&#45;&gt;skportfolio.misc._hrp</title>
<path fill="none" stroke="black" d="M1319.96,-449.78C1286.46,-456.4 1235.67,-465.39 1191,-469 1071.83,-478.63 1041.39,-475.27 922,-469 900.45,-467.87 877.14,-465.78 855.73,-463.52"/>
<polygon fill="black" stroke="black" points="845.72,-462.43 856.15,-459.03 850.69,-462.97 855.66,-463.51 855.66,-463.51 855.66,-463.51 850.69,-462.97 855.18,-467.98 845.72,-462.43 845.72,-462.43"/>
</g>
<!-- skportfolio.misc._repo -->
<g id="node20" class="node">
<title>skportfolio.misc._repo</title>
<polygon fill="cadetblue" stroke="cadetblue" points="848.5,-418 708.5,-418 708.5,-382 848.5,-382 848.5,-418"/>
<text text-anchor="middle" x="778.5" y="-396.3" font-family="Times,serif" font-size="14.00">skportfolio.misc._repo</text>
</g>
<!-- skportfolio&#45;&gt;skportfolio.misc._repo -->
<g id="edge6" class="edge">
<title>skportfolio&#45;&gt;skportfolio.misc._repo</title>
<path fill="none" stroke="black" d="M1319.92,-434.61C1286.4,-428.25 1235.6,-419.42 1191,-415 1075.93,-403.59 941.99,-400.61 858.96,-399.96"/>
<polygon fill="black" stroke="black" points="848.85,-399.89 858.88,-395.46 853.85,-399.93 858.85,-399.96 858.85,-399.96 858.85,-399.96 853.85,-399.93 858.82,-404.46 848.85,-399.89 848.85,-399.89"/>
</g>
<!-- skportfolio.model_selection -->
<g id="node21" class="node">
<title>skportfolio.model_selection</title>
<polygon fill="chartreuse" stroke="chartreuse" points="1141,-717 972,-717 972,-681 1141,-681 1141,-717"/>
<text text-anchor="middle" x="1056.5" y="-695.3" font-family="Times,serif" font-size="14.00">skportfolio.model_selection</text>
</g>
<!-- skportfolio&#45;&gt;skportfolio.model_selection -->
<g id="edge7" class="edge">
<title>skportfolio&#45;&gt;skportfolio.model_selection</title>
<path fill="none" stroke="black" d="M1338.89,-460.2C1312.06,-487.81 1261.27,-542.74 1227,-596 1206.78,-627.43 1220.43,-648.97 1191,-672 1179.35,-681.12 1165.42,-687.39 1151.02,-691.67"/>
<polygon fill="black" stroke="black" points="1141,-694.32 1149.52,-687.41 1145.83,-693.04 1150.67,-691.76 1150.67,-691.76 1150.67,-691.76 1145.83,-693.04 1151.82,-696.11 1141,-694.32 1141,-694.32"/>
</g>
<!-- skportfolio.plotting -->
<g id="node25" class="node">
<title>skportfolio.plotting</title>
<polygon fill="chocolate" stroke="chocolate" points="612.5,-258 490.5,-258 490.5,-222 612.5,-222 612.5,-258"/>
<text text-anchor="middle" x="551.5" y="-236.3" font-family="Times,serif" font-size="14.00">skportfolio.plotting</text>
</g>
<!-- skportfolio&#45;&gt;skportfolio.plotting -->
<g id="edge8" class="edge">
<title>skportfolio&#45;&gt;skportfolio.plotting</title>
<path fill="none" stroke="black" d="M1325.92,-423.89C1293.33,-405.65 1240.13,-378 1191,-362 967.62,-289.24 901.14,-314.22 671,-267 655.25,-263.77 638.38,-260.07 622.45,-256.47"/>
<polygon fill="black" stroke="black" points="612.67,-254.24 623.42,-252.07 617.55,-255.35 622.43,-256.46 622.43,-256.46 622.43,-256.46 617.55,-255.35 621.43,-260.85 612.67,-254.24 612.67,-254.24"/>
</g>
<!-- skportfolio.riskreturn -->
<g id="node27" class="node">
<title>skportfolio.riskreturn</title>
<polygon fill="coral" stroke="coral" points="617.5,-404 485.5,-404 485.5,-368 617.5,-368 617.5,-404"/>
<text text-anchor="middle" x="551.5" y="-382.3" font-family="Times,serif" font-size="14.00">skportfolio.riskreturn</text>
</g>
<!-- skportfolio&#45;&gt;skportfolio.riskreturn -->
<g id="edge9" class="edge">
<title>skportfolio&#45;&gt;skportfolio.riskreturn</title>
<path fill="none" stroke="black" d="M1319.87,-429.8C1286.52,-419.35 1236.01,-404.8 1191,-397 963.04,-357.49 902.01,-360.37 671,-373 657.03,-373.76 642.18,-375.03 627.88,-376.48"/>
<polygon fill="black" stroke="black" points="617.59,-377.57 627.06,-372.04 622.56,-377.04 627.53,-376.52 627.53,-376.52 627.53,-376.52 622.56,-377.04 628.01,-380.99 617.59,-377.57 617.59,-377.57"/>
</g>
<!-- skportfolio._base&#45;&gt;skportfolio.metrics -->
<g id="edge10" class="edge">
<title>skportfolio._base&#45;&gt;skportfolio.metrics</title>
<path fill="none" stroke="black" d="M524.99,-572.27C486.1,-600.13 411.94,-653.25 368.83,-684.13"/>
<polygon fill="black" stroke="black" points="360.64,-689.99 366.15,-680.51 364.71,-687.08 368.77,-684.17 368.77,-684.17 368.77,-684.17 364.71,-687.08 371.39,-687.83 360.64,-689.99 360.64,-689.99"/>
</g>
<!-- skportfolio.riskreturn._riskreturn -->
<g id="node28" class="node">
<title>skportfolio.riskreturn._riskreturn</title>
<polygon fill="coral" stroke="coral" points="432,-450 237,-450 237,-414 432,-414 432,-450"/>
<text text-anchor="middle" x="334.5" y="-428.3" font-family="Times,serif" font-size="14.00">skportfolio.riskreturn._riskreturn</text>
</g>
<!-- skportfolio._base&#45;&gt;skportfolio.riskreturn._riskreturn -->
<g id="edge11" class="edge">
<title>skportfolio._base&#45;&gt;skportfolio.riskreturn._riskreturn</title>
<path fill="none" stroke="black" d="M498.65,-535.96C488.3,-531.79 477.66,-527.07 468,-522 431.56,-502.88 392.98,-475.79 366.9,-456.33"/>
<polygon fill="black" stroke="black" points="358.89,-450.3 369.59,-452.72 362.89,-453.31 366.88,-456.32 366.88,-456.32 366.88,-456.32 362.89,-453.31 364.17,-459.91 358.89,-450.3 358.89,-450.3"/>
</g>
<!-- skportfolio._constants -->
<g id="node3" class="node">
<title>skportfolio._constants</title>
<polygon fill="aliceblue" stroke="aliceblue" points="169,-230 32,-230 32,-194 169,-194 169,-230"/>
<text text-anchor="middle" x="100.5" y="-208.3" font-family="Times,serif" font-size="14.00">skportfolio._constants</text>
</g>
<!-- skportfolio.datasets -->
<g id="node4" class="node">
<title>skportfolio.datasets</title>
<polygon fill="aliceblue" stroke="aliceblue" points="839.5,-618 717.5,-618 717.5,-582 839.5,-582 839.5,-618"/>
<text text-anchor="middle" x="778.5" y="-596.3" font-family="Times,serif" font-size="14.00">skportfolio.datasets</text>
</g>
<!-- skportfolio.datasets&#45;&gt;skportfolio._base -->
<g id="edge12" class="edge">
<title>skportfolio.datasets&#45;&gt;skportfolio._base</title>
<path fill="none" stroke="black" d="M717.5,-587.73C686.37,-581.37 648.33,-573.59 616.62,-567.11"/>
<polygon fill="black" stroke="black" points="606.56,-565.05 617.26,-562.65 611.46,-566.05 616.36,-567.06 616.36,-567.06 616.36,-567.06 611.46,-566.05 615.46,-571.47 606.56,-565.05 606.56,-565.05"/>
</g>
<!-- skportfolio.ensemble -->
<g id="node5" class="node">
<title>skportfolio.ensemble</title>
<polygon fill="antiquewhite" stroke="antiquewhite" points="1122,-663 991,-663 991,-627 1122,-627 1122,-663"/>
<text text-anchor="middle" x="1056.5" y="-641.3" font-family="Times,serif" font-size="14.00">skportfolio.ensemble</text>
</g>
<!-- skportfolio.ensemble._ensemble -->
<g id="node6" class="node">
<title>skportfolio.ensemble._ensemble</title>
<polygon fill="antiquewhite" stroke="antiquewhite" points="875.5,-672 681.5,-672 681.5,-636 875.5,-636 875.5,-672"/>
<text text-anchor="middle" x="778.5" y="-650.3" font-family="Times,serif" font-size="14.00">skportfolio.ensemble._ensemble</text>
</g>
<!-- skportfolio.ensemble&#45;&gt;skportfolio.ensemble._ensemble -->
<g id="edge13" class="edge">
<title>skportfolio.ensemble&#45;&gt;skportfolio.ensemble._ensemble</title>
<path fill="none" stroke="black" d="M990.79,-647.11C959.61,-648.13 921.4,-649.37 886.09,-650.52"/>
<polygon fill="black" stroke="black" points="875.73,-650.86 885.58,-646.04 880.72,-650.7 885.72,-650.54 885.72,-650.54 885.72,-650.54 880.72,-650.7 885.87,-655.03 875.73,-650.86 875.73,-650.86"/>
</g>
<!-- skportfolio.ensemble._ensemble&#45;&gt;skportfolio._base -->
<g id="edge14" class="edge">
<title>skportfolio.ensemble._ensemble&#45;&gt;skportfolio._base</title>
<path fill="none" stroke="black" d="M695.54,-635.94C687.14,-633.28 678.82,-630.31 671,-627 640.41,-614.06 608.51,-593.97 585.53,-578.14"/>
<polygon fill="black" stroke="black" points="577.17,-572.31 587.95,-574.35 581.27,-575.17 585.37,-578.04 585.37,-578.04 585.37,-578.04 581.27,-575.17 582.79,-581.72 577.17,-572.31 577.17,-572.31"/>
</g>
<!-- skportfolio.ensemble._ensemble&#45;&gt;skportfolio.riskreturn._riskreturn -->
<g id="edge15" class="edge">
<title>skportfolio.ensemble._ensemble&#45;&gt;skportfolio.riskreturn._riskreturn</title>
<path fill="none" stroke="black" d="M681.15,-646.46C617.03,-637.92 532.96,-619.74 468,-581 416.28,-550.15 373.67,-492.43 351.67,-458.6"/>
<polygon fill="black" stroke="black" points="346.27,-450.14 355.44,-456.15 348.96,-454.35 351.65,-458.57 351.65,-458.57 351.65,-458.57 348.96,-454.35 347.86,-460.99 346.27,-450.14 346.27,-450.14"/>
</g>
<!-- skportfolio.frontier._efficientfrontier -->
<g id="node10" class="node">
<title>skportfolio.frontier._efficientfrontier</title>
<polygon fill="aquamarine" stroke="aquamarine" points="886,-258 671,-258 671,-222 886,-222 886,-258"/>
<text text-anchor="middle" x="778.5" y="-236.3" font-family="Times,serif" font-size="14.00">skportfolio.frontier._efficientfrontier</text>
</g>
<!-- skportfolio.frontier&#45;&gt;skportfolio.frontier._efficientfrontier -->
<g id="edge16" class="edge">
<title>skportfolio.frontier&#45;&gt;skportfolio.frontier._efficientfrontier</title>
<path fill="none" stroke="black" d="M996.29,-251.78C967.1,-250.2 930.83,-248.22 896.36,-246.35"/>
<polygon fill="black" stroke="black" points="886.22,-245.8 896.45,-241.85 891.21,-246.07 896.2,-246.34 896.2,-246.34 896.2,-246.34 891.21,-246.07 895.96,-250.84 886.22,-245.8 886.22,-245.8"/>
</g>
<!-- skportfolio.frontier._base_frontier -->
<g id="node8" class="node">
<title>skportfolio.frontier._base_frontier</title>
<polygon fill="aquamarine" stroke="aquamarine" points="201,-63 0,-63 0,-27 201,-27 201,-63"/>
<text text-anchor="middle" x="100.5" y="-41.3" font-family="Times,serif" font-size="14.00">skportfolio.frontier._base_frontier</text>
</g>
<!-- skportfolio.frontier._cla -->
<g id="node9" class="node">
<title>skportfolio.frontier._cla</title>
<polygon fill="aquamarine" stroke="aquamarine" points="851.5,-526 705.5,-526 705.5,-490 851.5,-490 851.5,-526"/>
<text text-anchor="middle" x="778.5" y="-504.3" font-family="Times,serif" font-size="14.00">skportfolio.frontier._cla</text>
</g>
<!-- skportfolio.frontier._cla&#45;&gt;skportfolio._base -->
<g id="edge17" class="edge">
<title>skportfolio.frontier._cla&#45;&gt;skportfolio._base</title>
<path fill="none" stroke="black" d="M705.38,-522.74C676.87,-528.57 644.38,-535.22 616.7,-540.87"/>
<polygon fill="black" stroke="black" points="606.74,-542.91 615.64,-536.5 611.64,-541.91 616.54,-540.91 616.54,-540.91 616.54,-540.91 611.64,-541.91 617.44,-545.32 606.74,-542.91 606.74,-542.91"/>
</g>
<!-- skportfolio.frontier._cla&#45;&gt;skportfolio.riskreturn._riskreturn -->
<g id="edge18" class="edge">
<title>skportfolio.frontier._cla&#45;&gt;skportfolio.riskreturn._riskreturn</title>
<path fill="none" stroke="black" d="M705.26,-499.72C642.33,-492.03 548.76,-479.46 468,-464 450.71,-460.69 432.28,-456.6 414.83,-452.47"/>
<polygon fill="black" stroke="black" points="404.68,-450.03 415.46,-447.99 409.54,-451.2 414.41,-452.37 414.41,-452.37 414.41,-452.37 409.54,-451.2 413.36,-456.74 404.68,-450.03 404.68,-450.03"/>
</g>
<!-- skportfolio.frontier._efficientfrontier&#45;&gt;skportfolio._base -->
<g id="edge19" class="edge">
<title>skportfolio.frontier._efficientfrontier&#45;&gt;skportfolio._base</title>
<path fill="none" stroke="black" d="M762.12,-258.07C740.88,-283.26 701.74,-330.61 671,-373 632.44,-426.17 591.27,-491.16 569.04,-527.01"/>
<polygon fill="black" stroke="black" points="563.55,-535.89 564.98,-525.02 566.18,-531.64 568.81,-527.38 568.81,-527.38 568.81,-527.38 566.18,-531.64 572.64,-529.75 563.55,-535.89 563.55,-535.89"/>
</g>
<!-- skportfolio.frontier._efficientfrontier&#45;&gt;skportfolio._constants -->
<g id="edge20" class="edge">
<title>skportfolio.frontier._efficientfrontier&#45;&gt;skportfolio._constants</title>
<path fill="none" stroke="black" d="M712.35,-221.92C688.23,-215.9 660.54,-209.77 635,-206 459.93,-180.14 413.58,-182.32 237,-194 218.23,-195.24 198.1,-197.44 179.24,-199.88"/>
<polygon fill="black" stroke="black" points="169.22,-201.22 178.53,-195.44 174.17,-200.56 179.13,-199.9 179.13,-199.9 179.13,-199.9 174.17,-200.56 179.72,-204.36 169.22,-201.22 169.22,-201.22"/>
</g>
<!-- skportfolio.frontier._mixins -->
<g id="node13" class="node">
<title>skportfolio.frontier._mixins</title>
<polygon fill="aquamarine" stroke="aquamarine" points="635,-109 468,-109 468,-73 635,-73 635,-109"/>
<text text-anchor="middle" x="551.5" y="-87.3" font-family="Times,serif" font-size="14.00">skportfolio.frontier._mixins</text>
</g>
<!-- skportfolio.frontier._efficientfrontier&#45;&gt;skportfolio.frontier._mixins -->
<g id="edge21" class="edge">
<title>skportfolio.frontier._efficientfrontier&#45;&gt;skportfolio.frontier._mixins</title>
<path fill="none" stroke="black" d="M752.01,-221.92C723.7,-201.96 676.49,-169.07 635,-142 620.89,-132.79 605.2,-122.99 591.33,-114.46"/>
<polygon fill="black" stroke="black" points="582.51,-109.07 593.38,-110.45 586.77,-111.68 591.04,-114.29 591.04,-114.29 591.04,-114.29 586.77,-111.68 588.69,-118.12 582.51,-109.07 582.51,-109.07"/>
</g>
<!-- skportfolio.frontier._efficientfrontier&#45;&gt;skportfolio.plotting -->
<g id="edge22" class="edge">
<title>skportfolio.frontier._efficientfrontier&#45;&gt;skportfolio.plotting</title>
<path fill="none" stroke="black" d="M670.93,-240C654.69,-240 638.28,-240 623.07,-240"/>
<polygon fill="black" stroke="black" points="612.74,-240 622.74,-235.5 617.74,-240 622.74,-240 622.74,-240 622.74,-240 617.74,-240 622.74,-244.5 612.74,-240 612.74,-240"/>
</g>
<!-- skportfolio.frontier._efficientfrontier&#45;&gt;skportfolio.riskreturn._riskreturn -->
<g id="edge23" class="edge">
<title>skportfolio.frontier._efficientfrontier&#45;&gt;skportfolio.riskreturn._riskreturn</title>
<path fill="none" stroke="black" d="M751.1,-258.16C723.34,-276.48 677.84,-304.37 635,-321 564.04,-348.55 539.14,-331.93 468,-359 433.75,-372.04 397.47,-392.55 371.55,-408.52"/>
<polygon fill="black" stroke="black" points="362.83,-413.96 368.93,-404.85 367.07,-411.31 371.31,-408.66 371.31,-408.66 371.31,-408.66 367.07,-411.31 373.7,-412.48 362.83,-413.96 362.83,-413.96"/>
</g>
<!-- skportfolio.frontier._mad -->
<g id="node11" class="node">
<title>skportfolio.frontier._mad</title>
<polygon fill="aquamarine" stroke="aquamarine" points="411.5,-90 257.5,-90 257.5,-54 411.5,-54 411.5,-90"/>
<text text-anchor="middle" x="334.5" y="-68.3" font-family="Times,serif" font-size="14.00">skportfolio.frontier._mad</text>
</g>
<!-- skportfolio.frontier._mad&#45;&gt;skportfolio.frontier._base_frontier -->
<g id="edge24" class="edge">
<title>skportfolio.frontier._mad&#45;&gt;skportfolio.frontier._base_frontier</title>
<path fill="none" stroke="black" d="M257.21,-63.12C242.48,-61.41 226.77,-59.58 211.22,-57.77"/>
<polygon fill="black" stroke="black" points="201.03,-56.58 211.48,-53.27 206,-57.16 210.96,-57.74 210.96,-57.74 210.96,-57.74 206,-57.16 210.44,-62.21 201.03,-56.58 201.03,-56.58"/>
</g>
<!-- skportfolio.frontier._misc -->
<g id="node12" class="node">
<title>skportfolio.frontier._misc</title>
<polygon fill="aquamarine" stroke="aquamarine" points="1436,-641 1280,-641 1280,-605 1436,-605 1436,-641"/>
<text text-anchor="middle" x="1358" y="-619.3" font-family="Times,serif" font-size="14.00">skportfolio.frontier._misc</text>
</g>
<!-- skportfolio.frontier._mixins&#45;&gt;skportfolio._constants -->
<g id="edge25" class="edge">
<title>skportfolio.frontier._mixins&#45;&gt;skportfolio._constants</title>
<path fill="none" stroke="black" d="M467.95,-97.27C403.73,-103.84 313.05,-116.88 237,-142 202.14,-153.52 165.29,-173.09 138.84,-188.62"/>
<polygon fill="black" stroke="black" points="129.93,-193.92 136.22,-184.94 134.23,-191.36 138.53,-188.8 138.53,-188.8 138.53,-188.8 134.23,-191.36 140.83,-192.67 129.93,-193.92 129.93,-193.92"/>
</g>
<!-- skportfolio.frontier._mixins&#45;&gt;skportfolio.frontier._mad -->
<g id="edge26" class="edge">
<title>skportfolio.frontier._mixins&#45;&gt;skportfolio.frontier._mad</title>
<path fill="none" stroke="black" d="M467.99,-83.71C452.98,-82.38 437.28,-80.99 422.16,-79.66"/>
<polygon fill="black" stroke="black" points="411.79,-78.74 422.15,-75.14 416.77,-79.18 421.75,-79.62 421.75,-79.62 421.75,-79.62 416.77,-79.18 421.36,-84.11 411.79,-78.74 411.79,-78.74"/>
</g>
<!-- skportfolio.frontier._omega -->
<g id="node14" class="node">
<title>skportfolio.frontier._omega</title>
<polygon fill="aquamarine" stroke="aquamarine" points="418,-36 251,-36 251,0 418,0 418,-36"/>
<text text-anchor="middle" x="334.5" y="-14.3" font-family="Times,serif" font-size="14.00">skportfolio.frontier._omega</text>
</g>
<!-- skportfolio.frontier._mixins&#45;&gt;skportfolio.frontier._omega -->
<g id="edge27" class="edge">
<title>skportfolio.frontier._mixins&#45;&gt;skportfolio.frontier._omega</title>
<path fill="none" stroke="black" d="M506.98,-72.93C484.73,-64 457.13,-53.37 432,-45 425.93,-42.98 419.62,-40.98 413.26,-39.04"/>
<polygon fill="black" stroke="black" points="403.24,-36.05 414.11,-34.6 408.03,-37.48 412.82,-38.91 412.82,-38.91 412.82,-38.91 408.03,-37.48 411.54,-43.23 403.24,-36.05 403.24,-36.05"/>
</g>
<!-- skportfolio.frontier._omega&#45;&gt;skportfolio.frontier._base_frontier -->
<g id="edge28" class="edge">
<title>skportfolio.frontier._omega&#45;&gt;skportfolio.frontier._base_frontier</title>
<path fill="none" stroke="black" d="M250.73,-27.63C237.97,-29.12 224.63,-30.67 211.4,-32.21"/>
<polygon fill="black" stroke="black" points="201.31,-33.38 210.72,-27.76 206.27,-32.81 211.24,-32.23 211.24,-32.23 211.24,-32.23 206.27,-32.81 211.76,-36.7 201.31,-33.38 201.31,-33.38"/>
</g>
<!-- skportfolio.metrics&#45;&gt;skportfolio.metrics -->
<g id="edge29" class="edge">
<title>skportfolio.metrics&#45;&gt;skportfolio.metrics</title>
<path fill="none" stroke="black" d="M373.58,-726.15C379.59,-735.54 366.56,-744 334.5,-744 314.96,-744 302.49,-740.86 297.09,-736.28"/>
<polygon fill="black" stroke="black" points="295.42,-726.15 301.49,-735.29 296.24,-731.09 297.05,-736.02 297.05,-736.02 297.05,-736.02 296.24,-731.09 292.61,-736.75 295.42,-726.15 295.42,-726.15"/>
</g>
<!-- skportfolio.metrics._scorer -->
<g id="node16" class="node">
<title>skportfolio.metrics._scorer</title>
<polygon fill="burlywood" stroke="burlywood" points="182.5,-726 18.5,-726 18.5,-690 182.5,-690 182.5,-726"/>
<text text-anchor="middle" x="100.5" y="-704.3" font-family="Times,serif" font-size="14.00">skportfolio.metrics._scorer</text>
</g>
<!-- skportfolio.metrics&#45;&gt;skportfolio.metrics._scorer -->
<g id="edge30" class="edge">
<title>skportfolio.metrics&#45;&gt;skportfolio.metrics._scorer</title>
<path fill="none" stroke="black" d="M274.36,-708C249.61,-708 220.27,-708 192.86,-708"/>
<polygon fill="black" stroke="black" points="182.85,-708 192.85,-703.5 187.85,-708 192.85,-708 192.85,-708 192.85,-708 187.85,-708 192.85,-712.5 182.85,-708 182.85,-708"/>
</g>
<!-- skportfolio.metrics.metrics -->
<g id="node17" class="node">
<title>skportfolio.metrics.metrics</title>
<polygon fill="burlywood" stroke="burlywood" points="633.5,-312 469.5,-312 469.5,-276 633.5,-276 633.5,-312"/>
<text text-anchor="middle" x="551.5" y="-290.3" font-family="Times,serif" font-size="14.00">skportfolio.metrics.metrics</text>
</g>
<!-- skportfolio.metrics.metrics&#45;&gt;skportfolio._constants -->
<g id="edge31" class="edge">
<title>skportfolio.metrics.metrics&#45;&gt;skportfolio._constants</title>
<path fill="none" stroke="black" d="M469.19,-284.65C405.64,-276.73 315.27,-264.08 237,-248 216.2,-243.73 193.85,-238.19 173.41,-232.74"/>
<polygon fill="black" stroke="black" points="163.55,-230.08 174.37,-228.34 168.37,-231.38 173.2,-232.68 173.2,-232.68 173.2,-232.68 168.37,-231.38 172.03,-237.03 163.55,-230.08 163.55,-230.08"/>
</g>
<!-- skportfolio.metrics.metrics&#45;&gt;skportfolio.riskreturn._riskreturn -->
<g id="edge32" class="edge">
<title>skportfolio.metrics.metrics&#45;&gt;skportfolio.riskreturn._riskreturn</title>
<path fill="none" stroke="black" d="M496.58,-312.17C486.82,-316.23 476.92,-320.86 468,-326 427.97,-349.04 387.28,-383.62 361.74,-406.96"/>
<polygon fill="black" stroke="black" points="354.32,-413.82 358.61,-403.72 358,-410.42 361.67,-407.03 361.67,-407.03 361.67,-407.03 358,-410.42 364.72,-410.33 354.32,-413.82 354.32,-413.82"/>
</g>
<!-- skportfolio.misc&#45;&gt;skportfolio.misc._hrp -->
<g id="edge33" class="edge">
<title>skportfolio.misc&#45;&gt;skportfolio.misc._hrp</title>
<path fill="none" stroke="black" d="M1003.26,-444.27C961.62,-446.08 902.72,-448.64 855.8,-450.68"/>
<polygon fill="black" stroke="black" points="845.68,-451.12 855.47,-446.19 850.67,-450.91 855.67,-450.69 855.67,-450.69 855.67,-450.69 850.67,-450.91 855.86,-455.18 845.68,-451.12 845.68,-451.12"/>
</g>
<!-- skportfolio.misc&#45;&gt;skportfolio.misc._repo -->
<g id="edge34" class="edge">
<title>skportfolio.misc&#45;&gt;skportfolio.misc._repo</title>
<path fill="none" stroke="black" d="M1003.26,-434.05C962.49,-427.85 905.18,-419.13 858.77,-412.06"/>
<polygon fill="black" stroke="black" points="848.74,-410.54 859.3,-407.59 853.68,-411.29 858.63,-412.04 858.63,-412.04 858.63,-412.04 853.68,-411.29 857.95,-416.49 848.74,-410.54 848.74,-410.54"/>
</g>
<!-- skportfolio.misc._hrp&#45;&gt;skportfolio._base -->
<g id="edge35" class="edge">
<title>skportfolio.misc._hrp&#45;&gt;skportfolio._base</title>
<path fill="none" stroke="black" d="M711.42,-467.43C697.8,-471.11 683.74,-475.61 671,-481 640.41,-493.94 608.51,-514.03 585.53,-529.86"/>
<polygon fill="black" stroke="black" points="577.17,-535.69 582.79,-526.28 581.27,-532.83 585.37,-529.96 585.37,-529.96 585.37,-529.96 581.27,-532.83 587.95,-533.65 577.17,-535.69 577.17,-535.69"/>
</g>
<!-- skportfolio.misc._hrp&#45;&gt;skportfolio.riskreturn._riskreturn -->
<g id="edge36" class="edge">
<title>skportfolio.misc._hrp&#45;&gt;skportfolio.riskreturn._riskreturn</title>
<path fill="none" stroke="black" d="M711.32,-453.81C648.61,-453.27 551.8,-451.5 468,-446 459.62,-445.45 450.96,-444.77 442.25,-444.02"/>
<polygon fill="black" stroke="black" points="432.03,-443.1 442.4,-439.51 437.01,-443.55 441.99,-444 441.99,-444 441.99,-444 437.01,-443.55 441.59,-448.48 432.03,-443.1 432.03,-443.1"/>
</g>
<!-- skportfolio.misc._repo&#45;&gt;skportfolio._base -->
<g id="edge37" class="edge">
<title>skportfolio.misc._repo&#45;&gt;skportfolio._base</title>
<path fill="none" stroke="black" d="M708.45,-411.36C695.47,-415.18 682.41,-420.25 671,-427 627.95,-452.46 590.95,-498.23 570.22,-527.31"/>
<polygon fill="black" stroke="black" points="564.32,-535.76 566.36,-524.99 567.19,-531.66 570.05,-527.56 570.05,-527.56 570.05,-527.56 567.19,-531.66 573.74,-530.14 564.32,-535.76 564.32,-535.76"/>
</g>
<!-- skportfolio.misc._repo&#45;&gt;skportfolio.riskreturn._riskreturn -->
<g id="edge38" class="edge">
<title>skportfolio.misc._repo&#45;&gt;skportfolio.riskreturn._riskreturn</title>
<path fill="none" stroke="black" d="M708.31,-406.7C685.03,-408.85 658.9,-411.15 635,-413 571.17,-417.94 499.62,-422.51 442.46,-425.93"/>
<polygon fill="black" stroke="black" points="432.33,-426.54 442.04,-421.45 437.32,-426.24 442.31,-425.94 442.31,-425.94 442.31,-425.94 437.32,-426.24 442.58,-430.43 432.33,-426.54 432.33,-426.54"/>
</g>
<!-- skportfolio.model_selection&#45;&gt;skportfolio.model_selection -->
<g id="edge39" class="edge">
<title>skportfolio.model_selection&#45;&gt;skportfolio.model_selection</title>
<path fill="none" stroke="black" d="M1106.79,-717.15C1114.53,-726.54 1097.77,-735 1056.5,-735 1031.03,-735 1014.9,-731.78 1008.09,-727.1"/>
<polygon fill="black" stroke="black" points="1006.21,-717.15 1012.49,-726.14 1007.14,-722.07 1008.07,-726.98 1008.07,-726.98 1008.07,-726.98 1007.14,-722.07 1003.65,-727.82 1006.21,-717.15 1006.21,-717.15"/>
</g>
<!-- skportfolio.model_selection._cv -->
<g id="node22" class="node">
<title>skportfolio.model_selection._cv</title>
<polygon fill="chartreuse" stroke="chartreuse" points="874.5,-726 682.5,-726 682.5,-690 874.5,-690 874.5,-726"/>
<text text-anchor="middle" x="778.5" y="-704.3" font-family="Times,serif" font-size="14.00">skportfolio.model_selection._cv</text>
</g>
<!-- skportfolio.model_selection&#45;&gt;skportfolio.model_selection._cv -->
<g id="edge40" class="edge">
<title>skportfolio.model_selection&#45;&gt;skportfolio.model_selection._cv</title>
<path fill="none" stroke="black" d="M971.94,-695.47C944.55,-695.84 913.75,-696.74 884.96,-697.98"/>
<polygon fill="black" stroke="black" points="874.86,-698.44 884.65,-693.49 879.86,-698.21 884.85,-697.99 884.85,-697.99 884.85,-697.99 879.86,-698.21 885.05,-702.48 874.86,-698.44 874.86,-698.44"/>
</g>
<!-- skportfolio.model_selection._cv&#45;&gt;skportfolio._base -->
<g id="edge41" class="edge">
<title>skportfolio.model_selection._cv&#45;&gt;skportfolio._base</title>
<path fill="none" stroke="black" d="M689.27,-689.98C682.91,-687.37 676.75,-684.4 671,-681 627.95,-655.54 590.95,-609.77 570.22,-580.69"/>
<polygon fill="black" stroke="black" points="564.32,-572.24 573.74,-577.86 567.19,-576.34 570.05,-580.44 570.05,-580.44 570.05,-580.44 567.19,-576.34 566.36,-583.01 564.32,-572.24 564.32,-572.24"/>
</g>
<!-- skportfolio.model_selection._cv&#45;&gt;skportfolio.metrics -->
<g id="edge42" class="edge">
<title>skportfolio.model_selection._cv&#45;&gt;skportfolio.metrics</title>
<path fill="none" stroke="black" d="M682.41,-708C598.93,-708 479.48,-708 404.76,-708"/>
<polygon fill="black" stroke="black" points="394.53,-708 404.53,-703.5 399.53,-708 404.53,-708 404.53,-708 404.53,-708 399.53,-708 404.53,-712.5 394.53,-708 394.53,-708"/>
</g>
<!-- skportfolio.model_selection._cv&#45;&gt;skportfolio.model_selection -->
<g id="edge43" class="edge">
<title>skportfolio.model_selection._cv&#45;&gt;skportfolio.model_selection</title>
<path fill="none" stroke="black" d="M874.86,-711.35C902.99,-710.83 933.73,-709.82 961.75,-708.49"/>
<polygon fill="black" stroke="black" points="971.94,-707.98 962.18,-712.97 966.95,-708.23 961.95,-708.48 961.95,-708.48 961.95,-708.48 966.95,-708.23 961.73,-703.98 971.94,-707.98 971.94,-707.98"/>
</g>
<!-- skportfolio.model_selection._model_selection -->
<g id="node23" class="node">
<title>skportfolio.model_selection._model_selection</title>
<polygon fill="chartreuse" stroke="chartreuse" points="1191,-827 922,-827 922,-791 1191,-791 1191,-827"/>
<text text-anchor="middle" x="1056.5" y="-805.3" font-family="Times,serif" font-size="14.00">skportfolio.model_selection._model_selection</text>
</g>
<!-- skportfolio.model_selection.model_selection -->
<g id="node24" class="node">
<title>skportfolio.model_selection.model_selection</title>
<polygon fill="chartreuse" stroke="chartreuse" points="1489,-827 1227,-827 1227,-791 1489,-791 1489,-827"/>
<text text-anchor="middle" x="1358" y="-805.3" font-family="Times,serif" font-size="14.00">skportfolio.model_selection.model_selection</text>
</g>
<!-- skportfolio.model_selection.model_selection&#45;&gt;skportfolio.model_selection._model_selection -->
<g id="edge44" class="edge">
<title>skportfolio.model_selection.model_selection&#45;&gt;skportfolio.model_selection._model_selection</title>
<path fill="none" stroke="black" d="M1226.94,-809C1218.43,-809 1209.84,-809 1201.27,-809"/>
<polygon fill="black" stroke="black" points="1191.22,-809 1201.22,-804.5 1196.22,-809 1201.22,-809 1201.22,-809 1201.22,-809 1196.22,-809 1201.22,-813.5 1191.22,-809 1191.22,-809"/>
</g>
<!-- skportfolio.plotting.visualization -->
<g id="node26" class="node">
<title>skportfolio.plotting.visualization</title>
<polygon fill="chocolate" stroke="chocolate" points="431.5,-239 237.5,-239 237.5,-203 431.5,-203 431.5,-239"/>
<text text-anchor="middle" x="334.5" y="-217.3" font-family="Times,serif" font-size="14.00">skportfolio.plotting.visualization</text>
</g>
<!-- skportfolio.plotting&#45;&gt;skportfolio.plotting.visualization -->
<g id="edge45" class="edge">
<title>skportfolio.plotting&#45;&gt;skportfolio.plotting.visualization</title>
<path fill="none" stroke="black" d="M490.32,-234.68C475.2,-233.35 458.52,-231.87 441.87,-230.4"/>
<polygon fill="black" stroke="black" points="431.52,-229.49 441.88,-225.88 436.5,-229.93 441.48,-230.37 441.48,-230.37 441.48,-230.37 436.5,-229.93 441.09,-234.85 431.52,-229.49 431.52,-229.49"/>
</g>
<!-- skportfolio.plotting.visualization&#45;&gt;skportfolio.frontier._efficientfrontier -->
<g id="edge46" class="edge">
<title>skportfolio.plotting.visualization&#45;&gt;skportfolio.frontier._efficientfrontier</title>
<path fill="none" stroke="black" d="M431.72,-214.51C443.93,-213.88 456.25,-213.35 468,-213 542.19,-210.76 561.1,-206.06 635,-213 651.77,-214.57 669.5,-217.17 686.54,-220.14"/>
<polygon fill="black" stroke="black" points="696.49,-221.93 685.85,-224.59 691.57,-221.05 686.65,-220.16 686.65,-220.16 686.65,-220.16 691.57,-221.05 687.44,-215.73 696.49,-221.93 696.49,-221.93"/>
</g>
<!-- skportfolio.riskreturn&#45;&gt;skportfolio.riskreturn._riskreturn -->
<g id="edge47" class="edge">
<title>skportfolio.riskreturn&#45;&gt;skportfolio.riskreturn._riskreturn</title>
<path fill="none" stroke="black" d="M485.41,-399.93C467.83,-403.69 448.46,-407.83 429.63,-411.86"/>
<polygon fill="black" stroke="black" points="419.85,-413.95 428.69,-407.46 424.74,-412.91 429.63,-411.86 429.63,-411.86 429.63,-411.86 424.74,-412.91 430.57,-416.26 419.85,-413.95 419.85,-413.95"/>
</g>
<!-- skportfolio.riskreturn._riskreturn&#45;&gt;skportfolio._constants -->
<g id="edge48" class="edge">
<title>skportfolio.riskreturn._riskreturn&#45;&gt;skportfolio._constants</title>
<path fill="none" stroke="black" d="M314.51,-414C273.3,-374.92 175.56,-282.23 128.18,-237.3"/>
<polygon fill="black" stroke="black" points="120.75,-230.25 131.1,-233.87 124.38,-233.69 128,-237.13 128,-237.13 128,-237.13 124.38,-233.69 124.91,-240.4 120.75,-230.25 120.75,-230.25"/>
</g>
</g>
</svg>
