<?xml version="1.0" encoding="utf-8" standalone="no"?>
<!DOCTYPE svg PUBLIC "-//W3C//DTD SVG 1.1//EN"
  "http://www.w3.org/Graphics/SVG/1.1/DTD/svg11.dtd">
<svg xmlns:xlink="http://www.w3.org/1999/xlink" width="453.6pt" height="338.4pt" viewBox="0 0 453.6 338.4" xmlns="http://www.w3.org/2000/svg" version="1.1">
 <metadata>
  <rdf:RDF xmlns:dc="http://purl.org/dc/elements/1.1/" xmlns:cc="http://creativecommons.org/ns#" xmlns:rdf="http://www.w3.org/1999/02/22-rdf-syntax-ns#">
   <cc:Work>
    <dc:type rdf:resource="http://purl.org/dc/dcmitype/StillImage"/>
    <dc:date>2022-02-14T23:41:42.992002</dc:date>
    <dc:format>image/svg+xml</dc:format>
    <dc:creator>
     <cc:Agent>
      <dc:title>Matplotlib v3.5.1, https://matplotlib.org/</dc:title>
     </cc:Agent>
    </dc:creator>
   </cc:Work>
  </rdf:RDF>
 </metadata>
 <defs>
  <style type="text/css">*{stroke-linejoin: round; stroke-linecap: butt}</style>
 </defs>
 <g id="figure_1">
  <g id="patch_1">
   <path d="M 0 338.4 
L 453.6 338.4 
L 453.6 0 
L 0 0 
z
" style="fill: #ffffff"/>
  </g>
  <g id="axes_1">
   <g id="patch_2">
    <path d="M 49.807188 295.440313 
L 446.4 295.440313 
L 446.4 7.2 
L 49.807188 7.2 
z
" style="fill: #ffffff"/>
   </g>
   <g id="matplotlib.axis_1">
    <g id="xtick_1">
     <g id="line2d_1">
      <defs>
       <path id="mc579255e11" d="M 0 0 
L 0 6 
" style="stroke: #262626; stroke-width: 1.25"/>
      </defs>
      <g>
       <use xlink:href="#mc579255e11" x="67.834134" y="295.440313" style="fill: #262626; stroke: #262626; stroke-width: 1.25"/>
      </g>
     </g>
     <g id="text_1">
      <!-- 0 -->
      <g style="fill: #262626" transform="translate(64.334759 313.298594)scale(0.11 -0.11)">
       <defs>
        <path id="DejaVuSans-30" d="M 2034 4250 
Q 1547 4250 1301 3770 
Q 1056 3291 1056 2328 
Q 1056 1369 1301 889 
Q 1547 409 2034 409 
Q 2525 409 2770 889 
Q 3016 1369 3016 2328 
Q 3016 3291 2770 3770 
Q 2525 4250 2034 4250 
z
M 2034 4750 
Q 2819 4750 3233 4129 
Q 3647 3509 3647 2328 
Q 3647 1150 3233 529 
Q 2819 -91 2034 -91 
Q 1250 -91 836 529 
Q 422 1150 422 2328 
Q 422 3509 836 4129 
Q 1250 4750 2034 4750 
z
" transform="scale(0.015625)"/>
       </defs>
       <use xlink:href="#DejaVuSans-30"/>
      </g>
     </g>
    </g>
    <g id="xtick_2">
     <g id="line2d_2">
      <g>
       <use xlink:href="#mc579255e11" x="140.086422" y="295.440313" style="fill: #262626; stroke: #262626; stroke-width: 1.25"/>
      </g>
     </g>
     <g id="text_2">
      <!-- 100 -->
      <g style="fill: #262626" transform="translate(129.588297 313.298594)scale(0.11 -0.11)">
       <defs>
        <path id="DejaVuSans-31" d="M 794 531 
L 1825 531 
L 1825 4091 
L 703 3866 
L 703 4441 
L 1819 4666 
L 2450 4666 
L 2450 531 
L 3481 531 
L 3481 0 
L 794 0 
L 794 531 
z
" transform="scale(0.015625)"/>
       </defs>
       <use xlink:href="#DejaVuSans-31"/>
       <use xlink:href="#DejaVuSans-30" x="63.623047"/>
       <use xlink:href="#DejaVuSans-30" x="127.246094"/>
      </g>
     </g>
    </g>
    <g id="xtick_3">
     <g id="line2d_3">
      <g>
       <use xlink:href="#mc579255e11" x="212.338711" y="295.440313" style="fill: #262626; stroke: #262626; stroke-width: 1.25"/>
      </g>
     </g>
     <g id="text_3">
      <!-- 200 -->
      <g style="fill: #262626" transform="translate(201.840586 313.298594)scale(0.11 -0.11)">
       <defs>
        <path id="DejaVuSans-32" d="M 1228 531 
L 3431 531 
L 3431 0 
L 469 0 
L 469 531 
Q 828 903 1448 1529 
Q 2069 2156 2228 2338 
Q 2531 2678 2651 2914 
Q 2772 3150 2772 3378 
Q 2772 3750 2511 3984 
Q 2250 4219 1831 4219 
Q 1534 4219 1204 4116 
Q 875 4013 500 3803 
L 500 4441 
Q 881 4594 1212 4672 
Q 1544 4750 1819 4750 
Q 2544 4750 2975 4387 
Q 3406 4025 3406 3419 
Q 3406 3131 3298 2873 
Q 3191 2616 2906 2266 
Q 2828 2175 2409 1742 
Q 1991 1309 1228 531 
z
" transform="scale(0.015625)"/>
       </defs>
       <use xlink:href="#DejaVuSans-32"/>
       <use xlink:href="#DejaVuSans-30" x="63.623047"/>
       <use xlink:href="#DejaVuSans-30" x="127.246094"/>
      </g>
     </g>
    </g>
    <g id="xtick_4">
     <g id="line2d_4">
      <g>
       <use xlink:href="#mc579255e11" x="284.591" y="295.440313" style="fill: #262626; stroke: #262626; stroke-width: 1.25"/>
      </g>
     </g>
     <g id="text_4">
      <!-- 300 -->
      <g style="fill: #262626" transform="translate(274.092875 313.298594)scale(0.11 -0.11)">
       <defs>
        <path id="DejaVuSans-33" d="M 2597 2516 
Q 3050 2419 3304 2112 
Q 3559 1806 3559 1356 
Q 3559 666 3084 287 
Q 2609 -91 1734 -91 
Q 1441 -91 1130 -33 
Q 819 25 488 141 
L 488 750 
Q 750 597 1062 519 
Q 1375 441 1716 441 
Q 2309 441 2620 675 
Q 2931 909 2931 1356 
Q 2931 1769 2642 2001 
Q 2353 2234 1838 2234 
L 1294 2234 
L 1294 2753 
L 1863 2753 
Q 2328 2753 2575 2939 
Q 2822 3125 2822 3475 
Q 2822 3834 2567 4026 
Q 2313 4219 1838 4219 
Q 1578 4219 1281 4162 
Q 984 4106 628 3988 
L 628 4550 
Q 988 4650 1302 4700 
Q 1616 4750 1894 4750 
Q 2613 4750 3031 4423 
Q 3450 4097 3450 3541 
Q 3450 3153 3228 2886 
Q 3006 2619 2597 2516 
z
" transform="scale(0.015625)"/>
       </defs>
       <use xlink:href="#DejaVuSans-33"/>
       <use xlink:href="#DejaVuSans-30" x="63.623047"/>
       <use xlink:href="#DejaVuSans-30" x="127.246094"/>
      </g>
     </g>
    </g>
    <g id="xtick_5">
     <g id="line2d_5">
      <g>
       <use xlink:href="#mc579255e11" x="356.843288" y="295.440313" style="fill: #262626; stroke: #262626; stroke-width: 1.25"/>
      </g>
     </g>
     <g id="text_5">
      <!-- 400 -->
      <g style="fill: #262626" transform="translate(346.345163 313.298594)scale(0.11 -0.11)">
       <defs>
        <path id="DejaVuSans-34" d="M 2419 4116 
L 825 1625 
L 2419 1625 
L 2419 4116 
z
M 2253 4666 
L 3047 4666 
L 3047 1625 
L 3713 1625 
L 3713 1100 
L 3047 1100 
L 3047 0 
L 2419 0 
L 2419 1100 
L 313 1100 
L 313 1709 
L 2253 4666 
z
" transform="scale(0.015625)"/>
       </defs>
       <use xlink:href="#DejaVuSans-34"/>
       <use xlink:href="#DejaVuSans-30" x="63.623047"/>
       <use xlink:href="#DejaVuSans-30" x="127.246094"/>
      </g>
     </g>
    </g>
    <g id="xtick_6">
     <g id="line2d_6">
      <g>
       <use xlink:href="#mc579255e11" x="429.095577" y="295.440313" style="fill: #262626; stroke: #262626; stroke-width: 1.25"/>
      </g>
     </g>
     <g id="text_6">
      <!-- 500 -->
      <g style="fill: #262626" transform="translate(418.597452 313.298594)scale(0.11 -0.11)">
       <defs>
        <path id="DejaVuSans-35" d="M 691 4666 
L 3169 4666 
L 3169 4134 
L 1269 4134 
L 1269 2991 
Q 1406 3038 1543 3061 
Q 1681 3084 1819 3084 
Q 2600 3084 3056 2656 
Q 3513 2228 3513 1497 
Q 3513 744 3044 326 
Q 2575 -91 1722 -91 
Q 1428 -91 1123 -41 
Q 819 9 494 109 
L 494 744 
Q 775 591 1075 516 
Q 1375 441 1709 441 
Q 2250 441 2565 725 
Q 2881 1009 2881 1497 
Q 2881 1984 2565 2268 
Q 2250 2553 1709 2553 
Q 1456 2553 1204 2497 
Q 953 2441 691 2322 
L 691 4666 
z
" transform="scale(0.015625)"/>
       </defs>
       <use xlink:href="#DejaVuSans-35"/>
       <use xlink:href="#DejaVuSans-30" x="63.623047"/>
       <use xlink:href="#DejaVuSans-30" x="127.246094"/>
      </g>
     </g>
    </g>
    <g id="text_7">
     <!-- scenario -->
     <g style="fill: #262626" transform="translate(222.702969 328.704375)scale(0.12 -0.12)">
      <defs>
       <path id="DejaVuSans-73" d="M 2834 3397 
L 2834 2853 
Q 2591 2978 2328 3040 
Q 2066 3103 1784 3103 
Q 1356 3103 1142 2972 
Q 928 2841 928 2578 
Q 928 2378 1081 2264 
Q 1234 2150 1697 2047 
L 1894 2003 
Q 2506 1872 2764 1633 
Q 3022 1394 3022 966 
Q 3022 478 2636 193 
Q 2250 -91 1575 -91 
Q 1294 -91 989 -36 
Q 684 19 347 128 
L 347 722 
Q 666 556 975 473 
Q 1284 391 1588 391 
Q 1994 391 2212 530 
Q 2431 669 2431 922 
Q 2431 1156 2273 1281 
Q 2116 1406 1581 1522 
L 1381 1569 
Q 847 1681 609 1914 
Q 372 2147 372 2553 
Q 372 3047 722 3315 
Q 1072 3584 1716 3584 
Q 2034 3584 2315 3537 
Q 2597 3491 2834 3397 
z
" transform="scale(0.015625)"/>
       <path id="DejaVuSans-63" d="M 3122 3366 
L 3122 2828 
Q 2878 2963 2633 3030 
Q 2388 3097 2138 3097 
Q 1578 3097 1268 2742 
Q 959 2388 959 1747 
Q 959 1106 1268 751 
Q 1578 397 2138 397 
Q 2388 397 2633 464 
Q 2878 531 3122 666 
L 3122 134 
Q 2881 22 2623 -34 
Q 2366 -91 2075 -91 
Q 1284 -91 818 406 
Q 353 903 353 1747 
Q 353 2603 823 3093 
Q 1294 3584 2113 3584 
Q 2378 3584 2631 3529 
Q 2884 3475 3122 3366 
z
" transform="scale(0.015625)"/>
       <path id="DejaVuSans-65" d="M 3597 1894 
L 3597 1613 
L 953 1613 
Q 991 1019 1311 708 
Q 1631 397 2203 397 
Q 2534 397 2845 478 
Q 3156 559 3463 722 
L 3463 178 
Q 3153 47 2828 -22 
Q 2503 -91 2169 -91 
Q 1331 -91 842 396 
Q 353 884 353 1716 
Q 353 2575 817 3079 
Q 1281 3584 2069 3584 
Q 2775 3584 3186 3129 
Q 3597 2675 3597 1894 
z
M 3022 2063 
Q 3016 2534 2758 2815 
Q 2500 3097 2075 3097 
Q 1594 3097 1305 2825 
Q 1016 2553 972 2059 
L 3022 2063 
z
" transform="scale(0.015625)"/>
       <path id="DejaVuSans-6e" d="M 3513 2113 
L 3513 0 
L 2938 0 
L 2938 2094 
Q 2938 2591 2744 2837 
Q 2550 3084 2163 3084 
Q 1697 3084 1428 2787 
Q 1159 2491 1159 1978 
L 1159 0 
L 581 0 
L 581 3500 
L 1159 3500 
L 1159 2956 
Q 1366 3272 1645 3428 
Q 1925 3584 2291 3584 
Q 2894 3584 3203 3211 
Q 3513 2838 3513 2113 
z
" transform="scale(0.015625)"/>
       <path id="DejaVuSans-61" d="M 2194 1759 
Q 1497 1759 1228 1600 
Q 959 1441 959 1056 
Q 959 750 1161 570 
Q 1363 391 1709 391 
Q 2188 391 2477 730 
Q 2766 1069 2766 1631 
L 2766 1759 
L 2194 1759 
z
M 3341 1997 
L 3341 0 
L 2766 0 
L 2766 531 
Q 2569 213 2275 61 
Q 1981 -91 1556 -91 
Q 1019 -91 701 211 
Q 384 513 384 1019 
Q 384 1609 779 1909 
Q 1175 2209 1959 2209 
L 2766 2209 
L 2766 2266 
Q 2766 2663 2505 2880 
Q 2244 3097 1772 3097 
Q 1472 3097 1187 3025 
Q 903 2953 641 2809 
L 641 3341 
Q 956 3463 1253 3523 
Q 1550 3584 1831 3584 
Q 2591 3584 2966 3190 
Q 3341 2797 3341 1997 
z
" transform="scale(0.015625)"/>
       <path id="DejaVuSans-72" d="M 2631 2963 
Q 2534 3019 2420 3045 
Q 2306 3072 2169 3072 
Q 1681 3072 1420 2755 
Q 1159 2438 1159 1844 
L 1159 0 
L 581 0 
L 581 3500 
L 1159 3500 
L 1159 2956 
Q 1341 3275 1631 3429 
Q 1922 3584 2338 3584 
Q 2397 3584 2469 3576 
Q 2541 3569 2628 3553 
L 2631 2963 
z
" transform="scale(0.015625)"/>
       <path id="DejaVuSans-69" d="M 603 3500 
L 1178 3500 
L 1178 0 
L 603 0 
L 603 3500 
z
M 603 4863 
L 1178 4863 
L 1178 4134 
L 603 4134 
L 603 4863 
z
" transform="scale(0.015625)"/>
       <path id="DejaVuSans-6f" d="M 1959 3097 
Q 1497 3097 1228 2736 
Q 959 2375 959 1747 
Q 959 1119 1226 758 
Q 1494 397 1959 397 
Q 2419 397 2687 759 
Q 2956 1122 2956 1747 
Q 2956 2369 2687 2733 
Q 2419 3097 1959 3097 
z
M 1959 3584 
Q 2709 3584 3137 3096 
Q 3566 2609 3566 1747 
Q 3566 888 3137 398 
Q 2709 -91 1959 -91 
Q 1206 -91 779 398 
Q 353 888 353 1747 
Q 353 2609 779 3096 
Q 1206 3584 1959 3584 
z
" transform="scale(0.015625)"/>
      </defs>
      <use xlink:href="#DejaVuSans-73"/>
      <use xlink:href="#DejaVuSans-63" x="52.099609"/>
      <use xlink:href="#DejaVuSans-65" x="107.080078"/>
      <use xlink:href="#DejaVuSans-6e" x="168.603516"/>
      <use xlink:href="#DejaVuSans-61" x="231.982422"/>
      <use xlink:href="#DejaVuSans-72" x="293.261719"/>
      <use xlink:href="#DejaVuSans-69" x="334.375"/>
      <use xlink:href="#DejaVuSans-6f" x="362.158203"/>
     </g>
    </g>
   </g>
   <g id="matplotlib.axis_2">
    <g id="ytick_1">
     <g id="line2d_7">
      <defs>
       <path id="m47752fd9bb" d="M 0 0 
L -6 0 
" style="stroke: #262626; stroke-width: 1.25"/>
      </defs>
      <g>
       <use xlink:href="#m47752fd9bb" x="49.807188" y="282.33848" style="fill: #262626; stroke: #262626; stroke-width: 1.25"/>
      </g>
     </g>
     <g id="text_8">
      <!-- 0.0 -->
      <g style="fill: #262626" transform="translate(22.81375 286.517621)scale(0.11 -0.11)">
       <defs>
        <path id="DejaVuSans-2e" d="M 684 794 
L 1344 794 
L 1344 0 
L 684 0 
L 684 794 
z
" transform="scale(0.015625)"/>
       </defs>
       <use xlink:href="#DejaVuSans-30"/>
       <use xlink:href="#DejaVuSans-2e" x="63.623047"/>
       <use xlink:href="#DejaVuSans-30" x="95.410156"/>
      </g>
     </g>
    </g>
    <g id="ytick_2">
     <g id="line2d_8">
      <g>
       <use xlink:href="#m47752fd9bb" x="49.807188" y="237.98713" style="fill: #262626; stroke: #262626; stroke-width: 1.25"/>
      </g>
     </g>
     <g id="text_9">
      <!-- 0.1 -->
      <g style="fill: #262626" transform="translate(22.81375 242.16627)scale(0.11 -0.11)">
       <use xlink:href="#DejaVuSans-30"/>
       <use xlink:href="#DejaVuSans-2e" x="63.623047"/>
       <use xlink:href="#DejaVuSans-31" x="95.410156"/>
      </g>
     </g>
    </g>
    <g id="ytick_3">
     <g id="line2d_9">
      <g>
       <use xlink:href="#m47752fd9bb" x="49.807188" y="193.63578" style="fill: #262626; stroke: #262626; stroke-width: 1.25"/>
      </g>
     </g>
     <g id="text_10">
      <!-- 0.2 -->
      <g style="fill: #262626" transform="translate(22.81375 197.81492)scale(0.11 -0.11)">
       <use xlink:href="#DejaVuSans-30"/>
       <use xlink:href="#DejaVuSans-2e" x="63.623047"/>
       <use xlink:href="#DejaVuSans-32" x="95.410156"/>
      </g>
     </g>
    </g>
    <g id="ytick_4">
     <g id="line2d_10">
      <g>
       <use xlink:href="#m47752fd9bb" x="49.807188" y="149.284429" style="fill: #262626; stroke: #262626; stroke-width: 1.25"/>
      </g>
     </g>
     <g id="text_11">
      <!-- 0.3 -->
      <g style="fill: #262626" transform="translate(22.81375 153.46357)scale(0.11 -0.11)">
       <use xlink:href="#DejaVuSans-30"/>
       <use xlink:href="#DejaVuSans-2e" x="63.623047"/>
       <use xlink:href="#DejaVuSans-33" x="95.410156"/>
      </g>
     </g>
    </g>
    <g id="ytick_5">
     <g id="line2d_11">
      <g>
       <use xlink:href="#m47752fd9bb" x="49.807188" y="104.933079" style="fill: #262626; stroke: #262626; stroke-width: 1.25"/>
      </g>
     </g>
     <g id="text_12">
      <!-- 0.4 -->
      <g style="fill: #262626" transform="translate(22.81375 109.11222)scale(0.11 -0.11)">
       <use xlink:href="#DejaVuSans-30"/>
       <use xlink:href="#DejaVuSans-2e" x="63.623047"/>
       <use xlink:href="#DejaVuSans-34" x="95.410156"/>
      </g>
     </g>
    </g>
    <g id="ytick_6">
     <g id="line2d_12">
      <g>
       <use xlink:href="#m47752fd9bb" x="49.807188" y="60.581729" style="fill: #262626; stroke: #262626; stroke-width: 1.25"/>
      </g>
     </g>
     <g id="text_13">
      <!-- 0.5 -->
      <g style="fill: #262626" transform="translate(22.81375 64.760869)scale(0.11 -0.11)">
       <use xlink:href="#DejaVuSans-30"/>
       <use xlink:href="#DejaVuSans-2e" x="63.623047"/>
       <use xlink:href="#DejaVuSans-35" x="95.410156"/>
      </g>
     </g>
    </g>
    <g id="ytick_7">
     <g id="line2d_13">
      <g>
       <use xlink:href="#m47752fd9bb" x="49.807188" y="16.230378" style="fill: #262626; stroke: #262626; stroke-width: 1.25"/>
      </g>
     </g>
     <g id="text_14">
      <!-- 0.6 -->
      <g style="fill: #262626" transform="translate(22.81375 20.409519)scale(0.11 -0.11)">
       <defs>
        <path id="DejaVuSans-36" d="M 2113 2584 
Q 1688 2584 1439 2293 
Q 1191 2003 1191 1497 
Q 1191 994 1439 701 
Q 1688 409 2113 409 
Q 2538 409 2786 701 
Q 3034 994 3034 1497 
Q 3034 2003 2786 2293 
Q 2538 2584 2113 2584 
z
M 3366 4563 
L 3366 3988 
Q 3128 4100 2886 4159 
Q 2644 4219 2406 4219 
Q 1781 4219 1451 3797 
Q 1122 3375 1075 2522 
Q 1259 2794 1537 2939 
Q 1816 3084 2150 3084 
Q 2853 3084 3261 2657 
Q 3669 2231 3669 1497 
Q 3669 778 3244 343 
Q 2819 -91 2113 -91 
Q 1303 -91 875 529 
Q 447 1150 447 2328 
Q 447 3434 972 4092 
Q 1497 4750 2381 4750 
Q 2619 4750 2861 4703 
Q 3103 4656 3366 4563 
z
" transform="scale(0.015625)"/>
       </defs>
       <use xlink:href="#DejaVuSans-30"/>
       <use xlink:href="#DejaVuSans-2e" x="63.623047"/>
       <use xlink:href="#DejaVuSans-36" x="95.410156"/>
      </g>
     </g>
    </g>
    <g id="text_15">
     <!-- Allocation weight -->
     <g style="fill: #262626" transform="translate(16.318125 203.034531)rotate(-90)scale(0.12 -0.12)">
      <defs>
       <path id="DejaVuSans-41" d="M 2188 4044 
L 1331 1722 
L 3047 1722 
L 2188 4044 
z
M 1831 4666 
L 2547 4666 
L 4325 0 
L 3669 0 
L 3244 1197 
L 1141 1197 
L 716 0 
L 50 0 
L 1831 4666 
z
" transform="scale(0.015625)"/>
       <path id="DejaVuSans-6c" d="M 603 4863 
L 1178 4863 
L 1178 0 
L 603 0 
L 603 4863 
z
" transform="scale(0.015625)"/>
       <path id="DejaVuSans-74" d="M 1172 4494 
L 1172 3500 
L 2356 3500 
L 2356 3053 
L 1172 3053 
L 1172 1153 
Q 1172 725 1289 603 
Q 1406 481 1766 481 
L 2356 481 
L 2356 0 
L 1766 0 
Q 1100 0 847 248 
Q 594 497 594 1153 
L 594 3053 
L 172 3053 
L 172 3500 
L 594 3500 
L 594 4494 
L 1172 4494 
z
" transform="scale(0.015625)"/>
       <path id="DejaVuSans-20" transform="scale(0.015625)"/>
       <path id="DejaVuSans-77" d="M 269 3500 
L 844 3500 
L 1563 769 
L 2278 3500 
L 2956 3500 
L 3675 769 
L 4391 3500 
L 4966 3500 
L 4050 0 
L 3372 0 
L 2619 2869 
L 1863 0 
L 1184 0 
L 269 3500 
z
" transform="scale(0.015625)"/>
       <path id="DejaVuSans-67" d="M 2906 1791 
Q 2906 2416 2648 2759 
Q 2391 3103 1925 3103 
Q 1463 3103 1205 2759 
Q 947 2416 947 1791 
Q 947 1169 1205 825 
Q 1463 481 1925 481 
Q 2391 481 2648 825 
Q 2906 1169 2906 1791 
z
M 3481 434 
Q 3481 -459 3084 -895 
Q 2688 -1331 1869 -1331 
Q 1566 -1331 1297 -1286 
Q 1028 -1241 775 -1147 
L 775 -588 
Q 1028 -725 1275 -790 
Q 1522 -856 1778 -856 
Q 2344 -856 2625 -561 
Q 2906 -266 2906 331 
L 2906 616 
Q 2728 306 2450 153 
Q 2172 0 1784 0 
Q 1141 0 747 490 
Q 353 981 353 1791 
Q 353 2603 747 3093 
Q 1141 3584 1784 3584 
Q 2172 3584 2450 3431 
Q 2728 3278 2906 2969 
L 2906 3500 
L 3481 3500 
L 3481 434 
z
" transform="scale(0.015625)"/>
       <path id="DejaVuSans-68" d="M 3513 2113 
L 3513 0 
L 2938 0 
L 2938 2094 
Q 2938 2591 2744 2837 
Q 2550 3084 2163 3084 
Q 1697 3084 1428 2787 
Q 1159 2491 1159 1978 
L 1159 0 
L 581 0 
L 581 4863 
L 1159 4863 
L 1159 2956 
Q 1366 3272 1645 3428 
Q 1925 3584 2291 3584 
Q 2894 3584 3203 3211 
Q 3513 2838 3513 2113 
z
" transform="scale(0.015625)"/>
      </defs>
      <use xlink:href="#DejaVuSans-41"/>
      <use xlink:href="#DejaVuSans-6c" x="68.408203"/>
      <use xlink:href="#DejaVuSans-6c" x="96.191406"/>
      <use xlink:href="#DejaVuSans-6f" x="123.974609"/>
      <use xlink:href="#DejaVuSans-63" x="185.15625"/>
      <use xlink:href="#DejaVuSans-61" x="240.136719"/>
      <use xlink:href="#DejaVuSans-74" x="301.416016"/>
      <use xlink:href="#DejaVuSans-69" x="340.625"/>
      <use xlink:href="#DejaVuSans-6f" x="368.408203"/>
      <use xlink:href="#DejaVuSans-6e" x="429.589844"/>
      <use xlink:href="#DejaVuSans-20" x="492.96875"/>
      <use xlink:href="#DejaVuSans-77" x="524.755859"/>
      <use xlink:href="#DejaVuSans-65" x="606.542969"/>
      <use xlink:href="#DejaVuSans-69" x="668.066406"/>
      <use xlink:href="#DejaVuSans-67" x="695.849609"/>
      <use xlink:href="#DejaVuSans-68" x="759.326172"/>
      <use xlink:href="#DejaVuSans-74" x="822.705078"/>
     </g>
    </g>
   </g>
   <g id="line2d_14">
    <path d="M 67.834134 101.269657 
L 68.556656 191.804069 
L 69.279179 221.982206 
L 70.001702 237.071274 
L 70.724225 223.650999 
L 71.446748 233.432246 
L 72.169271 207.116056 
L 72.891794 216.518859 
L 73.614317 223.83215 
L 74.33684 229.682783 
L 75.059362 194.227265 
L 75.781885 193.357475 
L 76.504408 178.055833 
L 77.949454 191.960186 
L 78.671977 188.992748 
L 79.3945 193.448199 
L 80.117023 190.804192 
L 80.839545 193.122471 
L 81.562068 196.047162 
L 83.007114 172.115093 
L 83.729637 176.907414 
L 84.45216 172.229231 
L 85.174683 168.812506 
L 85.897206 168.171964 
L 86.619729 172.400353 
L 87.342251 170.129089 
L 88.064774 173.998378 
L 88.787297 176.794833 
L 89.50982 166.870455 
L 90.232343 170.478831 
L 90.954866 168.961107 
L 91.677389 171.894356 
L 92.399912 171.502428 
L 93.122435 174.581207 
L 93.844957 170.591537 
L 96.012526 178.972558 
L 96.735049 173.211983 
L 97.457572 175.810233 
L 98.180095 171.512707 
L 98.902618 173.614068 
L 99.625141 170.542918 
L 100.347663 172.973257 
L 101.070186 171.901448 
L 102.515232 176.409082 
L 103.237755 173.085936 
L 103.960278 167.952087 
L 104.682801 169.672148 
L 106.127847 173.844975 
L 106.850369 175.090545 
L 107.572892 177.005686 
L 108.295415 175.642515 
L 109.017938 177.4821 
L 110.462984 173.749225 
L 111.185507 174.987345 
L 111.90803 170.586884 
L 112.630552 172.360718 
L 113.353075 171.462946 
L 114.075598 172.464355 
L 114.798121 172.688771 
L 115.520644 173.958873 
L 116.243167 175.55269 
L 116.96569 175.695337 
L 117.688213 177.21881 
L 118.410736 174.283724 
L 119.133258 175.784484 
L 120.578304 177.336119 
L 121.300827 178.73615 
L 122.02335 176.386898 
L 124.190919 180.410375 
L 124.913442 176.140558 
L 125.635964 177.258961 
L 126.358487 174.903067 
L 129.248579 179.900063 
L 129.971102 177.468285 
L 132.13867 180.921184 
L 132.861193 180.501688 
L 135.751285 184.789553 
L 136.473808 185.805687 
L 137.196331 186.352602 
L 137.918854 187.33205 
L 138.641376 185.584486 
L 140.086422 187.500407 
L 140.808945 186.285282 
L 141.531468 183.430792 
L 142.253991 183.871275 
L 142.976514 184.809058 
L 143.699037 185.507265 
L 144.42156 183.529309 
L 145.144082 182.518867 
L 145.866605 182.688157 
L 146.589128 183.594069 
L 147.311651 183.489869 
L 148.034174 182.409463 
L 149.47922 184.162603 
L 150.201743 183.316879 
L 150.924265 180.789296 
L 151.646788 179.765748 
L 153.091834 181.439866 
L 153.814357 181.732136 
L 154.53688 180.76762 
L 155.981926 182.419179 
L 156.704449 182.597337 
L 158.149494 184.180529 
L 158.872017 181.706524 
L 159.59454 180.019776 
L 160.317063 178.669434 
L 161.039586 177.733944 
L 161.762109 178.532452 
L 162.484632 175.958911 
L 163.207155 176.758757 
L 163.929677 176.632035 
L 165.374723 177.609745 
L 166.097246 176.980812 
L 166.819769 175.769706 
L 167.542292 175.538833 
L 168.987338 177.053722 
L 169.709861 175.925817 
L 171.154906 177.403771 
L 171.877429 176.878035 
L 172.599952 177.016022 
L 174.767521 179.136609 
L 175.490044 178.028983 
L 176.212567 178.719774 
L 176.935089 176.955762 
L 177.657612 176.479547 
L 178.380135 175.841672 
L 181.270227 178.537794 
L 181.99275 177.094009 
L 182.715273 177.038728 
L 183.437795 177.692764 
L 184.160318 177.731988 
L 184.882841 177.443918 
L 185.605364 177.520094 
L 186.327887 178.155357 
L 187.772933 177.531778 
L 188.495456 177.361712 
L 189.217978 176.93335 
L 190.663024 178.166158 
L 191.385547 176.193244 
L 192.10807 176.430737 
L 192.830593 175.49646 
L 196.443207 178.444501 
L 197.16573 178.51256 
L 197.888253 179.086184 
L 198.610776 177.216617 
L 199.333299 177.216617 
L 200.055822 176.467954 
L 202.945913 178.732564 
L 203.668436 177.567427 
L 204.390959 178.121771 
L 205.113482 178.084189 
L 205.836005 178.630023 
L 206.558528 177.956492 
L 208.003574 179.032595 
L 208.726096 179.027627 
L 209.448619 179.554724 
L 210.171142 179.406583 
L 210.893665 178.699477 
L 211.616188 177.461154 
L 212.338711 175.767973 
L 213.061234 176.298175 
L 213.783757 176.09291 
L 214.50628 174.969607 
L 215.228802 175.199119 
L 215.951325 173.558269 
L 216.673848 173.178353 
L 217.396371 171.56312 
L 218.118894 171.098598 
L 218.841417 170.881733 
L 220.286463 171.938195 
L 221.008985 171.176026 
L 221.731508 170.761685 
L 223.176554 171.799609 
L 223.899077 172.006386 
L 224.6216 172.514829 
L 225.344123 172.13868 
L 226.066646 172.056235 
L 226.789169 172.557518 
L 227.511691 172.146286 
L 228.956737 173.134557 
L 229.67926 172.91469 
L 230.401783 172.182401 
L 234.73692 174.980853 
L 235.459443 175.443601 
L 236.181966 175.423592 
L 236.904489 175.880494 
L 237.627012 176.121488 
L 238.349535 176.57156 
L 239.072058 176.823268 
L 240.517103 176.78106 
L 241.239626 177.220883 
L 241.962149 176.529685 
L 245.574764 178.68027 
L 246.297287 178.755866 
L 247.019809 178.687801 
L 247.742332 179.104069 
L 248.464855 178.970101 
L 249.187378 177.721243 
L 249.909901 178.043499 
L 250.632424 178.043499 
L 251.354947 177.034017 
L 252.07747 177.419302 
L 253.522515 175.252751 
L 254.245038 175.669427 
L 254.967561 175.768322 
L 255.690084 176.046873 
L 258.580176 177.663475 
L 259.302698 176.646776 
L 260.025221 176.339255 
L 261.470267 177.062594 
L 263.637836 178.232326 
L 264.360359 177.594862 
L 265.805404 178.362214 
L 266.527927 177.512267 
L 267.25045 177.478615 
L 269.418019 178.610196 
L 270.140542 177.945718 
L 270.863065 178.31855 
L 271.585588 177.267385 
L 272.30811 177.36717 
L 274.475679 178.472131 
L 275.198202 177.834619 
L 277.365771 178.919434 
L 278.088294 178.974034 
L 278.810816 178.864357 
L 279.533339 177.699838 
L 280.255862 178.056967 
L 280.978385 176.903116 
L 281.700908 177.260524 
L 282.423431 177.351043 
L 284.591 178.404428 
L 285.313522 178.583744 
L 286.758568 179.270862 
L 287.481091 178.766704 
L 288.203614 179.107401 
L 289.64866 179.040924 
L 291.093706 179.711688 
L 291.816228 178.987648 
L 292.538751 179.321038 
L 293.983797 178.486581 
L 294.70632 178.818376 
L 295.428843 178.988605 
L 297.596411 179.966679 
L 298.318934 179.030922 
L 299.041457 179.35477 
L 299.76398 179.478136 
L 301.931549 180.433495 
L 302.654072 180.428659 
L 304.82164 181.363612 
L 305.544163 181.433898 
L 307.711732 182.348441 
L 308.434255 182.077003 
L 310.601823 182.879399 
L 311.324346 182.623801 
L 312.046869 182.919691 
L 312.769392 182.921569 
L 314.214438 183.506375 
L 314.936961 183.678823 
L 316.382007 184.254098 
L 317.104529 183.918283 
L 320.717144 185.163286 
L 321.439667 184.84391 
L 323.607235 185.672476 
L 324.329758 185.307849 
L 326.497327 186.123232 
L 327.21985 185.724936 
L 327.942373 185.119591 
L 329.387419 185.537383 
L 334.445079 187.376069 
L 335.167602 186.828172 
L 335.890124 186.661326 
L 336.612647 186.188423 
L 338.780216 186.95968 
L 339.502739 186.647651 
L 342.39283 187.65758 
L 343.115353 187.212957 
L 343.837876 187.46263 
L 344.560399 186.552033 
L 346.005445 187.050921 
L 346.727968 186.472103 
L 348.173014 186.967537 
L 348.895536 186.695125 
L 349.618059 186.550839 
L 350.340582 186.796449 
L 351.063105 186.214948 
L 351.785628 186.095711 
L 353.953197 186.826668 
L 354.67572 186.534479 
L 355.398242 185.658636 
L 356.120765 185.353744 
L 357.565811 185.838668 
L 359.010857 185.697881 
L 361.178426 186.327717 
L 361.900948 186.120159 
L 368.403654 188.206822 
L 369.8487 187.850864 
L 372.738792 188.748608 
L 373.461315 187.919405 
L 375.628883 188.585893 
L 376.351406 188.00575 
L 377.073929 188.157993 
L 377.796452 187.924113 
L 378.518975 188.144193 
L 379.241498 187.513633 
L 380.686543 187.952637 
L 381.409066 187.797196 
L 382.131589 187.286822 
L 382.854112 186.970128 
L 384.299158 187.299677 
L 386.466727 187.947668 
L 387.911772 187.981123 
L 388.634295 187.669682 
L 390.079341 188.09516 
L 390.801864 187.312043 
L 391.524387 187.481985 
L 392.24691 186.900374 
L 393.691955 187.324543 
L 394.414478 186.750739 
L 395.137001 186.962216 
L 395.859524 187.032138 
L 399.472139 187.967299 
L 400.194661 188.172901 
L 400.917184 188.248084 
L 402.36223 188.655401 
L 403.084753 188.666723 
L 405.252322 189.26976 
L 405.974844 188.793752 
L 407.41989 189.080243 
L 408.142413 189.154661 
L 411.755028 190.042844 
L 412.47755 189.586408 
L 413.200073 189.289728 
L 413.922596 188.556539 
L 415.367642 188.870172 
L 416.090165 188.934481 
L 416.812688 188.802311 
L 417.535211 188.478379 
L 418.980256 188.865431 
L 419.702779 188.482071 
L 420.425302 188.674794 
L 421.147825 188.075774 
L 421.870348 188.268541 
L 422.592871 188.34241 
L 424.037917 187.900068 
L 426.205485 188.472422 
L 426.928008 187.810087 
L 428.373054 188.189719 
L 428.373054 188.189719 
" clip-path="url(#pfe3ec633b4)" style="fill: none; stroke: #e24a33; stroke-width: 1.5; stroke-linecap: round"/>
   </g>
   <g id="line2d_15">
    <path d="M 67.834134 282.33848 
L 69.279179 282.33848 
L 70.001702 191.540178 
L 70.724225 185.401508 
L 71.446748 195.264952 
L 72.169271 196.735305 
L 72.891794 207.435702 
L 73.614317 207.494098 
L 74.33684 203.404164 
L 75.059362 210.580011 
L 76.504408 221.619776 
L 77.226931 224.735897 
L 77.949454 228.576069 
L 78.671977 226.790077 
L 79.3945 230.05763 
L 80.117023 225.813177 
L 80.839545 226.925203 
L 81.562068 229.695867 
L 82.284591 228.72509 
L 83.007114 231.162062 
L 83.729637 224.965573 
L 85.174683 229.555406 
L 85.897206 227.54904 
L 86.619729 229.578278 
L 88.064774 232.869749 
L 88.787297 230.712621 
L 89.50982 232.377972 
L 90.232343 232.778757 
L 90.954866 232.501137 
L 91.677389 228.926279 
L 92.399912 230.452342 
L 93.122435 229.995017 
L 93.844957 227.789436 
L 94.56748 226.026971 
L 96.735049 230.147326 
L 97.457572 231.389972 
L 98.180095 229.03548 
L 99.625141 231.404502 
L 100.347663 229.952883 
L 101.070186 229.964631 
L 101.792709 231.055753 
L 102.515232 230.877518 
L 103.237755 231.330879 
L 104.682801 233.192408 
L 105.405324 230.037694 
L 106.127847 228.817406 
L 106.850369 229.346922 
L 109.017938 232.087865 
L 109.740461 232.850567 
L 110.462984 230.830818 
L 111.185507 230.289335 
L 112.630552 231.941689 
L 113.353075 231.513842 
L 114.075598 230.258805 
L 114.798121 230.500219 
L 115.520644 229.827408 
L 116.243167 229.622726 
L 116.96569 226.666416 
L 117.688213 227.461731 
L 118.410736 226.403619 
L 119.133258 226.526063 
L 119.855781 226.4028 
L 120.578304 225.44289 
L 121.300827 225.278694 
L 122.02335 223.906218 
L 124.913442 226.827831 
L 127.08101 228.83424 
L 127.803533 228.230308 
L 128.526056 227.183976 
L 129.248579 225.166341 
L 129.971102 225.358516 
L 130.693625 225.305214 
L 131.416148 223.10785 
L 132.13867 222.995339 
L 132.861193 223.647461 
L 133.583716 222.805614 
L 134.306239 221.193753 
L 135.028762 220.710061 
L 135.751285 220.561904 
L 136.473808 219.020922 
L 137.196331 219.601986 
L 137.918854 219.296068 
L 140.808945 221.731142 
L 142.253991 222.896668 
L 142.976514 222.804353 
L 143.699037 223.098925 
L 144.42156 223.652566 
L 145.866605 223.2305 
L 148.034174 224.813749 
L 148.756697 224.606092 
L 149.47922 224.123326 
L 150.201743 222.77076 
L 151.646788 223.789012 
L 152.369311 222.686215 
L 153.091834 223.187494 
L 153.814357 223.154227 
L 154.53688 222.527385 
L 155.259403 223.01764 
L 155.981926 220.522361 
L 156.704449 221.020878 
L 157.426971 219.437089 
L 159.59454 220.91134 
L 160.317063 220.851315 
L 161.039586 221.324293 
L 161.762109 220.10067 
L 163.929677 221.486375 
L 164.6522 221.776284 
L 165.374723 219.187669 
L 167.542292 220.550636 
L 168.264815 220.713514 
L 168.987338 220.265809 
L 169.709861 220.70294 
L 170.432383 220.801726 
L 172.599952 221.48703 
L 173.322475 221.586604 
L 174.044998 221.19433 
L 174.767521 219.993817 
L 175.490044 219.588652 
L 176.212567 220.004214 
L 176.935089 219.94217 
L 177.657612 219.503922 
L 179.102658 219.579975 
L 179.825181 218.993721 
L 182.715273 220.57734 
L 183.437795 220.461845 
L 184.160318 219.614884 
L 184.882841 219.644255 
L 187.05041 220.777283 
L 188.495456 220.144766 
L 189.217978 220.512777 
L 189.940501 220.633386 
L 190.663024 220.245656 
L 192.10807 220.878481 
L 192.830593 221.084932 
L 193.553116 220.895133 
L 194.275639 221.244243 
L 194.998162 220.982572 
L 195.720684 219.524435 
L 196.443207 218.53324 
L 197.16573 218.144114 
L 197.888253 217.066647 
L 198.610776 217.425283 
L 199.333299 217.425283 
L 200.055822 217.78 
L 200.778345 217.997518 
L 201.500868 218.345307 
L 202.22339 218.317902 
L 202.945913 217.71797 
L 203.668436 218.061696 
L 204.390959 217.897728 
L 205.113482 218.047603 
L 210.171142 220.33205 
L 210.893665 220.474372 
L 211.616188 220.315657 
L 212.338711 220.625772 
L 213.061234 219.117991 
L 213.783757 219.082718 
L 214.50628 218.856208 
L 215.228802 218.357287 
L 217.396371 219.284551 
L 218.118894 219.101834 
L 218.841417 218.224677 
L 219.56394 218.529981 
L 220.286463 218.57343 
L 221.008985 218.338101 
L 223.176554 219.213595 
L 223.899077 219.183471 
L 224.6216 217.598998 
L 225.344123 217.158881 
L 226.066646 216.400558 
L 226.789169 215.355402 
L 227.511691 215.585082 
L 228.234214 214.255382 
L 228.956737 213.483586 
L 229.67926 213.670017 
L 230.401783 213.736107 
L 233.291875 214.934402 
L 234.014397 214.729629 
L 234.73692 215.022308 
L 235.459443 214.770804 
L 236.181966 215.060794 
L 236.904489 214.840672 
L 238.349535 215.193016 
L 239.072058 213.799531 
L 239.794581 212.66905 
L 241.962149 213.536304 
L 242.684672 213.477767 
L 243.407195 213.697301 
L 244.129718 213.45329 
L 245.574764 214.013332 
L 246.297287 213.916557 
L 247.019809 212.889827 
L 247.742332 211.387559 
L 248.464855 210.722758 
L 249.187378 210.901778 
L 249.909901 210.409161 
L 250.632424 210.409161 
L 252.07747 210.887145 
L 252.799993 211.024153 
L 253.522515 211.302724 
L 254.245038 211.179845 
L 254.967561 211.403051 
L 255.690084 210.865663 
L 256.412607 210.971614 
L 257.13513 211.24505 
L 257.857653 209.823599 
L 258.580176 210.099321 
L 260.025221 210.202967 
L 260.747744 209.705408 
L 261.470267 209.584957 
L 263.637836 210.353052 
L 264.360359 210.375239 
L 265.082882 210.63981 
L 266.527927 210.296138 
L 267.25045 210.377479 
L 267.972973 210.324614 
L 268.695496 209.608558 
L 269.418019 209.870177 
L 270.140542 209.859758 
L 270.863065 210.11861 
L 271.585588 210.243845 
L 272.30811 209.856248 
L 273.030633 209.636885 
L 273.753156 209.892876 
L 274.475679 209.883064 
L 275.920725 210.38798 
L 276.643248 209.802032 
L 277.365771 208.816725 
L 278.088294 208.930174 
L 278.810816 208.821758 
L 282.423431 210.063595 
L 283.145954 210.026963 
L 283.868477 209.786711 
L 286.036045 210.403198 
L 286.758568 209.596582 
L 288.203614 208.852626 
L 288.926137 209.093563 
L 289.64866 208.958359 
L 290.371183 209.197383 
L 291.093706 209.080806 
L 291.816228 209.317886 
L 292.538751 208.977641 
L 293.261274 209.213528 
L 295.428843 209.357782 
L 296.151366 208.464111 
L 297.596411 208.930196 
L 298.318934 209.024024 
L 299.041457 208.805554 
L 300.486503 209.161336 
L 301.209026 209.280939 
L 301.931549 208.733652 
L 303.376595 209.186605 
L 304.82164 208.468838 
L 305.544163 208.69405 
L 306.266686 208.659914 
L 308.434255 209.008185 
L 309.879301 209.447288 
L 311.324346 209.108302 
L 312.769392 209.474119 
L 314.214438 209.902733 
L 314.936961 209.620878 
L 316.382007 209.953197 
L 317.104529 210.104532 
L 317.827052 210.044815 
L 318.549575 209.389712 
L 319.994621 209.746764 
L 320.717144 209.954764 
L 321.439667 209.491413 
L 322.16219 209.698954 
L 322.884713 209.503798 
L 323.607235 209.710129 
L 324.329758 209.501949 
L 325.774804 209.798595 
L 326.497327 210.001788 
L 327.21985 210.084234 
L 329.387419 210.684684 
L 330.109941 209.901907 
L 330.832464 209.806905 
L 332.27751 210.125915 
L 333.000033 210.323217 
L 333.722556 209.310961 
L 334.445079 209.509405 
L 335.890124 209.060616 
L 336.612647 209.130336 
L 338.780216 209.681778 
L 340.225262 209.969603 
L 343.115353 210.731381 
L 343.837876 210.461134 
L 345.282922 210.732588 
L 346.005445 210.231905 
L 348.895536 210.886066 
L 349.618059 210.9151 
L 351.785628 211.389964 
L 352.508151 211.483948 
L 353.230674 211.391753 
L 353.953197 210.448546 
L 354.67572 210.428052 
L 356.120765 210.742519 
L 356.843288 210.457935 
L 357.565811 210.637637 
L 359.010857 210.741136 
L 359.73338 210.918796 
L 360.455903 210.666237 
L 361.178426 210.719066 
L 361.900948 210.634363 
L 362.623471 210.666186 
L 363.345994 210.841853 
L 364.068517 210.832728 
L 365.513563 211.136509 
L 366.236086 211.038367 
L 366.958609 210.764443 
L 368.403654 210.996576 
L 369.126177 210.843688 
L 369.8487 211.015138 
L 370.571223 210.746255 
L 372.016269 210.985278 
L 372.738792 210.802744 
L 373.461315 210.97226 
L 374.90636 210.934637 
L 375.628883 210.657473 
L 376.351406 210.584846 
L 377.796452 210.920143 
L 378.518975 210.450989 
L 379.964021 210.784574 
L 381.409066 210.691813 
L 382.131589 210.856898 
L 382.854112 210.843441 
L 384.299158 211.170649 
L 386.466727 211.122186 
L 390.801864 212.00239 
L 391.524387 211.93979 
L 392.24691 212.09693 
L 392.969433 212.09171 
L 393.691955 212.247814 
L 394.414478 212.204303 
L 395.859524 212.513946 
L 396.582047 212.197972 
L 403.084753 213.192637 
L 403.807276 212.702224 
L 404.529799 212.467496 
L 405.252322 212.357922 
L 405.974844 212.363987 
L 407.41989 212.566733 
L 408.142413 212.620016 
L 409.587459 212.157477 
L 410.309982 212.158957 
L 411.032505 211.396989 
L 412.47755 211.695062 
L 413.200073 211.716849 
L 413.922596 211.864593 
L 415.367642 211.488852 
L 416.812688 211.782834 
L 417.535211 211.63533 
L 419.702779 211.839718 
L 420.425302 211.608713 
L 421.147825 211.753652 
L 421.870348 210.991016 
L 423.315394 210.82686 
L 424.037917 210.763992 
L 424.76044 210.282533 
L 425.482962 210.086387 
L 426.928008 210.377726 
L 427.650531 209.630135 
L 428.373054 209.776135 
L 428.373054 209.776135 
" clip-path="url(#pfe3ec633b4)" style="fill: none; stroke: #348abd; stroke-width: 1.5; stroke-linecap: round"/>
   </g>
   <g id="line2d_16">
    <path d="M 67.834134 282.33848 
L 68.556656 60.581729 
L 69.279179 116.587135 
L 70.001702 158.024972 
L 70.724225 178.107485 
L 71.446748 186.985295 
L 72.169271 181.519624 
L 73.614317 196.773391 
L 74.33684 172.552922 
L 75.059362 182.533427 
L 75.781885 184.404785 
L 76.504408 180.369608 
L 77.226931 187.653099 
L 77.949454 188.041596 
L 78.671977 180.371954 
L 79.3945 178.123764 
L 80.117023 178.871461 
L 80.839545 165.336584 
L 81.562068 171.186678 
L 82.284591 175.176536 
L 83.007114 176.06821 
L 84.45216 184.924066 
L 85.174683 178.901197 
L 85.897206 181.821944 
L 86.619729 181.536731 
L 87.342251 175.854373 
L 88.064774 178.524663 
L 89.50982 185.222328 
L 90.232343 182.334085 
L 90.954866 183.468434 
L 92.399912 189.118151 
L 93.122435 189.117239 
L 93.844957 190.172059 
L 94.56748 192.597491 
L 95.290003 190.198209 
L 96.012526 184.785689 
L 96.735049 186.345499 
L 98.180095 190.584407 
L 98.902618 183.007281 
L 99.625141 182.449975 
L 100.347663 177.538746 
L 101.070186 174.833638 
L 101.792709 169.301025 
L 102.515232 171.538941 
L 103.237755 170.902253 
L 103.960278 171.66699 
L 104.682801 173.795288 
L 105.405324 171.557092 
L 106.127847 173.199909 
L 106.850369 172.871284 
L 107.572892 170.731317 
L 108.295415 168.119514 
L 109.017938 168.318117 
L 109.740461 167.594847 
L 111.185507 171.172039 
L 111.90803 171.943534 
L 113.353075 175.339323 
L 114.075598 175.20329 
L 114.798121 174.848413 
L 115.520644 172.176081 
L 116.243167 173.056557 
L 116.96569 173.337902 
L 117.688213 171.638017 
L 118.410736 173.197178 
L 119.855781 174.584444 
L 120.578304 175.354932 
L 121.300827 175.153389 
L 122.02335 176.563719 
L 122.745873 177.16029 
L 123.468396 172.822657 
L 124.190919 172.240351 
L 124.913442 173.616578 
L 125.635964 172.986667 
L 126.358487 173.67924 
L 127.08101 172.852683 
L 128.526056 174.866445 
L 129.248579 173.617952 
L 129.971102 173.843964 
L 130.693625 175.076856 
L 131.416148 174.180188 
L 132.13867 175.381946 
L 132.861193 173.21749 
L 133.583716 172.860547 
L 135.028762 175.162121 
L 135.751285 174.493177 
L 136.473808 175.616565 
L 137.196331 176.200486 
L 137.918854 175.316228 
L 138.641376 174.624551 
L 139.363899 172.7643 
L 140.086422 173.396853 
L 140.808945 172.298823 
L 141.531468 172.848259 
L 142.253991 173.901049 
L 142.976514 173.940485 
L 144.42156 175.966616 
L 145.144082 175.562728 
L 145.866605 176.542322 
L 146.589128 173.472164 
L 148.034174 175.416205 
L 148.756697 174.864875 
L 149.47922 174.506809 
L 150.201743 175.146049 
L 150.924265 175.627946 
L 151.646788 176.540002 
L 152.369311 175.593538 
L 153.091834 172.813342 
L 154.53688 174.623675 
L 155.259403 174.433535 
L 156.704449 176.173938 
L 157.426971 175.549476 
L 158.149494 175.480026 
L 158.872017 176.321431 
L 159.59454 176.342772 
L 160.317063 176.832428 
L 161.039586 176.915593 
L 161.762109 176.024129 
L 162.484632 176.829541 
L 163.207155 176.7825 
L 163.929677 175.717536 
L 164.6522 175.070271 
L 166.097246 176.636231 
L 166.819769 176.16289 
L 167.542292 175.095735 
L 168.264815 173.487183 
L 168.987338 173.570222 
L 169.709861 173.916545 
L 170.432383 173.623334 
L 171.154906 173.614625 
L 171.877429 173.958156 
L 172.599952 173.932358 
L 173.322475 173.484397 
L 175.490044 174.573954 
L 179.102658 178.050229 
L 179.825181 178.608149 
L 180.547704 177.466266 
L 181.270227 178.130014 
L 181.99275 178.350324 
L 183.437795 179.642102 
L 184.160318 179.373918 
L 184.882841 178.822211 
L 185.605364 179.130725 
L 186.327887 177.068265 
L 187.05041 177.702423 
L 187.772933 177.259004 
L 188.495456 177.884477 
L 189.217978 177.968363 
L 189.940501 178.582305 
L 190.663024 178.386618 
L 192.10807 179.588374 
L 192.830593 179.319673 
L 194.275639 180.490342 
L 194.998162 180.925008 
L 195.720684 180.805931 
L 196.443207 180.946214 
L 197.16573 181.220974 
L 198.610776 182.332156 
L 199.333299 182.332156 
L 200.055822 182.878638 
L 200.778345 182.868838 
L 201.500868 181.009142 
L 202.22339 180.136731 
L 202.945913 179.851356 
L 203.668436 179.753618 
L 204.390959 180.01778 
L 205.836005 181.089201 
L 206.558528 180.567469 
L 208.003574 181.616655 
L 208.726096 180.958822 
L 209.448619 180.968446 
L 210.893665 181.876781 
L 212.338711 182.881398 
L 213.061234 182.984483 
L 214.50628 183.86356 
L 215.228802 183.647073 
L 215.951325 184.128494 
L 216.673848 184.387253 
L 221.008985 187.126424 
L 223.176554 186.849425 
L 223.899077 187.291504 
L 224.6216 187.561177 
L 225.344123 187.995936 
L 226.066646 188.043135 
L 226.789169 188.47175 
L 227.511691 188.603005 
L 229.67926 189.809426 
L 230.401783 189.707216 
L 231.124306 190.117089 
L 232.569352 187.057521 
L 234.014397 187.886051 
L 234.73692 187.851211 
L 235.459443 188.258484 
L 236.181966 187.659559 
L 236.904489 187.887295 
L 239.794581 189.47471 
L 240.517103 188.489557 
L 241.239626 188.880594 
L 241.962149 188.850655 
L 242.684672 187.747111 
L 243.407195 188.136376 
L 244.852241 188.469644 
L 245.574764 187.048324 
L 246.297287 186.468117 
L 249.909901 188.370306 
L 250.632424 188.370306 
L 251.354947 188.741722 
L 252.07747 187.997658 
L 253.522515 188.398613 
L 254.967561 188.382139 
L 255.690084 187.976684 
L 256.412607 188.124084 
L 257.857653 188.843278 
L 258.580176 188.935127 
L 259.302698 189.222602 
L 260.025221 189.343757 
L 260.747744 189.269222 
L 261.470267 189.364429 
L 262.19279 189.03628 
L 262.915313 189.351456 
L 263.637836 189.535924 
L 264.360359 189.528763 
L 265.082882 189.869975 
L 265.805404 190.080296 
L 268.695496 191.412544 
L 269.418019 190.455883 
L 270.140542 190.785212 
L 270.863065 190.807272 
L 271.585588 191.1078 
L 272.30811 190.77463 
L 273.030633 190.201935 
L 275.198202 191.168402 
L 275.920725 190.998358 
L 276.643248 190.61131 
L 277.365771 190.630354 
L 278.088294 190.946589 
L 278.810816 190.930515 
L 279.533339 191.243556 
L 280.255862 190.661575 
L 280.978385 190.973401 
L 281.700908 191.120321 
L 282.423431 191.152808 
L 283.145954 190.827443 
L 283.868477 191.044113 
L 284.591 189.866122 
L 285.313522 190.174364 
L 286.036045 189.80372 
L 286.758568 189.686351 
L 287.481091 189.992133 
L 288.203614 189.442111 
L 288.926137 189.74669 
L 290.371183 189.63224 
L 291.093706 189.918935 
L 291.816228 189.838873 
L 292.538751 189.282365 
L 293.261274 189.208559 
L 293.983797 189.507053 
L 294.70632 188.649993 
L 295.428843 188.41588 
L 296.151366 188.431423 
L 296.873889 187.325074 
L 298.318934 187.922642 
L 299.041457 187.978786 
L 299.76398 187.086138 
L 301.209026 187.56233 
L 301.931549 187.855755 
L 302.654072 187.307266 
L 304.099117 186.851261 
L 304.82164 186.745804 
L 305.544163 186.410891 
L 306.266686 186.20368 
L 306.989209 186.494997 
L 307.711732 186.416398 
L 308.434255 186.574791 
L 309.156778 186.370762 
L 309.879301 186.560464 
L 310.601823 186.613504 
L 312.046869 187.076254 
L 312.769392 187.069142 
L 313.491915 187.350173 
L 314.936961 187.006384 
L 317.827052 187.783831 
L 318.549575 187.639323 
L 319.272098 187.761859 
L 321.439667 188.569499 
L 322.16219 188.410786 
L 323.607235 188.942954 
L 325.052281 188.984422 
L 327.21985 189.045749 
L 328.664896 189.217942 
L 329.387419 188.435885 
L 332.27751 188.468689 
L 333.000033 188.108898 
L 335.890124 189.089035 
L 336.612647 189.003514 
L 337.33517 188.062174 
L 338.057693 187.47376 
L 339.502739 187.799449 
L 340.947785 187.301077 
L 341.670308 187.525126 
L 342.39283 186.605072 
L 343.115353 186.383645 
L 344.560399 186.886027 
L 345.282922 187.004917 
L 346.005445 186.804008 
L 346.727968 186.899051 
L 347.450491 186.829008 
L 348.173014 186.979868 
L 348.895536 186.689981 
L 349.618059 186.769358 
L 350.340582 186.512919 
L 351.063105 186.757997 
L 351.785628 186.503619 
L 353.953197 187.108552 
L 354.67572 186.964452 
L 356.120765 187.328293 
L 356.843288 187.05166 
L 357.565811 186.586776 
L 358.288334 186.349715 
L 359.73338 186.826086 
L 360.455903 186.624248 
L 361.178426 186.86058 
L 361.900948 186.708492 
L 362.623471 186.807273 
L 363.345994 186.660204 
L 364.068517 186.701983 
L 364.79104 185.863422 
L 366.236086 186.331747 
L 366.958609 186.230994 
L 367.681131 186.463138 
L 369.8487 186.783219 
L 371.293746 185.950241 
L 372.738792 186.342901 
L 373.461315 186.570378 
L 374.183837 186.347416 
L 377.073929 186.974633 
L 377.796452 186.615127 
L 378.518975 186.838258 
L 379.241498 186.878542 
L 379.964021 187.100027 
L 380.686543 186.483652 
L 381.409066 186.288051 
L 383.576635 186.558118 
L 385.021681 186.936093 
L 385.744204 186.891061 
L 386.466727 187.107987 
L 387.911772 186.955944 
L 388.634295 187.171255 
L 389.356818 186.450481 
L 390.801864 186.880472 
L 392.24691 186.898908 
L 392.969433 187.078437 
L 393.691955 186.811013 
L 394.414478 187.022826 
L 395.137001 186.723867 
L 396.582047 187.145077 
L 397.30457 187.195125 
L 398.027093 187.403773 
L 402.36223 187.634274 
L 403.084753 187.071923 
L 404.529799 187.414487 
L 405.252322 186.985171 
L 405.974844 187.058731 
L 406.697367 186.712022 
L 408.142413 187.080254 
L 408.864936 186.739879 
L 410.309982 187.016786 
L 412.47755 187.617553 
L 413.200073 187.503773 
L 414.645119 187.899743 
L 415.367642 187.577635 
L 416.090165 186.982588 
L 418.257734 187.466782 
L 418.980256 187.344088 
L 419.702779 187.53955 
L 420.425302 187.54827 
L 421.870348 187.924015 
L 422.592871 187.589342 
L 423.315394 187.449398 
L 425.482962 187.964167 
L 427.650531 188.491317 
L 428.373054 188.496598 
L 428.373054 188.496598 
" clip-path="url(#pfe3ec633b4)" style="fill: none; stroke: #988ed5; stroke-width: 1.5; stroke-linecap: round"/>
   </g>
   <g id="line2d_17">
    <path d="M 67.834134 20.301832 
L 68.556656 151.320156 
L 69.279179 65.068607 
L 70.001702 99.306001 
L 70.724225 125.290349 
L 71.446748 92.3336 
L 72.169271 119.477154 
L 72.891794 139.83482 
L 73.614317 126.110849 
L 74.33684 141.733612 
L 75.059362 154.515873 
L 75.781885 142.866419 
L 76.504408 153.595039 
L 77.226931 160.158747 
L 77.949454 144.660357 
L 78.671977 152.871345 
L 79.3945 150.408866 
L 80.117023 152.871961 
L 80.839545 159.685988 
L 81.562068 163.239582 
L 83.007114 174.066754 
L 83.729637 167.912575 
L 84.45216 163.271736 
L 85.897206 172.430717 
L 86.619729 164.082996 
L 87.342251 168.306407 
L 88.064774 157.946554 
L 88.787297 151.930135 
L 89.50982 155.15898 
L 90.232343 154.16488 
L 90.954866 157.240255 
L 91.677389 160.919615 
L 92.399912 155.264385 
L 93.122435 150.963374 
L 93.844957 154.514053 
L 94.56748 149.63889 
L 95.290003 146.369636 
L 96.012526 149.768857 
L 96.735049 151.286081 
L 97.457572 150.781076 
L 98.902618 156.760958 
L 99.625141 158.805481 
L 101.792709 166.526294 
L 102.515232 161.132304 
L 103.960278 165.885488 
L 104.682801 160.175927 
L 105.405324 162.480881 
L 106.127847 159.106282 
L 106.850369 161.346868 
L 107.572892 159.682287 
L 108.295415 161.83415 
L 109.017938 161.725748 
L 110.462984 164.901205 
L 111.185507 163.682404 
L 111.90803 165.596212 
L 112.630552 164.878716 
L 113.353075 166.714025 
L 114.075598 167.181496 
L 116.96569 172.742244 
L 117.688213 171.229034 
L 118.410736 172.793956 
L 119.133258 169.702128 
L 119.855781 167.433792 
L 120.578304 166.078008 
L 122.02335 169.137494 
L 122.745873 167.894601 
L 123.468396 169.361831 
L 124.190919 168.438374 
L 124.913442 169.862125 
L 125.635964 169.435493 
L 126.358487 169.681994 
L 127.08101 167.831469 
L 127.803533 165.485978 
L 129.971102 169.515374 
L 130.693625 167.47438 
L 132.861193 171.261108 
L 133.583716 170.670506 
L 134.306239 171.871237 
L 135.028762 172.293108 
L 135.751285 173.45148 
L 136.473808 172.150276 
L 137.196331 173.286237 
L 137.918854 172.786753 
L 138.641376 173.893336 
L 139.363899 173.480042 
L 140.086422 173.369584 
L 142.976514 177.52078 
L 143.699037 174.814489 
L 144.42156 174.75914 
L 145.144082 175.755245 
L 145.866605 174.124278 
L 147.311651 176.074083 
L 148.034174 175.025913 
L 148.756697 174.264954 
L 149.47922 173.847063 
L 150.924265 175.717605 
L 151.646788 174.729671 
L 152.369311 175.325099 
L 153.091834 176.224371 
L 153.814357 175.948609 
L 154.53688 176.074404 
L 155.259403 174.383113 
L 155.981926 174.63256 
L 156.704449 172.552078 
L 158.149494 174.294719 
L 158.872017 174.900128 
L 159.59454 175.73949 
L 160.317063 176.139481 
L 162.484632 178.553095 
L 163.207155 176.83909 
L 163.929677 177.626398 
L 164.6522 177.066838 
L 165.374723 177.840894 
L 166.097246 176.759702 
L 166.819769 177.524766 
L 167.542292 177.91664 
L 168.264815 178.147591 
L 168.987338 177.314766 
L 169.709861 177.844762 
L 170.432383 176.857633 
L 171.154906 175.47039 
L 171.877429 176.207412 
L 172.599952 176.130757 
L 173.322475 175.34486 
L 174.044998 174.233472 
L 174.767521 173.98828 
L 175.490044 174.710615 
L 176.212567 172.486207 
L 177.657612 173.922184 
L 178.380135 174.130142 
L 179.102658 172.359607 
L 179.825181 171.32071 
L 180.547704 172.02783 
L 181.270227 169.918951 
L 181.99275 170.625992 
L 182.715273 170.603264 
L 183.437795 169.041634 
L 184.160318 169.740997 
L 184.882841 170.179493 
L 185.605364 169.045173 
L 186.327887 169.731799 
L 187.05041 168.722878 
L 188.495456 169.985818 
L 189.217978 170.262697 
L 189.940501 168.556135 
L 191.385547 169.879185 
L 192.10807 168.426652 
L 193.553116 169.728501 
L 194.275639 168.094643 
L 194.998162 166.981971 
L 196.443207 168.270871 
L 197.16573 167.981874 
L 197.888253 167.935397 
L 198.610776 168.563986 
L 199.333299 168.563986 
L 200.055822 169.185704 
L 200.778345 168.073951 
L 201.500868 168.691597 
L 202.22339 168.706768 
L 203.668436 169.915616 
L 204.390959 169.684854 
L 205.113482 168.718888 
L 207.281051 170.438024 
L 208.003574 168.728678 
L 208.726096 168.745961 
L 209.448619 169.325515 
L 210.171142 168.433924 
L 213.061234 170.700681 
L 213.783757 170.23649 
L 214.50628 170.788717 
L 215.228802 170.967565 
L 215.951325 171.510838 
L 216.673848 171.081718 
L 217.396371 171.619191 
L 218.118894 171.509253 
L 218.841417 171.846301 
L 219.56394 170.260485 
L 220.286463 169.116566 
L 221.731508 169.725738 
L 222.454031 168.673306 
L 223.176554 168.463851 
L 223.899077 167.565091 
L 226.066646 169.127831 
L 227.511691 169.426384 
L 228.956737 170.402832 
L 229.67926 169.750914 
L 230.401783 170.251303 
L 231.124306 169.118471 
L 233.291875 170.579856 
L 234.014397 169.635278 
L 234.73692 170.12317 
L 235.459443 169.236821 
L 236.181966 169.722236 
L 236.904489 168.992653 
L 237.627012 167.924037 
L 238.349535 166.625413 
L 240.517103 168.077878 
L 241.239626 166.705991 
L 243.407195 168.133552 
L 244.129718 167.962691 
L 244.852241 168.268183 
L 247.019809 169.536382 
L 247.742332 169.989403 
L 248.464855 170.160273 
L 249.909901 171.050576 
L 250.632424 171.050576 
L 251.354947 171.17424 
L 252.07747 171.096022 
L 253.522515 171.965103 
L 254.967561 171.05759 
L 255.690084 171.487246 
L 256.412607 170.728989 
L 257.13513 169.457327 
L 257.857653 169.888171 
L 258.580176 169.711717 
L 260.025221 170.56173 
L 261.470267 170.532148 
L 262.19279 170.949336 
L 262.915313 170.3502 
L 263.637836 169.282256 
L 266.527927 170.932712 
L 267.25045 171.200593 
L 267.972973 170.309926 
L 268.695496 170.089263 
L 269.418019 170.493038 
L 270.140542 170.610689 
L 272.30811 171.799282 
L 273.753156 172.273311 
L 274.475679 172.156638 
L 277.365771 173.681647 
L 278.088294 172.985837 
L 279.533339 173.734827 
L 280.255862 173.484675 
L 280.978385 173.854926 
L 281.700908 172.882024 
L 282.423431 173.251809 
L 283.145954 173.038146 
L 285.313522 174.13115 
L 286.036045 173.792617 
L 288.926137 175.14051 
L 289.64866 175.184763 
L 290.371183 174.411217 
L 294.70632 176.48011 
L 295.428843 176.560877 
L 296.873889 177.230355 
L 297.596411 176.221677 
L 298.318934 176.555377 
L 299.041457 176.334804 
L 299.76398 176.666066 
L 300.486503 175.715969 
L 302.654072 176.703214 
L 303.376595 176.239201 
L 304.82164 176.888126 
L 306.266686 176.451087 
L 306.989209 176.771958 
L 307.711732 176.55251 
L 308.434255 176.871143 
L 309.156778 176.694363 
L 309.879301 175.915437 
L 310.601823 176.233117 
L 311.324346 176.22303 
L 312.046869 176.537913 
L 312.769392 176.151336 
L 314.936961 177.036188 
L 315.659484 176.482635 
L 316.382007 176.159059 
L 317.104529 176.056787 
L 318.549575 176.579853 
L 319.272098 176.196407 
L 319.994621 175.226949 
L 321.439667 175.839015 
L 322.884713 174.750332 
L 323.607235 173.798702 
L 324.329758 174.105312 
L 325.052281 174.245669 
L 325.774804 174.064575 
L 326.497327 173.41621 
L 327.21985 173.720462 
L 327.942373 173.800942 
L 328.664896 173.164786 
L 330.832464 174.067047 
L 332.27751 172.765832 
L 333.000033 172.469691 
L 333.722556 172.769061 
L 334.445079 172.153311 
L 335.167602 172.451916 
L 335.890124 172.460611 
L 338.057693 173.344347 
L 338.780216 172.591159 
L 339.502739 172.405782 
L 340.947785 171.636028 
L 341.670308 170.799973 
L 343.115353 171.387018 
L 343.837876 170.972344 
L 344.560399 171.263879 
L 345.282922 170.828775 
L 346.005445 171.100512 
L 346.727968 171.216875 
L 347.450491 170.673052 
L 348.173014 169.911497 
L 349.618059 170.489528 
L 350.340582 170.140595 
L 351.785628 170.208355 
L 352.508151 170.370698 
L 353.230674 169.96283 
L 355.398242 170.812016 
L 356.120765 170.688001 
L 356.843288 170.967827 
L 357.565811 170.840571 
L 358.288334 170.988775 
L 359.010857 171.265764 
L 359.73338 170.440849 
L 361.178426 170.575432 
L 361.900948 170.85071 
L 363.345994 170.202113 
L 364.79104 170.74912 
L 365.513563 170.478461 
L 366.236086 169.980621 
L 366.958609 170.134557 
L 367.681131 170.172148 
L 368.403654 169.790025 
L 370.571223 170.394537 
L 371.293746 170.302958 
L 372.016269 169.713717 
L 372.738792 169.520191 
L 373.461315 169.787533 
L 374.183837 169.59913 
L 374.90636 169.094023 
L 375.628883 168.91848 
L 376.351406 169.184724 
L 377.073929 168.5513 
L 377.796452 168.817158 
L 378.518975 168.962855 
L 379.241498 169.226519 
L 379.964021 168.459926 
L 382.854112 169.399011 
L 383.576635 169.408875 
L 385.021681 168.709379 
L 385.744204 168.543079 
L 386.466727 168.801705 
L 387.189249 168.758433 
L 387.911772 169.015402 
L 388.634295 168.845017 
L 389.356818 169.076659 
L 390.079341 169.068361 
L 390.801864 169.32233 
L 391.524387 169.057105 
L 394.414478 170.040635 
L 395.137001 169.825424 
L 395.859524 169.23536 
L 396.582047 168.995576 
L 397.30457 169.244681 
L 398.027093 169.144098 
L 398.749616 168.602228 
L 399.472139 168.668148 
L 400.194661 168.161523 
L 401.639707 168.656868 
L 402.36223 168.608946 
L 403.807276 169.09916 
L 404.529799 168.840561 
L 405.974844 169.326634 
L 406.697367 169.170731 
L 407.41989 168.713214 
L 408.864936 169.1957 
L 410.309982 168.726036 
L 411.032505 168.965725 
L 411.755028 168.698845 
L 412.47755 168.656167 
L 417.535211 170.303737 
L 418.257734 169.673973 
L 418.980256 169.310116 
L 419.702779 169.382965 
L 420.425302 169.265906 
L 421.870348 169.626915 
L 424.76044 170.495521 
L 425.482962 170.171662 
L 426.205485 169.510374 
L 428.373054 170.190062 
L 428.373054 170.190062 
" clip-path="url(#pfe3ec633b4)" style="fill: none; stroke: #777777; stroke-width: 1.5; stroke-linecap: round"/>
   </g>
   <g id="line2d_18">
    <path d="M 67.834134 281.926013 
L 68.556656 282.132246 
L 70.001702 282.235363 
L 70.724225 255.726783 
L 71.446748 260.162066 
L 72.169271 263.330125 
L 72.891794 214.937733 
L 73.614317 213.96841 
L 74.33684 220.805417 
L 75.781885 230.990335 
L 76.504408 234.538642 
L 77.226931 210.126562 
L 78.671977 219.153052 
L 79.3945 216.140698 
L 80.839545 223.108886 
L 81.562068 208.00983 
L 83.007114 214.76698 
L 84.45216 220.397939 
L 85.174683 222.87556 
L 85.897206 218.205404 
L 87.342251 222.786338 
L 88.787297 226.756481 
L 89.50982 228.549449 
L 90.232343 228.422623 
L 90.954866 226.008233 
L 91.677389 220.062532 
L 93.844957 225.111933 
L 95.290003 227.818048 
L 96.012526 225.809247 
L 96.735049 227.188009 
L 97.457572 221.797831 
L 98.902618 224.549679 
L 99.625141 224.976021 
L 101.070186 227.416976 
L 101.792709 227.093607 
L 103.960278 230.343305 
L 106.127847 233.210489 
L 106.850369 229.523441 
L 108.295415 231.3766 
L 109.017938 228.565297 
L 110.462984 229.378607 
L 111.185507 228.048065 
L 111.90803 228.923717 
L 112.630552 225.357132 
L 113.353075 223.149039 
L 114.075598 223.071293 
L 114.798121 221.579348 
L 115.520644 222.486201 
L 116.243167 218.81665 
L 119.133258 222.345641 
L 120.578304 223.967069 
L 121.300827 221.382694 
L 122.02335 222.184744 
L 122.745873 220.696209 
L 123.468396 221.486494 
L 124.190919 220.964857 
L 124.913442 221.732027 
L 125.635964 220.984848 
L 127.803533 223.176049 
L 128.526056 220.573068 
L 129.971102 221.992962 
L 130.693625 221.662658 
L 131.416148 222.344409 
L 132.13867 218.853711 
L 133.583716 220.233815 
L 135.751285 214.882971 
L 136.473808 215.585632 
L 137.196331 212.737723 
L 139.363899 214.825746 
L 140.086422 212.743527 
L 141.531468 214.094885 
L 142.253991 210.997073 
L 142.976514 209.104306 
L 143.699037 209.795194 
L 144.42156 210.271349 
L 146.589128 212.236816 
L 147.311651 209.866536 
L 148.756697 211.149225 
L 149.47922 211.539136 
L 153.091834 214.513898 
L 153.814357 213.617948 
L 157.426971 216.366769 
L 158.149494 214.287387 
L 158.872017 214.823223 
L 159.59454 215.165588 
L 160.317063 215.686308 
L 161.039586 215.248738 
L 163.207155 216.762041 
L 163.929677 216.716619 
L 168.264815 219.528985 
L 168.987338 219.974442 
L 169.709861 219.788896 
L 171.154906 220.65764 
L 171.877429 219.814975 
L 172.599952 219.61276 
L 176.935089 222.080139 
L 177.657612 221.586261 
L 178.380135 221.266354 
L 179.825181 222.04933 
L 180.547704 221.410996 
L 181.270227 221.796613 
L 181.99275 221.919668 
L 182.715273 220.959288 
L 187.772933 223.532069 
L 188.495456 222.802151 
L 189.217978 222.501712 
L 189.940501 222.853693 
L 190.663024 222.158937 
L 192.830593 223.196515 
L 193.553116 221.539926 
L 194.275639 221.676114 
L 195.720684 222.357714 
L 196.443207 221.984097 
L 197.16573 222.319399 
L 197.888253 222.311084 
L 198.610776 222.640905 
L 199.333299 222.640905 
L 200.055822 221.86665 
L 202.22339 222.842002 
L 202.945913 222.562631 
L 203.668436 222.880588 
L 204.390959 222.456789 
L 205.113482 222.771956 
L 205.836005 220.761762 
L 206.558528 221.082474 
L 207.281051 219.101865 
L 208.726096 219.750446 
L 209.448619 218.314568 
L 210.171142 218.639562 
L 210.893665 218.119114 
L 215.951325 220.31197 
L 218.118894 221.147263 
L 219.56394 221.730037 
L 220.286463 221.875587 
L 221.008985 222.16079 
L 221.731508 222.010399 
L 222.454031 222.292306 
L 223.176554 221.852501 
L 224.6216 222.409975 
L 225.344123 222.276946 
L 226.066646 222.551199 
L 226.789169 222.56038 
L 228.234214 222.320695 
L 228.956737 221.763485 
L 230.401783 222.30193 
L 231.124306 222.233923 
L 232.569352 222.761156 
L 233.291875 221.084578 
L 234.014397 221.3509 
L 234.73692 220.201413 
L 235.459443 220.469245 
L 236.181966 220.312774 
L 241.239626 222.121857 
L 241.962149 222.076515 
L 242.684672 222.325532 
L 243.407195 220.811184 
L 244.129718 220.583024 
L 244.852241 219.449496 
L 249.187378 220.952819 
L 249.909901 220.305426 
L 250.632424 220.305426 
L 254.245038 221.349713 
L 257.857653 222.359982 
L 258.580176 221.769342 
L 259.302698 221.99877 
L 260.025221 221.731272 
L 260.747744 221.959119 
L 261.470267 221.634837 
L 262.19279 220.881509 
L 262.915313 220.546547 
L 264.360359 220.980662 
L 265.082882 219.575678 
L 265.805404 218.788909 
L 266.527927 219.020841 
L 267.25045 218.371028 
L 268.695496 218.832886 
L 269.418019 218.749684 
L 270.140542 218.977601 
L 270.863065 217.924828 
L 273.030633 218.607658 
L 273.753156 217.380056 
L 274.475679 216.818682 
L 275.198202 216.497707 
L 275.920725 215.669484 
L 278.088294 216.342386 
L 278.810816 216.200771 
L 281.700908 217.097554 
L 282.423431 216.359778 
L 283.145954 216.581929 
L 283.868477 215.887611 
L 284.591 216.109855 
L 285.313522 215.027397 
L 288.203614 215.913069 
L 288.926137 215.12286 
L 290.371183 215.560747 
L 291.093706 214.705925 
L 292.538751 215.142264 
L 294.70632 214.759492 
L 295.428843 214.855838 
L 298.318934 215.646016 
L 299.041457 215.705053 
L 300.486503 216.120215 
L 301.209026 215.171583 
L 301.931549 214.779894 
L 302.654072 214.778985 
L 303.376595 214.986861 
L 304.82164 214.712572 
L 306.266686 215.123672 
L 306.989209 214.105997 
L 307.711732 214.074945 
L 308.434255 213.647817 
L 309.156778 213.507329 
L 309.879301 213.578377 
L 310.601823 213.200127 
L 311.324346 213.405896 
L 312.046869 212.387188 
L 312.769392 212.562784 
L 313.491915 211.460312 
L 314.214438 210.799843 
L 314.936961 210.836664 
L 315.659484 210.71424 
L 316.382007 210.381194 
L 317.104529 210.590372 
L 317.827052 209.90541 
L 318.549575 210.114754 
L 319.272098 209.945727 
L 319.994621 210.153752 
L 320.717144 209.226194 
L 324.329758 210.258854 
L 325.052281 209.660535 
L 325.774804 209.479452 
L 326.497327 209.683539 
L 327.21985 209.603542 
L 328.664896 210.007625 
L 329.387419 210.053765 
L 330.109941 210.253446 
L 330.832464 209.825599 
L 333.722556 210.61593 
L 334.445079 210.519121 
L 337.33517 211.291373 
L 338.057693 211.169854 
L 344.560399 212.829755 
L 345.282922 212.810513 
L 348.895536 213.706492 
L 349.618059 213.454095 
L 351.785628 213.981271 
L 352.508151 213.273598 
L 353.953197 213.547829 
L 356.120765 214.066352 
L 356.843288 214.104684 
L 358.288334 214.338426 
L 359.010857 213.885646 
L 360.455903 214.181334 
L 361.178426 213.696125 
L 361.900948 213.865195 
L 363.345994 213.882932 
L 364.068517 213.342006 
L 364.79104 213.51029 
L 365.513563 213.175096 
L 366.236086 213.306777 
L 366.958609 213.297936 
L 367.681131 212.640108 
L 368.403654 212.640258 
L 369.126177 212.807802 
L 369.8487 212.403591 
L 372.016269 212.839788 
L 372.738792 212.764454 
L 377.796452 213.902347 
L 378.518975 213.782582 
L 381.409066 214.415893 
L 382.854112 214.553773 
L 383.576635 214.122787 
L 384.299158 213.912446 
L 385.021681 213.896236 
L 385.744204 214.052141 
L 386.466727 213.199352 
L 387.189249 213.16201 
L 387.911772 212.809922 
L 389.356818 213.083297 
L 390.079341 212.505086 
L 392.24691 212.972721 
L 392.969433 212.355408 
L 393.691955 212.004453 
L 396.582047 212.598229 
L 398.027093 211.720723 
L 398.749616 211.875248 
L 399.472139 211.497153 
L 400.194661 211.651491 
L 400.917184 211.246669 
L 402.36223 210.237325 
L 403.084753 210.393051 
L 403.807276 210.231692 
L 407.41989 210.941582 
L 408.142413 210.369016 
L 409.587459 210.673971 
L 410.309982 210.605628 
L 411.032505 210.731307 
L 411.755028 210.472729 
L 413.922596 210.923769 
L 414.645119 210.489033 
L 416.090165 210.787784 
L 416.812688 210.342031 
L 423.315394 211.657504 
L 424.037917 211.660565 
L 424.76044 211.530947 
L 427.650531 212.092759 
L 428.373054 211.526393 
L 428.373054 211.526393 
" clip-path="url(#pfe3ec633b4)" style="fill: none; stroke: #fbc15e; stroke-width: 1.5; stroke-linecap: round"/>
   </g>
   <g id="patch_3">
    <path d="M 49.807188 295.440313 
L 49.807188 7.2 
" style="fill: none; stroke: #262626; stroke-linejoin: miter; stroke-linecap: square"/>
   </g>
   <g id="patch_4">
    <path d="M 446.4 295.440313 
L 446.4 7.2 
" style="fill: none; stroke: #262626; stroke-linejoin: miter; stroke-linecap: square"/>
   </g>
   <g id="patch_5">
    <path d="M 49.807187 295.440313 
L 446.4 295.440313 
" style="fill: none; stroke: #262626; stroke-linejoin: miter; stroke-linecap: square"/>
   </g>
   <g id="patch_6">
    <path d="M 49.807187 7.2 
L 446.4 7.2 
" style="fill: none; stroke: #262626; stroke-linejoin: miter; stroke-linecap: square"/>
   </g>
   <g id="legend_1">
    <g id="patch_7">
     <path d="M 370.72 96.729688 
L 438.7 96.729688 
Q 440.9 96.729688 440.9 94.529688 
L 440.9 14.9 
Q 440.9 12.7 438.7 12.7 
L 370.72 12.7 
Q 368.52 12.7 368.52 14.9 
L 368.52 94.529688 
Q 368.52 96.729688 370.72 96.729688 
z
" style="fill: #ffffff; opacity: 0.8; stroke: #cccccc; stroke-width: 0.5; stroke-linejoin: miter"/>
    </g>
    <g id="line2d_19">
     <path d="M 372.92 21.608281 
L 383.92 21.608281 
L 394.92 21.608281 
" style="fill: none; stroke: #e24a33; stroke-width: 1.5; stroke-linecap: round"/>
    </g>
    <g id="text_16">
     <!-- AAPL -->
     <g style="fill: #262626" transform="translate(403.72 25.458281)scale(0.11 -0.11)">
      <defs>
       <path id="DejaVuSans-50" d="M 1259 4147 
L 1259 2394 
L 2053 2394 
Q 2494 2394 2734 2622 
Q 2975 2850 2975 3272 
Q 2975 3691 2734 3919 
Q 2494 4147 2053 4147 
L 1259 4147 
z
M 628 4666 
L 2053 4666 
Q 2838 4666 3239 4311 
Q 3641 3956 3641 3272 
Q 3641 2581 3239 2228 
Q 2838 1875 2053 1875 
L 1259 1875 
L 1259 0 
L 628 0 
L 628 4666 
z
" transform="scale(0.015625)"/>
       <path id="DejaVuSans-4c" d="M 628 4666 
L 1259 4666 
L 1259 531 
L 3531 531 
L 3531 0 
L 628 0 
L 628 4666 
z
" transform="scale(0.015625)"/>
      </defs>
      <use xlink:href="#DejaVuSans-41"/>
      <use xlink:href="#DejaVuSans-41" x="71.158203"/>
      <use xlink:href="#DejaVuSans-50" x="139.566406"/>
      <use xlink:href="#DejaVuSans-4c" x="199.869141"/>
     </g>
    </g>
    <g id="line2d_20">
     <path d="M 372.92 37.754219 
L 383.92 37.754219 
L 394.92 37.754219 
" style="fill: none; stroke: #348abd; stroke-width: 1.5; stroke-linecap: round"/>
    </g>
    <g id="text_17">
     <!-- MSTR -->
     <g style="fill: #262626" transform="translate(403.72 41.604219)scale(0.11 -0.11)">
      <defs>
       <path id="DejaVuSans-4d" d="M 628 4666 
L 1569 4666 
L 2759 1491 
L 3956 4666 
L 4897 4666 
L 4897 0 
L 4281 0 
L 4281 4097 
L 3078 897 
L 2444 897 
L 1241 4097 
L 1241 0 
L 628 0 
L 628 4666 
z
" transform="scale(0.015625)"/>
       <path id="DejaVuSans-53" d="M 3425 4513 
L 3425 3897 
Q 3066 4069 2747 4153 
Q 2428 4238 2131 4238 
Q 1616 4238 1336 4038 
Q 1056 3838 1056 3469 
Q 1056 3159 1242 3001 
Q 1428 2844 1947 2747 
L 2328 2669 
Q 3034 2534 3370 2195 
Q 3706 1856 3706 1288 
Q 3706 609 3251 259 
Q 2797 -91 1919 -91 
Q 1588 -91 1214 -16 
Q 841 59 441 206 
L 441 856 
Q 825 641 1194 531 
Q 1563 422 1919 422 
Q 2459 422 2753 634 
Q 3047 847 3047 1241 
Q 3047 1584 2836 1778 
Q 2625 1972 2144 2069 
L 1759 2144 
Q 1053 2284 737 2584 
Q 422 2884 422 3419 
Q 422 4038 858 4394 
Q 1294 4750 2059 4750 
Q 2388 4750 2728 4690 
Q 3069 4631 3425 4513 
z
" transform="scale(0.015625)"/>
       <path id="DejaVuSans-54" d="M -19 4666 
L 3928 4666 
L 3928 4134 
L 2272 4134 
L 2272 0 
L 1638 0 
L 1638 4134 
L -19 4134 
L -19 4666 
z
" transform="scale(0.015625)"/>
       <path id="DejaVuSans-52" d="M 2841 2188 
Q 3044 2119 3236 1894 
Q 3428 1669 3622 1275 
L 4263 0 
L 3584 0 
L 2988 1197 
Q 2756 1666 2539 1819 
Q 2322 1972 1947 1972 
L 1259 1972 
L 1259 0 
L 628 0 
L 628 4666 
L 2053 4666 
Q 2853 4666 3247 4331 
Q 3641 3997 3641 3322 
Q 3641 2881 3436 2590 
Q 3231 2300 2841 2188 
z
M 1259 4147 
L 1259 2491 
L 2053 2491 
Q 2509 2491 2742 2702 
Q 2975 2913 2975 3322 
Q 2975 3731 2742 3939 
Q 2509 4147 2053 4147 
L 1259 4147 
z
" transform="scale(0.015625)"/>
      </defs>
      <use xlink:href="#DejaVuSans-4d"/>
      <use xlink:href="#DejaVuSans-53" x="86.279297"/>
      <use xlink:href="#DejaVuSans-54" x="149.755859"/>
      <use xlink:href="#DejaVuSans-52" x="210.839844"/>
     </g>
    </g>
    <g id="line2d_21">
     <path d="M 372.92 53.900156 
L 383.92 53.900156 
L 394.92 53.900156 
" style="fill: none; stroke: #988ed5; stroke-width: 1.5; stroke-linecap: round"/>
    </g>
    <g id="text_18">
     <!-- TSLA -->
     <g style="fill: #262626" transform="translate(403.72 57.750156)scale(0.11 -0.11)">
      <use xlink:href="#DejaVuSans-54"/>
      <use xlink:href="#DejaVuSans-53" x="61.083984"/>
      <use xlink:href="#DejaVuSans-4c" x="124.560547"/>
      <use xlink:href="#DejaVuSans-41" x="182.523438"/>
     </g>
    </g>
    <g id="line2d_22">
     <path d="M 372.92 70.046094 
L 383.92 70.046094 
L 394.92 70.046094 
" style="fill: none; stroke: #777777; stroke-width: 1.5; stroke-linecap: round"/>
    </g>
    <g id="text_19">
     <!-- MSFT -->
     <g style="fill: #262626" transform="translate(403.72 73.896094)scale(0.11 -0.11)">
      <defs>
       <path id="DejaVuSans-46" d="M 628 4666 
L 3309 4666 
L 3309 4134 
L 1259 4134 
L 1259 2759 
L 3109 2759 
L 3109 2228 
L 1259 2228 
L 1259 0 
L 628 0 
L 628 4666 
z
" transform="scale(0.015625)"/>
      </defs>
      <use xlink:href="#DejaVuSans-4d"/>
      <use xlink:href="#DejaVuSans-53" x="86.279297"/>
      <use xlink:href="#DejaVuSans-46" x="149.755859"/>
      <use xlink:href="#DejaVuSans-54" x="205.525391"/>
     </g>
    </g>
    <g id="line2d_23">
     <path d="M 372.92 86.192031 
L 383.92 86.192031 
L 394.92 86.192031 
" style="fill: none; stroke: #fbc15e; stroke-width: 1.5; stroke-linecap: round"/>
    </g>
    <g id="text_20">
     <!-- AMZN -->
     <g style="fill: #262626" transform="translate(403.72 90.042031)scale(0.11 -0.11)">
      <defs>
       <path id="DejaVuSans-5a" d="M 359 4666 
L 4025 4666 
L 4025 4184 
L 1075 531 
L 4097 531 
L 4097 0 
L 288 0 
L 288 481 
L 3238 4134 
L 359 4134 
L 359 4666 
z
" transform="scale(0.015625)"/>
       <path id="DejaVuSans-4e" d="M 628 4666 
L 1478 4666 
L 3547 763 
L 3547 4666 
L 4159 4666 
L 4159 0 
L 3309 0 
L 1241 3903 
L 1241 0 
L 628 0 
L 628 4666 
z
" transform="scale(0.015625)"/>
      </defs>
      <use xlink:href="#DejaVuSans-41"/>
      <use xlink:href="#DejaVuSans-4d" x="68.408203"/>
      <use xlink:href="#DejaVuSans-5a" x="154.6875"/>
      <use xlink:href="#DejaVuSans-4e" x="223.193359"/>
     </g>
    </g>
   </g>
  </g>
 </g>
 <defs>
  <clipPath id="pfe3ec633b4">
   <rect x="49.807188" y="7.2" width="396.592812" height="288.240312"/>
  </clipPath>
 </defs>
</svg>
